%TF.GenerationSoftware,KiCad,Pcbnew,8.0.1*%
%TF.CreationDate,2024-03-24T23:20:45+02:00*%
%TF.ProjectId,_autosave-_autosave-Assignment 2,5f617574-6f73-4617-9665-2d5f6175746f,rev?*%
%TF.SameCoordinates,Original*%
%TF.FileFunction,Soldermask,Top*%
%TF.FilePolarity,Negative*%
%FSLAX46Y46*%
G04 Gerber Fmt 4.6, Leading zero omitted, Abs format (unit mm)*
G04 Created by KiCad (PCBNEW 8.0.1) date 2024-03-24 23:20:45*
%MOMM*%
%LPD*%
G01*
G04 APERTURE LIST*
G04 Aperture macros list*
%AMRoundRect*
0 Rectangle with rounded corners*
0 $1 Rounding radius*
0 $2 $3 $4 $5 $6 $7 $8 $9 X,Y pos of 4 corners*
0 Add a 4 corners polygon primitive as box body*
4,1,4,$2,$3,$4,$5,$6,$7,$8,$9,$2,$3,0*
0 Add four circle primitives for the rounded corners*
1,1,$1+$1,$2,$3*
1,1,$1+$1,$4,$5*
1,1,$1+$1,$6,$7*
1,1,$1+$1,$8,$9*
0 Add four rect primitives between the rounded corners*
20,1,$1+$1,$2,$3,$4,$5,0*
20,1,$1+$1,$4,$5,$6,$7,0*
20,1,$1+$1,$6,$7,$8,$9,0*
20,1,$1+$1,$8,$9,$2,$3,0*%
%AMFreePoly0*
4,1,9,3.862500,-0.866500,0.737500,-0.866500,0.737500,-0.450000,-0.737500,-0.450000,-0.737500,0.450000,0.737500,0.450000,0.737500,0.866500,3.862500,0.866500,3.862500,-0.866500,3.862500,-0.866500,$1*%
G04 Aperture macros list end*
%ADD10C,1.462000*%
%ADD11RoundRect,0.102000X0.629000X-0.629000X0.629000X0.629000X-0.629000X0.629000X-0.629000X-0.629000X0*%
%ADD12C,2.000000*%
%ADD13RoundRect,0.225000X-0.225000X-0.250000X0.225000X-0.250000X0.225000X0.250000X-0.225000X0.250000X0*%
%ADD14R,1.800000X1.800000*%
%ADD15C,1.800000*%
%ADD16RoundRect,0.225000X0.225000X0.250000X-0.225000X0.250000X-0.225000X-0.250000X0.225000X-0.250000X0*%
%ADD17RoundRect,0.225000X-0.425000X-0.225000X0.425000X-0.225000X0.425000X0.225000X-0.425000X0.225000X0*%
%ADD18FreePoly0,0.000000*%
%ADD19RoundRect,0.200000X0.275000X-0.200000X0.275000X0.200000X-0.275000X0.200000X-0.275000X-0.200000X0*%
%ADD20RoundRect,0.200000X0.200000X0.275000X-0.200000X0.275000X-0.200000X-0.275000X0.200000X-0.275000X0*%
%ADD21RoundRect,0.102000X-0.629000X-0.629000X0.629000X-0.629000X0.629000X0.629000X-0.629000X0.629000X0*%
%ADD22RoundRect,0.200000X-0.275000X0.200000X-0.275000X-0.200000X0.275000X-0.200000X0.275000X0.200000X0*%
%ADD23RoundRect,0.225000X-0.250000X0.225000X-0.250000X-0.225000X0.250000X-0.225000X0.250000X0.225000X0*%
%ADD24RoundRect,0.102000X-0.629000X0.629000X-0.629000X-0.629000X0.629000X-0.629000X0.629000X0.629000X0*%
%ADD25RoundRect,0.225000X0.425000X0.225000X-0.425000X0.225000X-0.425000X-0.225000X0.425000X-0.225000X0*%
%ADD26FreePoly0,180.000000*%
%ADD27RoundRect,0.102000X0.254000X-0.990600X0.254000X0.990600X-0.254000X0.990600X-0.254000X-0.990600X0*%
%ADD28RoundRect,0.200000X-0.200000X-0.275000X0.200000X-0.275000X0.200000X0.275000X-0.200000X0.275000X0*%
%ADD29R,1.700000X1.700000*%
%ADD30O,1.700000X1.700000*%
G04 APERTURE END LIST*
D10*
%TO.C,D2*%
X123000000Y-112230000D03*
D11*
X123000000Y-114770000D03*
%TD*%
D12*
%TO.C,Sense2*%
X123000000Y-126000000D03*
%TD*%
%TO.C,Analogue1*%
X167000000Y-126000000D03*
%TD*%
D13*
%TO.C,C2*%
X126225000Y-110000000D03*
X127775000Y-110000000D03*
%TD*%
D12*
%TO.C,Sense1*%
X142000000Y-106000000D03*
%TD*%
D14*
%TO.C,D1*%
X115025000Y-116725000D03*
D15*
X115025000Y-119265000D03*
%TD*%
D12*
%TO.C,Sense3*%
X168000000Y-109000000D03*
%TD*%
D16*
%TO.C,C3*%
X163550000Y-113000000D03*
X162000000Y-113000000D03*
%TD*%
D17*
%TO.C,Q1*%
X120050000Y-118500000D03*
D18*
X120137500Y-120000000D03*
D17*
X120050000Y-121500000D03*
%TD*%
%TO.C,Q3*%
X148912500Y-116500000D03*
D18*
X149000000Y-118000000D03*
D17*
X148912500Y-119500000D03*
%TD*%
D19*
%TO.C,R2*%
X145000000Y-109825000D03*
X145000000Y-108175000D03*
%TD*%
D20*
%TO.C,R6*%
X123825000Y-110000000D03*
X122175000Y-110000000D03*
%TD*%
D10*
%TO.C,D4*%
X137000000Y-108000000D03*
D21*
X134460000Y-108000000D03*
%TD*%
D22*
%TO.C,R5*%
X140000000Y-109175000D03*
X140000000Y-110825000D03*
%TD*%
D20*
%TO.C,R7*%
X163650000Y-109000000D03*
X162000000Y-109000000D03*
%TD*%
D12*
%TO.C,Analogue2*%
X155000000Y-119000000D03*
%TD*%
D23*
%TO.C,C1*%
X145000000Y-112225000D03*
X145000000Y-113775000D03*
%TD*%
D10*
%TO.C,D3*%
X169000000Y-115000000D03*
D24*
X169000000Y-112460000D03*
%TD*%
D12*
%TO.C,Analogue3*%
X130000000Y-108000000D03*
%TD*%
D25*
%TO.C,Q2*%
X143950000Y-119500000D03*
D26*
X143862500Y-118000000D03*
D25*
X143950000Y-116500000D03*
%TD*%
D20*
%TO.C,R3*%
X161825000Y-119000000D03*
X160175000Y-119000000D03*
%TD*%
D27*
%TO.C,U1*%
X127190000Y-118463800D03*
X128460000Y-118463800D03*
X129730000Y-118463800D03*
X131000000Y-118463800D03*
X132270000Y-118463800D03*
X133540000Y-118463800D03*
X134810000Y-118463800D03*
X134810000Y-113536200D03*
X133540000Y-113536200D03*
X132270000Y-113536200D03*
X131000000Y-113536200D03*
X129730000Y-113536200D03*
X128460000Y-113536200D03*
X127190000Y-113536200D03*
%TD*%
D28*
%TO.C,R1*%
X115000000Y-113000000D03*
X116650000Y-113000000D03*
%TD*%
D29*
%TO.C,J1*%
X160700000Y-127000000D03*
D30*
X160700000Y-124460000D03*
X158160000Y-127000000D03*
X158160000Y-124460000D03*
X155620000Y-127000000D03*
X155620000Y-124460000D03*
X153080000Y-127000000D03*
X153080000Y-124460000D03*
X150540000Y-127000000D03*
X150540000Y-124460000D03*
X148000000Y-127000000D03*
X148000000Y-124460000D03*
X145460000Y-127000000D03*
X145460000Y-124460000D03*
X142920000Y-127000000D03*
X142920000Y-124460000D03*
X140380000Y-127000000D03*
X140380000Y-124460000D03*
X137840000Y-127000000D03*
X137840000Y-124460000D03*
X135300000Y-127000000D03*
X135300000Y-124460000D03*
X132760000Y-127000000D03*
X132760000Y-124460000D03*
X130220000Y-127000000D03*
X130220000Y-124460000D03*
X127680000Y-127000000D03*
X127680000Y-124460000D03*
%TD*%
D14*
%TO.C,D6*%
X166000000Y-122275000D03*
D15*
X166000000Y-119735000D03*
%TD*%
D14*
%TO.C,D5*%
X150775000Y-110025000D03*
D15*
X148235000Y-110025000D03*
%TD*%
M02*
