%TF.GenerationSoftware,KiCad,Pcbnew,8.0.1*%
%TF.CreationDate,2024-03-24T23:20:45+02:00*%
%TF.ProjectId,_autosave-_autosave-Assignment 2,5f617574-6f73-4617-9665-2d5f6175746f,rev?*%
%TF.SameCoordinates,Original*%
%TF.FileFunction,Copper,L1,Top*%
%TF.FilePolarity,Positive*%
%FSLAX46Y46*%
G04 Gerber Fmt 4.6, Leading zero omitted, Abs format (unit mm)*
G04 Created by KiCad (PCBNEW 8.0.1) date 2024-03-24 23:20:45*
%MOMM*%
%LPD*%
G01*
G04 APERTURE LIST*
G04 Aperture macros list*
%AMRoundRect*
0 Rectangle with rounded corners*
0 $1 Rounding radius*
0 $2 $3 $4 $5 $6 $7 $8 $9 X,Y pos of 4 corners*
0 Add a 4 corners polygon primitive as box body*
4,1,4,$2,$3,$4,$5,$6,$7,$8,$9,$2,$3,0*
0 Add four circle primitives for the rounded corners*
1,1,$1+$1,$2,$3*
1,1,$1+$1,$4,$5*
1,1,$1+$1,$6,$7*
1,1,$1+$1,$8,$9*
0 Add four rect primitives between the rounded corners*
20,1,$1+$1,$2,$3,$4,$5,0*
20,1,$1+$1,$4,$5,$6,$7,0*
20,1,$1+$1,$6,$7,$8,$9,0*
20,1,$1+$1,$8,$9,$2,$3,0*%
%AMFreePoly0*
4,1,9,3.862500,-0.866500,0.737500,-0.866500,0.737500,-0.450000,-0.737500,-0.450000,-0.737500,0.450000,0.737500,0.450000,0.737500,0.866500,3.862500,0.866500,3.862500,-0.866500,3.862500,-0.866500,$1*%
G04 Aperture macros list end*
%TA.AperFunction,ComponentPad*%
%ADD10C,1.258000*%
%TD*%
%TA.AperFunction,ComponentPad*%
%ADD11R,1.258000X1.258000*%
%TD*%
%TA.AperFunction,SMDPad,CuDef*%
%ADD12C,2.000000*%
%TD*%
%TA.AperFunction,SMDPad,CuDef*%
%ADD13RoundRect,0.225000X-0.225000X-0.250000X0.225000X-0.250000X0.225000X0.250000X-0.225000X0.250000X0*%
%TD*%
%TA.AperFunction,ComponentPad*%
%ADD14R,1.800000X1.800000*%
%TD*%
%TA.AperFunction,ComponentPad*%
%ADD15C,1.800000*%
%TD*%
%TA.AperFunction,SMDPad,CuDef*%
%ADD16RoundRect,0.225000X0.225000X0.250000X-0.225000X0.250000X-0.225000X-0.250000X0.225000X-0.250000X0*%
%TD*%
%TA.AperFunction,SMDPad,CuDef*%
%ADD17RoundRect,0.225000X-0.425000X-0.225000X0.425000X-0.225000X0.425000X0.225000X-0.425000X0.225000X0*%
%TD*%
%TA.AperFunction,SMDPad,CuDef*%
%ADD18FreePoly0,0.000000*%
%TD*%
%TA.AperFunction,SMDPad,CuDef*%
%ADD19RoundRect,0.200000X0.275000X-0.200000X0.275000X0.200000X-0.275000X0.200000X-0.275000X-0.200000X0*%
%TD*%
%TA.AperFunction,SMDPad,CuDef*%
%ADD20RoundRect,0.200000X0.200000X0.275000X-0.200000X0.275000X-0.200000X-0.275000X0.200000X-0.275000X0*%
%TD*%
%TA.AperFunction,SMDPad,CuDef*%
%ADD21RoundRect,0.200000X-0.275000X0.200000X-0.275000X-0.200000X0.275000X-0.200000X0.275000X0.200000X0*%
%TD*%
%TA.AperFunction,SMDPad,CuDef*%
%ADD22RoundRect,0.225000X-0.250000X0.225000X-0.250000X-0.225000X0.250000X-0.225000X0.250000X0.225000X0*%
%TD*%
%TA.AperFunction,SMDPad,CuDef*%
%ADD23RoundRect,0.225000X0.425000X0.225000X-0.425000X0.225000X-0.425000X-0.225000X0.425000X-0.225000X0*%
%TD*%
%TA.AperFunction,SMDPad,CuDef*%
%ADD24FreePoly0,180.000000*%
%TD*%
%TA.AperFunction,SMDPad,CuDef*%
%ADD25R,0.508000X1.981200*%
%TD*%
%TA.AperFunction,SMDPad,CuDef*%
%ADD26RoundRect,0.200000X-0.200000X-0.275000X0.200000X-0.275000X0.200000X0.275000X-0.200000X0.275000X0*%
%TD*%
%TA.AperFunction,ComponentPad*%
%ADD27R,1.700000X1.700000*%
%TD*%
%TA.AperFunction,ComponentPad*%
%ADD28O,1.700000X1.700000*%
%TD*%
%TA.AperFunction,ViaPad*%
%ADD29C,0.600000*%
%TD*%
%TA.AperFunction,Conductor*%
%ADD30C,0.200000*%
%TD*%
%TA.AperFunction,Conductor*%
%ADD31C,0.600000*%
%TD*%
%TA.AperFunction,Conductor*%
%ADD32C,0.400000*%
%TD*%
G04 APERTURE END LIST*
D10*
%TO.P,D2,A*%
%TO.N,Net-(C2-Pad1)*%
X123000000Y-112230000D03*
D11*
%TO.P,D2,K*%
%TO.N,VCC*%
X123000000Y-114770000D03*
%TD*%
D12*
%TO.P,Sense2,1,1*%
%TO.N,Net-(C2-Pad1)*%
X123000000Y-126000000D03*
%TD*%
%TO.P,Analogue1,1,1*%
%TO.N,Net-(J1-Pin_5)*%
X167000000Y-126000000D03*
%TD*%
D13*
%TO.P,C2,1*%
%TO.N,Net-(C2-Pad1)*%
X126225000Y-110000000D03*
%TO.P,C2,2*%
%TO.N,Net-(U1-POS_2)*%
X127775000Y-110000000D03*
%TD*%
D12*
%TO.P,Sense1,1,1*%
%TO.N,Net-(C1-Pad1)*%
X142000000Y-106000000D03*
%TD*%
D14*
%TO.P,D1,1,K*%
%TO.N,Net-(D1-K)*%
X115025000Y-116725000D03*
D15*
%TO.P,D1,2,A*%
%TO.N,Net-(D1-A)*%
X115025000Y-119265000D03*
%TD*%
D12*
%TO.P,Sense3,1,1*%
%TO.N,Net-(C3-Pad1)*%
X168000000Y-109000000D03*
%TD*%
D16*
%TO.P,C3,1*%
%TO.N,Net-(C3-Pad1)*%
X163550000Y-113000000D03*
%TO.P,C3,2*%
%TO.N,Net-(U1-POS_3)*%
X162000000Y-113000000D03*
%TD*%
D17*
%TO.P,Q1,1,B*%
%TO.N,Net-(J1-Pin_8)*%
X120050000Y-118500000D03*
D18*
%TO.P,Q1,2,C*%
%TO.N,VCC*%
X120137500Y-120000000D03*
D17*
%TO.P,Q1,3,E*%
%TO.N,Net-(D1-A)*%
X120050000Y-121500000D03*
%TD*%
%TO.P,Q3,1,B*%
%TO.N,Net-(J1-Pin_12)*%
X148912500Y-116500000D03*
D18*
%TO.P,Q3,2,C*%
%TO.N,VCC*%
X149000000Y-118000000D03*
D17*
%TO.P,Q3,3,E*%
%TO.N,Net-(D6-A)*%
X148912500Y-119500000D03*
%TD*%
D19*
%TO.P,R2,1*%
%TO.N,Net-(D5-K)*%
X145000000Y-109825000D03*
%TO.P,R2,2*%
%TO.N,GND*%
X145000000Y-108175000D03*
%TD*%
D20*
%TO.P,R6,1*%
%TO.N,Net-(C2-Pad1)*%
X123825000Y-110000000D03*
%TO.P,R6,2*%
%TO.N,GND*%
X122175000Y-110000000D03*
%TD*%
D10*
%TO.P,D4,A*%
%TO.N,Net-(C1-Pad1)*%
X137000000Y-108000000D03*
D11*
%TO.P,D4,K*%
%TO.N,VCC*%
X134460000Y-108000000D03*
%TD*%
D21*
%TO.P,R5,1*%
%TO.N,Net-(C1-Pad1)*%
X140000000Y-109175000D03*
%TO.P,R5,2*%
%TO.N,GND*%
X140000000Y-110825000D03*
%TD*%
D20*
%TO.P,R7,1*%
%TO.N,Net-(C3-Pad1)*%
X163650000Y-109000000D03*
%TO.P,R7,2*%
%TO.N,GND*%
X162000000Y-109000000D03*
%TD*%
D12*
%TO.P,Analogue2,1,1*%
%TO.N,Net-(J1-Pin_7)*%
X155000000Y-119000000D03*
%TD*%
D22*
%TO.P,C1,1*%
%TO.N,Net-(C1-Pad1)*%
X145000000Y-112225000D03*
%TO.P,C1,2*%
%TO.N,Net-(U1-POS_1)*%
X145000000Y-113775000D03*
%TD*%
D10*
%TO.P,D3,A*%
%TO.N,Net-(C3-Pad1)*%
X169000000Y-115000000D03*
D11*
%TO.P,D3,K*%
%TO.N,VCC*%
X169000000Y-112460000D03*
%TD*%
D12*
%TO.P,Analogue3,1,1*%
%TO.N,Net-(J1-Pin_11)*%
X130000000Y-108000000D03*
%TD*%
D23*
%TO.P,Q2,1,B*%
%TO.N,Net-(J1-Pin_10)*%
X143950000Y-119500000D03*
D24*
%TO.P,Q2,2,C*%
%TO.N,VCC*%
X143862500Y-118000000D03*
D23*
%TO.P,Q2,3,E*%
%TO.N,Net-(D5-A)*%
X143950000Y-116500000D03*
%TD*%
D20*
%TO.P,R3,1*%
%TO.N,Net-(D6-K)*%
X161825000Y-119000000D03*
%TO.P,R3,2*%
%TO.N,GND*%
X160175000Y-119000000D03*
%TD*%
D25*
%TO.P,U1,1,OUT1*%
%TO.N,Net-(J1-Pin_5)*%
X127190000Y-118463800D03*
%TO.P,U1,2,NEG_1*%
X128460000Y-118463800D03*
%TO.P,U1,3,POS_1*%
%TO.N,Net-(U1-POS_1)*%
X129730000Y-118463800D03*
%TO.P,U1,4,VCC+*%
%TO.N,VCC*%
X131000000Y-118463800D03*
%TO.P,U1,5,POS_2*%
%TO.N,Net-(U1-POS_2)*%
X132270000Y-118463800D03*
%TO.P,U1,6,NEG_2*%
%TO.N,Net-(J1-Pin_7)*%
X133540000Y-118463800D03*
%TO.P,U1,7,OUT2*%
X134810000Y-118463800D03*
%TO.P,U1,8,OUT3*%
%TO.N,Net-(J1-Pin_11)*%
X134810000Y-113536200D03*
%TO.P,U1,9,NEG3*%
X133540000Y-113536200D03*
%TO.P,U1,10,POS_3*%
%TO.N,Net-(U1-POS_3)*%
X132270000Y-113536200D03*
%TO.P,U1,11,VCC-*%
%TO.N,GND*%
X131000000Y-113536200D03*
%TO.P,U1,12,POS_4*%
%TO.N,unconnected-(U1-POS_4-Pad12)*%
X129730000Y-113536200D03*
%TO.P,U1,13,NEG_4*%
%TO.N,unconnected-(U1-NEG_4-Pad13)*%
X128460000Y-113536200D03*
%TO.P,U1,14,OUT4*%
%TO.N,unconnected-(U1-OUT4-Pad14)*%
X127190000Y-113536200D03*
%TD*%
D26*
%TO.P,R1,1*%
%TO.N,Net-(D1-K)*%
X115000000Y-113000000D03*
%TO.P,R1,2*%
%TO.N,GND*%
X116650000Y-113000000D03*
%TD*%
D27*
%TO.P,J1,1,Pin_1*%
%TO.N,unconnected-(J1-Pin_1-Pad1)*%
X160700000Y-127000000D03*
D28*
%TO.P,J1,2,Pin_2*%
%TO.N,unconnected-(J1-Pin_2-Pad2)*%
X160700000Y-124460000D03*
%TO.P,J1,3,Pin_3*%
%TO.N,GND*%
X158160000Y-127000000D03*
%TO.P,J1,4,Pin_4*%
%TO.N,VCC*%
X158160000Y-124460000D03*
%TO.P,J1,5,Pin_5*%
%TO.N,Net-(J1-Pin_5)*%
X155620000Y-127000000D03*
%TO.P,J1,6,Pin_6*%
%TO.N,unconnected-(J1-Pin_6-Pad6)*%
X155620000Y-124460000D03*
%TO.P,J1,7,Pin_7*%
%TO.N,Net-(J1-Pin_7)*%
X153080000Y-127000000D03*
%TO.P,J1,8,Pin_8*%
%TO.N,Net-(J1-Pin_8)*%
X153080000Y-124460000D03*
%TO.P,J1,9,Pin_9*%
%TO.N,GND*%
X150540000Y-127000000D03*
%TO.P,J1,10,Pin_10*%
%TO.N,Net-(J1-Pin_10)*%
X150540000Y-124460000D03*
%TO.P,J1,11,Pin_11*%
%TO.N,Net-(J1-Pin_11)*%
X148000000Y-127000000D03*
%TO.P,J1,12,Pin_12*%
%TO.N,Net-(J1-Pin_12)*%
X148000000Y-124460000D03*
%TO.P,J1,13,Pin_13*%
%TO.N,unconnected-(J1-Pin_13-Pad13)*%
X145460000Y-127000000D03*
%TO.P,J1,14,Pin_14*%
%TO.N,unconnected-(J1-Pin_14-Pad14)*%
X145460000Y-124460000D03*
%TO.P,J1,15,Pin_15*%
%TO.N,GND*%
X142920000Y-127000000D03*
%TO.P,J1,16,Pin_16*%
%TO.N,unconnected-(J1-Pin_16-Pad16)*%
X142920000Y-124460000D03*
%TO.P,J1,17,Pin_17*%
%TO.N,unconnected-(J1-Pin_17-Pad17)*%
X140380000Y-127000000D03*
%TO.P,J1,18,Pin_18*%
%TO.N,unconnected-(J1-Pin_18-Pad18)*%
X140380000Y-124460000D03*
%TO.P,J1,19,Pin_19*%
%TO.N,unconnected-(J1-Pin_19-Pad19)*%
X137840000Y-127000000D03*
%TO.P,J1,20,Pin_20*%
%TO.N,unconnected-(J1-Pin_20-Pad20)*%
X137840000Y-124460000D03*
%TO.P,J1,21,Pin_21*%
%TO.N,GND*%
X135300000Y-127000000D03*
%TO.P,J1,22,Pin_22*%
%TO.N,unconnected-(J1-Pin_22-Pad22)*%
X135300000Y-124460000D03*
%TO.P,J1,23,Pin_23*%
%TO.N,unconnected-(J1-Pin_23-Pad23)*%
X132760000Y-127000000D03*
%TO.P,J1,24,Pin_24*%
%TO.N,unconnected-(J1-Pin_24-Pad24)*%
X132760000Y-124460000D03*
%TO.P,J1,25,Pin_25*%
%TO.N,unconnected-(J1-Pin_25-Pad25)*%
X130220000Y-127000000D03*
%TO.P,J1,26,Pin_26*%
%TO.N,VCC*%
X130220000Y-124460000D03*
%TO.P,J1,27,Pin_27*%
%TO.N,GND*%
X127680000Y-127000000D03*
%TO.P,J1,28,Pin_28*%
%TO.N,unconnected-(J1-Pin_28-Pad28)*%
X127680000Y-124460000D03*
%TD*%
D14*
%TO.P,D6,1,K*%
%TO.N,Net-(D6-K)*%
X166000000Y-122275000D03*
D15*
%TO.P,D6,2,A*%
%TO.N,Net-(D6-A)*%
X166000000Y-119735000D03*
%TD*%
D14*
%TO.P,D5,1,K*%
%TO.N,Net-(D5-K)*%
X150775000Y-110025000D03*
D15*
%TO.P,D5,2,A*%
%TO.N,Net-(D5-A)*%
X148235000Y-110025000D03*
%TD*%
D29*
%TO.N,GND*%
X158000000Y-107500000D03*
X160500000Y-118300000D03*
%TO.N,Net-(J1-Pin_5)*%
X128000000Y-121000000D03*
%TO.N,Net-(J1-Pin_7)*%
X138000000Y-117800000D03*
X136000000Y-118500000D03*
X168500000Y-120000000D03*
X158000000Y-118500000D03*
X142500000Y-112975000D03*
%TO.N,Net-(J1-Pin_11)*%
X126500000Y-106500000D03*
X117500000Y-107000000D03*
X133000000Y-111000000D03*
X132000000Y-108000000D03*
%TO.N,Net-(U1-POS_1)*%
X141000000Y-114000000D03*
X132000000Y-116000000D03*
%TO.N,Net-(C2-Pad1)*%
X120000000Y-126000000D03*
%TO.N,Net-(U1-POS_3)*%
X136000000Y-112500000D03*
X152000000Y-112000000D03*
%TO.N,Net-(D6-A)*%
X153500000Y-121000000D03*
X148912500Y-119500000D03*
%TO.N,Net-(J1-Pin_8)*%
X118000000Y-117000000D03*
%TO.N,Net-(J1-Pin_10)*%
X147000000Y-116500000D03*
X148000000Y-121000000D03*
%TD*%
D30*
%TO.N,Net-(D6-K)*%
X161825000Y-119000000D02*
X162725000Y-119000000D01*
X162725000Y-119000000D02*
X166000000Y-122275000D01*
D31*
%TO.N,Net-(D5-A)*%
X148235000Y-110025000D02*
X148235000Y-113765000D01*
X148235000Y-113765000D02*
X145500000Y-116500000D01*
X145500000Y-116500000D02*
X143950000Y-116500000D01*
D30*
%TO.N,Net-(D5-K)*%
X145000000Y-109825000D02*
X146000000Y-108825000D01*
X146000000Y-108825000D02*
X149575000Y-108825000D01*
X149575000Y-108825000D02*
X150775000Y-110025000D01*
%TO.N,GND*%
X160175000Y-118625000D02*
X160500000Y-118300000D01*
X160175000Y-119000000D02*
X160175000Y-118625000D01*
X159500000Y-109000000D02*
X162000000Y-109000000D01*
X158000000Y-107500000D02*
X159500000Y-109000000D01*
D31*
%TO.N,Net-(J1-Pin_5)*%
X127190000Y-118463800D02*
X127190000Y-120190000D01*
X127190000Y-120190000D02*
X128000000Y-121000000D01*
X164650000Y-128350000D02*
X167000000Y-126000000D01*
X128460000Y-118463800D02*
X127190000Y-118463800D01*
X156970000Y-128350000D02*
X164650000Y-128350000D01*
X155620000Y-127000000D02*
X156970000Y-128350000D01*
%TO.N,Net-(J1-Pin_7)*%
X140893629Y-112975000D02*
X142500000Y-112975000D01*
X140000000Y-113000000D02*
X140868629Y-113000000D01*
X155230000Y-129230000D02*
X155500000Y-129500000D01*
X158000000Y-118500000D02*
X155500000Y-118500000D01*
X153080000Y-127000000D02*
X155230000Y-129150000D01*
X138000000Y-117800000D02*
X138000000Y-115000000D01*
X155230000Y-129150000D02*
X155230000Y-129230000D01*
X168000000Y-129500000D02*
X168500000Y-129000000D01*
X133540000Y-118463800D02*
X134810000Y-118463800D01*
X168500000Y-129000000D02*
X168500000Y-120000000D01*
X135963800Y-118463800D02*
X136000000Y-118500000D01*
X140868629Y-113000000D02*
X140893629Y-112975000D01*
X138000000Y-115000000D02*
X140000000Y-113000000D01*
X155500000Y-129500000D02*
X168000000Y-129500000D01*
X135463800Y-118463800D02*
X135963800Y-118463800D01*
X155500000Y-118500000D02*
X155000000Y-119000000D01*
X134810000Y-118463800D02*
X135463800Y-118463800D01*
%TO.N,Net-(J1-Pin_11)*%
X133540000Y-111540000D02*
X133540000Y-113536200D01*
X133000000Y-111000000D02*
X133540000Y-111540000D01*
X128500000Y-106500000D02*
X130000000Y-108000000D01*
X126500000Y-106500000D02*
X128500000Y-106500000D01*
X130000000Y-107000000D02*
X131000000Y-107000000D01*
X121218629Y-128350000D02*
X113500000Y-120631371D01*
X148000000Y-127000000D02*
X146650000Y-128350000D01*
X133540000Y-113536200D02*
X134810000Y-113536200D01*
X113500000Y-120631371D02*
X113500000Y-111000000D01*
X146650000Y-128350000D02*
X121218629Y-128350000D01*
X131000000Y-107000000D02*
X132000000Y-108000000D01*
X113500000Y-111000000D02*
X117500000Y-107000000D01*
%TO.N,Net-(U1-POS_1)*%
X145000000Y-113775000D02*
X141225000Y-113775000D01*
X129730000Y-117727200D02*
X129730000Y-118463800D01*
X131457200Y-116000000D02*
X129730000Y-117727200D01*
X132000000Y-116000000D02*
X131457200Y-116000000D01*
X141225000Y-113775000D02*
X141000000Y-114000000D01*
D32*
%TO.N,Net-(C1-Pad1)*%
X141950000Y-109175000D02*
X142000000Y-109125000D01*
X137000000Y-108000000D02*
X138825000Y-108000000D01*
X142000000Y-109125000D02*
X142000000Y-106000000D01*
X140000000Y-109175000D02*
X141950000Y-109175000D01*
X138825000Y-108000000D02*
X140000000Y-109175000D01*
X141950000Y-109175000D02*
X145000000Y-112225000D01*
D31*
%TO.N,Net-(U1-POS_2)*%
X137000000Y-112000000D02*
X135000000Y-110000000D01*
X135000000Y-110000000D02*
X127775000Y-110000000D01*
X136000000Y-121000000D02*
X137000000Y-120000000D01*
X132270000Y-118463800D02*
X132270000Y-120270000D01*
X133000000Y-121000000D02*
X136000000Y-121000000D01*
X132270000Y-120270000D02*
X133000000Y-121000000D01*
X137000000Y-120000000D02*
X137000000Y-112000000D01*
%TO.N,Net-(C2-Pad1)*%
X123000000Y-126000000D02*
X120000000Y-126000000D01*
D32*
X123825000Y-110000000D02*
X126225000Y-110000000D01*
X123000000Y-110825000D02*
X123825000Y-110000000D01*
X123000000Y-112730000D02*
X123000000Y-110825000D01*
D31*
%TO.N,Net-(U1-POS_3)*%
X135564000Y-115026800D02*
X133024000Y-115026800D01*
X153000000Y-113000000D02*
X152000000Y-112000000D01*
X162000000Y-113000000D02*
X153000000Y-113000000D01*
X132270000Y-114272800D02*
X132270000Y-113536200D01*
X136000000Y-112500000D02*
X136000000Y-114590800D01*
X133024000Y-115026800D02*
X132270000Y-114272800D01*
X136000000Y-114590800D02*
X135564000Y-115026800D01*
D32*
%TO.N,Net-(C3-Pad1)*%
X163650000Y-109000000D02*
X168000000Y-109000000D01*
X163550000Y-113000000D02*
X167000000Y-113000000D01*
X167000000Y-113000000D02*
X169000000Y-115000000D01*
X163650000Y-112900000D02*
X163550000Y-113000000D01*
X163650000Y-109000000D02*
X163650000Y-112900000D01*
%TO.N,Net-(D1-K)*%
X115025000Y-113025000D02*
X115000000Y-113000000D01*
X115025000Y-116725000D02*
X115025000Y-113025000D01*
%TO.N,Net-(D1-A)*%
X120050000Y-121500000D02*
X117260000Y-121500000D01*
X117260000Y-121500000D02*
X115025000Y-119265000D01*
D31*
%TO.N,VCC*%
X125760000Y-116760000D02*
X125760000Y-120000000D01*
X152047020Y-120952980D02*
X153394040Y-122300000D01*
X123000000Y-115270000D02*
X120270000Y-115270000D01*
X119000000Y-114000000D02*
X119000000Y-109000000D01*
X170129000Y-115467648D02*
X168096648Y-117500000D01*
X169000000Y-112460000D02*
X170129000Y-113589000D01*
X120137500Y-120000000D02*
X125760000Y-120000000D01*
X131000000Y-123680000D02*
X131000000Y-118463800D01*
X130220000Y-124460000D02*
X132680000Y-122000000D01*
X138000000Y-119395000D02*
X139395000Y-118000000D01*
X153394040Y-122300000D02*
X156000000Y-122300000D01*
X122500000Y-105500000D02*
X131960000Y-105500000D01*
X130220000Y-124460000D02*
X131000000Y-123680000D01*
X139395000Y-118000000D02*
X140137500Y-118000000D01*
X149500000Y-117500000D02*
X149000000Y-118000000D01*
X120270000Y-115270000D02*
X119000000Y-114000000D01*
X123000000Y-115270000D02*
X124270000Y-115270000D01*
X156000000Y-122300000D02*
X158160000Y-124460000D01*
X149000000Y-118000000D02*
X149094040Y-118000000D01*
X131960000Y-105500000D02*
X134460000Y-108000000D01*
X119000000Y-109000000D02*
X122500000Y-105500000D01*
X168096648Y-117500000D02*
X149500000Y-117500000D01*
X132680000Y-122000000D02*
X138000000Y-122000000D01*
X125760000Y-120000000D02*
X130220000Y-124460000D01*
X149094040Y-118000000D02*
X152047020Y-120952980D01*
X138000000Y-122000000D02*
X138000000Y-119395000D01*
X124270000Y-115270000D02*
X125760000Y-116760000D01*
X170129000Y-113589000D02*
X170129000Y-115467648D01*
D32*
%TO.N,Net-(D5-A)*%
X148285000Y-109825000D02*
X148460000Y-110000000D01*
D31*
%TO.N,Net-(J1-Pin_8)*%
X120050000Y-118500000D02*
X119500000Y-118500000D01*
X119500000Y-118500000D02*
X118000000Y-117000000D01*
D32*
%TO.N,Net-(J1-Pin_12)*%
X148000000Y-124460000D02*
X147150000Y-123610000D01*
X148500000Y-116500000D02*
X148912500Y-116500000D01*
X147150000Y-123610000D02*
X147150000Y-117850000D01*
X147150000Y-117850000D02*
X148500000Y-116500000D01*
D31*
%TO.N,Net-(J1-Pin_10)*%
X150540000Y-122040000D02*
X150540000Y-124460000D01*
X143950000Y-119500000D02*
X144264180Y-119500000D01*
X148000000Y-121000000D02*
X148500000Y-121500000D01*
X148500000Y-121500000D02*
X150000000Y-121500000D01*
X147000000Y-116764180D02*
X147000000Y-116500000D01*
X150000000Y-121500000D02*
X150540000Y-122040000D01*
X144264180Y-119500000D02*
X147000000Y-116764180D01*
%TD*%
%TA.AperFunction,Conductor*%
%TO.N,GND*%
G36*
X174442539Y-103020185D02*
G01*
X174488294Y-103072989D01*
X174499500Y-103124500D01*
X174499500Y-130375500D01*
X174479815Y-130442539D01*
X174427011Y-130488294D01*
X174375500Y-130499500D01*
X168302190Y-130499500D01*
X168235151Y-130479815D01*
X168189396Y-130427011D01*
X168179452Y-130357853D01*
X168208477Y-130294297D01*
X168254738Y-130260939D01*
X168379172Y-130209397D01*
X168379172Y-130209396D01*
X168379179Y-130209394D01*
X168510289Y-130121789D01*
X169121789Y-129510289D01*
X169209394Y-129379179D01*
X169269738Y-129233497D01*
X169300500Y-129078842D01*
X169300500Y-128921157D01*
X169300500Y-120051914D01*
X169301280Y-120038029D01*
X169301769Y-120033694D01*
X169305565Y-120000000D01*
X169304922Y-119994297D01*
X169301280Y-119961969D01*
X169300500Y-119948085D01*
X169300500Y-119921157D01*
X169292711Y-119882003D01*
X169291110Y-119871714D01*
X169285368Y-119820745D01*
X169277023Y-119796898D01*
X169272449Y-119780139D01*
X169269737Y-119766503D01*
X169269734Y-119766496D01*
X169261253Y-119746021D01*
X169249484Y-119717607D01*
X169247028Y-119711175D01*
X169225789Y-119650478D01*
X169219289Y-119640134D01*
X169209719Y-119621606D01*
X169209394Y-119620821D01*
X169172790Y-119566040D01*
X169170905Y-119563131D01*
X169162654Y-119549999D01*
X169129816Y-119497738D01*
X169002262Y-119370184D01*
X169002260Y-119370182D01*
X169002257Y-119370180D01*
X168936900Y-119329114D01*
X168933982Y-119327223D01*
X168879179Y-119290605D01*
X168879173Y-119290603D01*
X168878365Y-119290268D01*
X168859865Y-119280709D01*
X168849524Y-119274212D01*
X168849523Y-119274211D01*
X168849522Y-119274211D01*
X168788867Y-119252986D01*
X168782377Y-119250509D01*
X168777594Y-119248528D01*
X168772330Y-119246347D01*
X168733496Y-119230262D01*
X168719860Y-119227550D01*
X168703104Y-119222976D01*
X168679260Y-119214633D01*
X168679256Y-119214632D01*
X168679255Y-119214632D01*
X168658575Y-119212301D01*
X168628303Y-119208890D01*
X168618003Y-119207288D01*
X168578844Y-119199500D01*
X168578842Y-119199500D01*
X168551915Y-119199500D01*
X168538031Y-119198720D01*
X168500002Y-119194435D01*
X168499998Y-119194435D01*
X168461969Y-119198720D01*
X168448085Y-119199500D01*
X168421152Y-119199500D01*
X168381994Y-119207288D01*
X168371696Y-119208890D01*
X168320742Y-119214632D01*
X168320735Y-119214634D01*
X168296898Y-119222975D01*
X168280140Y-119227550D01*
X168266502Y-119230263D01*
X168266496Y-119230264D01*
X168217631Y-119250504D01*
X168211140Y-119252982D01*
X168150477Y-119274210D01*
X168150474Y-119274212D01*
X168140127Y-119280713D01*
X168121639Y-119290266D01*
X168120832Y-119290600D01*
X168120824Y-119290604D01*
X168120821Y-119290605D01*
X168120821Y-119290606D01*
X168067372Y-119326319D01*
X168066047Y-119327204D01*
X168063132Y-119329092D01*
X167997742Y-119370180D01*
X167997735Y-119370186D01*
X167870186Y-119497735D01*
X167870180Y-119497742D01*
X167829092Y-119563132D01*
X167827209Y-119566038D01*
X167793960Y-119615801D01*
X167790604Y-119620824D01*
X167790600Y-119620832D01*
X167790266Y-119621639D01*
X167780713Y-119640127D01*
X167774212Y-119650474D01*
X167774210Y-119650477D01*
X167752982Y-119711140D01*
X167750504Y-119717631D01*
X167730264Y-119766496D01*
X167730263Y-119766502D01*
X167727550Y-119780140D01*
X167722975Y-119796898D01*
X167714634Y-119820735D01*
X167714632Y-119820742D01*
X167708890Y-119871696D01*
X167707288Y-119881994D01*
X167699500Y-119921152D01*
X167699500Y-119948085D01*
X167698720Y-119961969D01*
X167695078Y-119994297D01*
X167694435Y-120000000D01*
X167698231Y-120033694D01*
X167698720Y-120038029D01*
X167699500Y-120051914D01*
X167699500Y-124480006D01*
X167679815Y-124547045D01*
X167627011Y-124592800D01*
X167557853Y-124602744D01*
X167535237Y-124597287D01*
X167369616Y-124540429D01*
X167124335Y-124499500D01*
X166875665Y-124499500D01*
X166630383Y-124540429D01*
X166395197Y-124621169D01*
X166395188Y-124621172D01*
X166176493Y-124739524D01*
X165980257Y-124892261D01*
X165811833Y-125075217D01*
X165675826Y-125283393D01*
X165575936Y-125511118D01*
X165514892Y-125752175D01*
X165514890Y-125752187D01*
X165494357Y-125999994D01*
X165494357Y-126000005D01*
X165514890Y-126247812D01*
X165514893Y-126247826D01*
X165518855Y-126263474D01*
X165516227Y-126333294D01*
X165486329Y-126381591D01*
X164354741Y-127513181D01*
X164293418Y-127546666D01*
X164267060Y-127549500D01*
X162174500Y-127549500D01*
X162107461Y-127529815D01*
X162061706Y-127477011D01*
X162050500Y-127425500D01*
X162050499Y-126102129D01*
X162050498Y-126102123D01*
X162044091Y-126042516D01*
X161993797Y-125907671D01*
X161993793Y-125907664D01*
X161907547Y-125792455D01*
X161907544Y-125792452D01*
X161792335Y-125706206D01*
X161792328Y-125706202D01*
X161660917Y-125657189D01*
X161604983Y-125615318D01*
X161580566Y-125549853D01*
X161595418Y-125481580D01*
X161616563Y-125453332D01*
X161738495Y-125331401D01*
X161874035Y-125137830D01*
X161973903Y-124923663D01*
X162035063Y-124695408D01*
X162055659Y-124460000D01*
X162035063Y-124224592D01*
X161973903Y-123996337D01*
X161874035Y-123782171D01*
X161868425Y-123774158D01*
X161738494Y-123588597D01*
X161571402Y-123421506D01*
X161571395Y-123421501D01*
X161565445Y-123417335D01*
X161500499Y-123371859D01*
X161377834Y-123285967D01*
X161377830Y-123285965D01*
X161370361Y-123282482D01*
X161163663Y-123186097D01*
X161163659Y-123186096D01*
X161163655Y-123186094D01*
X160935413Y-123124938D01*
X160935403Y-123124936D01*
X160700001Y-123104341D01*
X160699999Y-123104341D01*
X160464596Y-123124936D01*
X160464586Y-123124938D01*
X160236344Y-123186094D01*
X160236335Y-123186098D01*
X160022171Y-123285964D01*
X160022169Y-123285965D01*
X159828597Y-123421505D01*
X159661505Y-123588597D01*
X159531575Y-123774158D01*
X159476998Y-123817783D01*
X159407500Y-123824977D01*
X159345145Y-123793454D01*
X159328425Y-123774158D01*
X159198494Y-123588597D01*
X159031402Y-123421506D01*
X159031395Y-123421501D01*
X159025445Y-123417335D01*
X158960499Y-123371859D01*
X158837834Y-123285967D01*
X158837830Y-123285965D01*
X158830361Y-123282482D01*
X158623663Y-123186097D01*
X158623659Y-123186096D01*
X158623655Y-123186094D01*
X158395413Y-123124938D01*
X158395403Y-123124936D01*
X158160001Y-123104341D01*
X158159998Y-123104341D01*
X158012006Y-123117288D01*
X157943506Y-123103521D01*
X157913518Y-123081441D01*
X156510292Y-121678213D01*
X156510288Y-121678210D01*
X156379185Y-121590609D01*
X156379172Y-121590602D01*
X156233501Y-121530264D01*
X156233489Y-121530261D01*
X156078845Y-121499500D01*
X156078842Y-121499500D01*
X154348072Y-121499500D01*
X154281033Y-121479815D01*
X154235278Y-121427011D01*
X154225334Y-121357853D01*
X154231030Y-121334546D01*
X154285367Y-121179257D01*
X154285368Y-121179255D01*
X154290617Y-121132669D01*
X154305565Y-121000003D01*
X154305565Y-120999996D01*
X154285369Y-120820750D01*
X154285368Y-120820745D01*
X154274822Y-120790606D01*
X154225789Y-120650478D01*
X154131016Y-120499648D01*
X154112017Y-120432414D01*
X154132385Y-120365578D01*
X154185652Y-120320364D01*
X154254909Y-120311126D01*
X154295026Y-120324622D01*
X154395190Y-120378828D01*
X154630386Y-120459571D01*
X154875665Y-120500500D01*
X155124335Y-120500500D01*
X155369614Y-120459571D01*
X155604810Y-120378828D01*
X155823509Y-120260474D01*
X156019744Y-120107738D01*
X156188164Y-119924785D01*
X156324173Y-119716607D01*
X156424063Y-119488881D01*
X156448075Y-119394059D01*
X156483615Y-119333904D01*
X156546035Y-119302512D01*
X156568281Y-119300500D01*
X157948085Y-119300500D01*
X157961969Y-119301280D01*
X157999998Y-119305565D01*
X158000000Y-119305565D01*
X158000002Y-119305565D01*
X158038031Y-119301280D01*
X158051915Y-119300500D01*
X158078841Y-119300500D01*
X158078842Y-119300500D01*
X158118017Y-119292707D01*
X158128283Y-119291110D01*
X158179255Y-119285368D01*
X158203100Y-119277023D01*
X158219862Y-119272448D01*
X158233497Y-119269737D01*
X158281143Y-119250000D01*
X159275001Y-119250000D01*
X159275001Y-119331582D01*
X159281408Y-119402102D01*
X159281409Y-119402107D01*
X159331981Y-119564396D01*
X159419927Y-119709877D01*
X159540122Y-119830072D01*
X159685604Y-119918019D01*
X159685603Y-119918019D01*
X159847894Y-119968590D01*
X159847893Y-119968590D01*
X159918408Y-119974998D01*
X159918426Y-119974999D01*
X159924999Y-119974998D01*
X159925000Y-119974998D01*
X159925000Y-119250000D01*
X159275001Y-119250000D01*
X158281143Y-119250000D01*
X158282389Y-119249484D01*
X158288837Y-119247023D01*
X158349522Y-119225789D01*
X158359868Y-119219287D01*
X158378390Y-119209720D01*
X158379179Y-119209394D01*
X158433987Y-119172771D01*
X158436825Y-119170931D01*
X158502262Y-119129816D01*
X158629816Y-119002262D01*
X158670931Y-118936825D01*
X158672777Y-118933979D01*
X158709389Y-118879186D01*
X158709394Y-118879179D01*
X158709720Y-118878390D01*
X158719287Y-118859868D01*
X158725789Y-118849522D01*
X158747023Y-118788837D01*
X158749484Y-118782389D01*
X158769737Y-118733497D01*
X158772448Y-118719862D01*
X158777023Y-118703100D01*
X158785368Y-118679255D01*
X158791110Y-118628283D01*
X158792707Y-118618017D01*
X158800500Y-118578842D01*
X158800500Y-118551914D01*
X158801280Y-118538029D01*
X158805565Y-118500001D01*
X158805565Y-118499998D01*
X158801280Y-118461969D01*
X158800500Y-118448085D01*
X158800500Y-118424500D01*
X158820185Y-118357461D01*
X158872989Y-118311706D01*
X158924500Y-118300500D01*
X159205560Y-118300500D01*
X159272599Y-118320185D01*
X159318354Y-118372989D01*
X159328298Y-118442147D01*
X159323946Y-118461390D01*
X159281408Y-118597898D01*
X159275000Y-118668427D01*
X159275000Y-118750000D01*
X160301000Y-118750000D01*
X160368039Y-118769685D01*
X160413794Y-118822489D01*
X160425000Y-118874000D01*
X160425000Y-119974999D01*
X160431581Y-119974999D01*
X160502102Y-119968591D01*
X160502107Y-119968590D01*
X160664396Y-119918018D01*
X160809877Y-119830072D01*
X160809878Y-119830071D01*
X160911963Y-119727985D01*
X160973286Y-119694499D01*
X161042977Y-119699483D01*
X161087326Y-119727984D01*
X161189811Y-119830469D01*
X161189813Y-119830470D01*
X161189815Y-119830472D01*
X161335394Y-119918478D01*
X161497804Y-119969086D01*
X161568384Y-119975500D01*
X161568387Y-119975500D01*
X162081613Y-119975500D01*
X162081616Y-119975500D01*
X162152196Y-119969086D01*
X162314606Y-119918478D01*
X162460185Y-119830472D01*
X162495529Y-119795128D01*
X162556851Y-119761642D01*
X162626543Y-119766626D01*
X162670892Y-119795127D01*
X164563181Y-121687416D01*
X164596666Y-121748739D01*
X164599500Y-121775097D01*
X164599500Y-123222870D01*
X164599501Y-123222876D01*
X164605908Y-123282483D01*
X164656202Y-123417328D01*
X164656206Y-123417335D01*
X164742452Y-123532544D01*
X164742455Y-123532547D01*
X164857664Y-123618793D01*
X164857671Y-123618797D01*
X164992517Y-123669091D01*
X164992516Y-123669091D01*
X164999444Y-123669835D01*
X165052127Y-123675500D01*
X166947872Y-123675499D01*
X167007483Y-123669091D01*
X167142331Y-123618796D01*
X167257546Y-123532546D01*
X167343796Y-123417331D01*
X167394091Y-123282483D01*
X167400500Y-123222873D01*
X167400499Y-121327128D01*
X167394091Y-121267517D01*
X167381402Y-121233497D01*
X167343797Y-121132671D01*
X167343793Y-121132664D01*
X167257547Y-121017455D01*
X167257544Y-121017452D01*
X167142335Y-120931206D01*
X167142328Y-120931202D01*
X167062094Y-120901277D01*
X167006160Y-120859406D01*
X166981743Y-120793941D01*
X166996595Y-120725668D01*
X167014190Y-120701121D01*
X167108979Y-120598153D01*
X167235924Y-120403849D01*
X167329157Y-120191300D01*
X167386134Y-119966305D01*
X167386322Y-119964038D01*
X167405300Y-119735006D01*
X167405300Y-119734993D01*
X167386135Y-119503702D01*
X167386133Y-119503691D01*
X167329157Y-119278699D01*
X167235924Y-119066151D01*
X167108983Y-118871852D01*
X167108980Y-118871849D01*
X167108979Y-118871847D01*
X166951784Y-118701087D01*
X166951779Y-118701083D01*
X166951777Y-118701081D01*
X166768634Y-118558535D01*
X166768628Y-118558531D01*
X166743538Y-118544953D01*
X166722475Y-118533554D01*
X166672886Y-118484335D01*
X166657778Y-118416118D01*
X166681949Y-118350563D01*
X166737724Y-118308482D01*
X166781494Y-118300500D01*
X168175492Y-118300500D01*
X168175493Y-118300499D01*
X168330145Y-118269737D01*
X168475827Y-118209394D01*
X168606937Y-118121789D01*
X170750789Y-115977937D01*
X170838394Y-115846827D01*
X170898738Y-115701145D01*
X170929500Y-115546490D01*
X170929500Y-115388805D01*
X170929500Y-113510158D01*
X170929500Y-113510155D01*
X170929499Y-113510153D01*
X170927251Y-113498853D01*
X170898737Y-113355503D01*
X170863889Y-113271371D01*
X170838397Y-113209827D01*
X170838390Y-113209814D01*
X170750790Y-113078712D01*
X170698436Y-113026358D01*
X170639289Y-112967211D01*
X170165818Y-112493740D01*
X170132333Y-112432417D01*
X170129499Y-112406059D01*
X170129499Y-111783129D01*
X170129498Y-111783123D01*
X170129497Y-111783116D01*
X170124299Y-111734757D01*
X170123091Y-111723516D01*
X170072797Y-111588671D01*
X170072793Y-111588664D01*
X169986547Y-111473455D01*
X169986544Y-111473452D01*
X169871335Y-111387206D01*
X169871328Y-111387202D01*
X169736482Y-111336908D01*
X169736483Y-111336908D01*
X169676883Y-111330501D01*
X169676881Y-111330500D01*
X169676873Y-111330500D01*
X169676864Y-111330500D01*
X168323129Y-111330500D01*
X168323123Y-111330501D01*
X168263516Y-111336908D01*
X168128671Y-111387202D01*
X168128664Y-111387206D01*
X168013455Y-111473452D01*
X168013452Y-111473455D01*
X167927206Y-111588664D01*
X167927202Y-111588671D01*
X167876908Y-111723517D01*
X167871112Y-111777431D01*
X167870501Y-111783123D01*
X167870500Y-111783135D01*
X167870500Y-112580480D01*
X167850815Y-112647519D01*
X167798011Y-112693274D01*
X167728853Y-112703218D01*
X167665297Y-112674193D01*
X167658819Y-112668161D01*
X167446545Y-112455887D01*
X167331807Y-112379222D01*
X167204332Y-112326421D01*
X167204322Y-112326418D01*
X167068996Y-112299500D01*
X167068994Y-112299500D01*
X167068993Y-112299500D01*
X164474500Y-112299500D01*
X164407461Y-112279815D01*
X164361706Y-112227011D01*
X164350500Y-112175500D01*
X164350500Y-109824500D01*
X164370185Y-109757461D01*
X164422989Y-109711706D01*
X164474500Y-109700500D01*
X166598198Y-109700500D01*
X166665237Y-109720185D01*
X166702007Y-109756679D01*
X166811833Y-109924782D01*
X166811836Y-109924785D01*
X166980256Y-110107738D01*
X167176491Y-110260474D01*
X167395190Y-110378828D01*
X167630386Y-110459571D01*
X167875665Y-110500500D01*
X168124335Y-110500500D01*
X168369614Y-110459571D01*
X168604810Y-110378828D01*
X168823509Y-110260474D01*
X169019744Y-110107738D01*
X169188164Y-109924785D01*
X169324173Y-109716607D01*
X169424063Y-109488881D01*
X169485108Y-109247821D01*
X169487431Y-109219792D01*
X169505643Y-109000005D01*
X169505643Y-108999994D01*
X169485109Y-108752187D01*
X169485107Y-108752175D01*
X169424063Y-108511118D01*
X169324173Y-108283393D01*
X169188166Y-108075217D01*
X169141937Y-108024999D01*
X169019744Y-107892262D01*
X168823509Y-107739526D01*
X168823507Y-107739525D01*
X168823506Y-107739524D01*
X168604811Y-107621172D01*
X168604802Y-107621169D01*
X168369616Y-107540429D01*
X168124335Y-107499500D01*
X167875665Y-107499500D01*
X167630383Y-107540429D01*
X167395197Y-107621169D01*
X167395188Y-107621172D01*
X167176493Y-107739524D01*
X166980257Y-107892261D01*
X166811833Y-108075217D01*
X166702007Y-108243321D01*
X166648861Y-108288678D01*
X166598198Y-108299500D01*
X164466520Y-108299500D01*
X164399481Y-108279815D01*
X164378839Y-108263181D01*
X164285188Y-108169530D01*
X164139606Y-108081522D01*
X164051090Y-108053940D01*
X163977196Y-108030914D01*
X163977194Y-108030913D01*
X163977192Y-108030913D01*
X163927778Y-108026423D01*
X163906616Y-108024500D01*
X163393384Y-108024500D01*
X163374145Y-108026248D01*
X163322807Y-108030913D01*
X163160393Y-108081522D01*
X163014811Y-108169530D01*
X163014810Y-108169531D01*
X162912327Y-108272015D01*
X162851004Y-108305500D01*
X162781312Y-108300516D01*
X162736965Y-108272015D01*
X162634877Y-108169927D01*
X162489395Y-108081980D01*
X162489396Y-108081980D01*
X162327105Y-108031409D01*
X162327106Y-108031409D01*
X162256572Y-108025000D01*
X162250000Y-108025000D01*
X162250000Y-109974999D01*
X162256581Y-109974999D01*
X162327102Y-109968591D01*
X162327107Y-109968590D01*
X162489396Y-109918018D01*
X162634877Y-109830072D01*
X162634878Y-109830071D01*
X162736963Y-109727985D01*
X162798286Y-109694499D01*
X162867977Y-109699483D01*
X162912275Y-109727932D01*
X162913131Y-109728788D01*
X162946651Y-109790090D01*
X162949500Y-109816519D01*
X162949500Y-112059995D01*
X162929815Y-112127034D01*
X162890600Y-112165532D01*
X162871952Y-112177034D01*
X162862677Y-112186309D01*
X162801353Y-112219792D01*
X162731661Y-112214805D01*
X162687318Y-112186306D01*
X162678044Y-112177032D01*
X162678040Y-112177029D01*
X162533705Y-112088001D01*
X162533699Y-112087998D01*
X162533697Y-112087997D01*
X162449192Y-112059995D01*
X162372709Y-112034651D01*
X162273346Y-112024500D01*
X161726662Y-112024500D01*
X161726644Y-112024501D01*
X161627292Y-112034650D01*
X161627289Y-112034651D01*
X161466305Y-112087996D01*
X161466294Y-112088001D01*
X161315809Y-112180823D01*
X161314131Y-112178103D01*
X161262534Y-112198909D01*
X161250440Y-112199500D01*
X153382940Y-112199500D01*
X153315901Y-112179815D01*
X153295259Y-112163181D01*
X152502260Y-111370182D01*
X152502257Y-111370180D01*
X152444072Y-111333620D01*
X152436894Y-111329110D01*
X152433982Y-111327223D01*
X152379179Y-111290605D01*
X152379173Y-111290603D01*
X152378365Y-111290268D01*
X152359865Y-111280709D01*
X152349524Y-111274212D01*
X152349523Y-111274211D01*
X152349522Y-111274211D01*
X152288867Y-111252986D01*
X152282377Y-111250509D01*
X152252613Y-111238181D01*
X152233497Y-111230263D01*
X152233496Y-111230262D01*
X152227869Y-111227932D01*
X152228561Y-111226260D01*
X152177240Y-111192623D01*
X152148787Y-111128809D01*
X152155497Y-111068931D01*
X152169090Y-111032485D01*
X152169091Y-111032483D01*
X152169389Y-111029707D01*
X152175500Y-110972873D01*
X152175499Y-109250000D01*
X161100001Y-109250000D01*
X161100001Y-109331582D01*
X161106408Y-109402102D01*
X161106409Y-109402107D01*
X161156981Y-109564396D01*
X161244927Y-109709877D01*
X161365122Y-109830072D01*
X161510604Y-109918019D01*
X161510603Y-109918019D01*
X161672894Y-109968590D01*
X161672893Y-109968590D01*
X161743408Y-109974998D01*
X161743426Y-109974999D01*
X161749999Y-109974998D01*
X161750000Y-109974998D01*
X161750000Y-109250000D01*
X161100001Y-109250000D01*
X152175499Y-109250000D01*
X152175499Y-109077128D01*
X152169091Y-109017517D01*
X152168308Y-109015419D01*
X152118797Y-108882671D01*
X152118793Y-108882664D01*
X152032547Y-108767455D01*
X152032544Y-108767452D01*
X152009231Y-108750000D01*
X161100000Y-108750000D01*
X161750000Y-108750000D01*
X161750000Y-108025000D01*
X161749999Y-108024999D01*
X161743436Y-108025000D01*
X161743417Y-108025001D01*
X161672897Y-108031408D01*
X161672892Y-108031409D01*
X161510603Y-108081981D01*
X161365122Y-108169927D01*
X161244927Y-108290122D01*
X161156980Y-108435604D01*
X161106409Y-108597893D01*
X161100000Y-108668427D01*
X161100000Y-108750000D01*
X152009231Y-108750000D01*
X151917335Y-108681206D01*
X151917328Y-108681202D01*
X151782482Y-108630908D01*
X151782483Y-108630908D01*
X151722883Y-108624501D01*
X151722881Y-108624500D01*
X151722873Y-108624500D01*
X151722865Y-108624500D01*
X150275097Y-108624500D01*
X150208058Y-108604815D01*
X150187416Y-108588181D01*
X150062590Y-108463355D01*
X150062588Y-108463352D01*
X149943717Y-108344481D01*
X149943709Y-108344475D01*
X149849034Y-108289815D01*
X149849032Y-108289814D01*
X149806790Y-108265425D01*
X149806789Y-108265424D01*
X149794263Y-108262067D01*
X149654057Y-108224499D01*
X149495943Y-108224499D01*
X149488347Y-108224499D01*
X149488331Y-108224500D01*
X146086670Y-108224500D01*
X146086654Y-108224499D01*
X146079058Y-108224499D01*
X145920943Y-108224499D01*
X145850700Y-108243321D01*
X145768214Y-108265423D01*
X145768209Y-108265426D01*
X145631290Y-108344475D01*
X145631282Y-108344481D01*
X145587083Y-108388681D01*
X145525760Y-108422166D01*
X145499402Y-108425000D01*
X144025001Y-108425000D01*
X144025001Y-108431582D01*
X144031408Y-108502102D01*
X144031409Y-108502107D01*
X144081981Y-108664396D01*
X144169927Y-108809877D01*
X144272015Y-108911965D01*
X144305500Y-108973288D01*
X144300516Y-109042980D01*
X144272015Y-109087327D01*
X144169531Y-109189810D01*
X144169530Y-109189811D01*
X144081522Y-109335393D01*
X144030913Y-109497807D01*
X144025782Y-109554275D01*
X144024613Y-109567147D01*
X144024500Y-109568386D01*
X144024500Y-109959481D01*
X144004815Y-110026520D01*
X143952011Y-110072275D01*
X143882853Y-110082219D01*
X143819297Y-110053194D01*
X143812819Y-110047162D01*
X142736819Y-108971162D01*
X142703334Y-108909839D01*
X142700500Y-108883481D01*
X142700500Y-107925000D01*
X144025000Y-107925000D01*
X144750000Y-107925000D01*
X144750000Y-107275000D01*
X145250000Y-107275000D01*
X145250000Y-107925000D01*
X145974999Y-107925000D01*
X145974999Y-107918417D01*
X145968591Y-107847897D01*
X145968590Y-107847892D01*
X145918018Y-107685603D01*
X145830072Y-107540122D01*
X145709877Y-107419927D01*
X145564395Y-107331980D01*
X145564396Y-107331980D01*
X145402105Y-107281409D01*
X145402106Y-107281409D01*
X145331572Y-107275000D01*
X145250000Y-107275000D01*
X144750000Y-107275000D01*
X144749999Y-107274999D01*
X144668417Y-107275000D01*
X144597897Y-107281408D01*
X144597892Y-107281409D01*
X144435603Y-107331981D01*
X144290122Y-107419927D01*
X144169927Y-107540122D01*
X144081980Y-107685604D01*
X144031409Y-107847893D01*
X144025000Y-107918427D01*
X144025000Y-107925000D01*
X142700500Y-107925000D01*
X142700500Y-107400931D01*
X142720185Y-107333892D01*
X142765483Y-107291876D01*
X142784826Y-107281408D01*
X142823509Y-107260474D01*
X143019744Y-107107738D01*
X143188164Y-106924785D01*
X143324173Y-106716607D01*
X143424063Y-106488881D01*
X143485108Y-106247821D01*
X143486788Y-106227550D01*
X143505643Y-106000005D01*
X143505643Y-105999994D01*
X143485109Y-105752187D01*
X143485107Y-105752175D01*
X143424063Y-105511118D01*
X143324173Y-105283393D01*
X143188166Y-105075217D01*
X143166557Y-105051744D01*
X143019744Y-104892262D01*
X142823509Y-104739526D01*
X142823507Y-104739525D01*
X142823506Y-104739524D01*
X142604811Y-104621172D01*
X142604802Y-104621169D01*
X142369616Y-104540429D01*
X142124335Y-104499500D01*
X141875665Y-104499500D01*
X141630383Y-104540429D01*
X141395197Y-104621169D01*
X141395188Y-104621172D01*
X141176493Y-104739524D01*
X140980257Y-104892261D01*
X140811833Y-105075217D01*
X140675826Y-105283393D01*
X140575936Y-105511118D01*
X140514892Y-105752175D01*
X140514890Y-105752187D01*
X140494357Y-105999994D01*
X140494357Y-106000005D01*
X140514890Y-106247812D01*
X140514892Y-106247824D01*
X140575936Y-106488881D01*
X140675826Y-106716606D01*
X140811833Y-106924782D01*
X140833285Y-106948085D01*
X140980256Y-107107738D01*
X141063844Y-107172797D01*
X141144793Y-107235803D01*
X141176491Y-107260474D01*
X141203331Y-107274999D01*
X141234517Y-107291876D01*
X141284108Y-107341095D01*
X141299500Y-107400931D01*
X141299500Y-108350500D01*
X141279815Y-108417539D01*
X141227011Y-108463294D01*
X141175500Y-108474500D01*
X140816520Y-108474500D01*
X140749481Y-108454815D01*
X140728839Y-108438181D01*
X140710188Y-108419530D01*
X140694041Y-108409769D01*
X140564606Y-108331522D01*
X140402196Y-108280914D01*
X140402194Y-108280913D01*
X140402192Y-108280913D01*
X140352778Y-108276423D01*
X140331616Y-108274500D01*
X140331613Y-108274500D01*
X140141519Y-108274500D01*
X140074480Y-108254815D01*
X140053838Y-108238181D01*
X139271546Y-107455888D01*
X139271545Y-107455887D01*
X139156807Y-107379222D01*
X139029332Y-107326421D01*
X139029322Y-107326418D01*
X138893996Y-107299500D01*
X138893994Y-107299500D01*
X138893993Y-107299500D01*
X137948134Y-107299500D01*
X137881095Y-107279815D01*
X137849180Y-107250226D01*
X137847621Y-107248161D01*
X137838287Y-107235801D01*
X137838283Y-107235797D01*
X137838281Y-107235795D01*
X137683593Y-107094779D01*
X137683592Y-107094778D01*
X137505618Y-106984581D01*
X137505616Y-106984580D01*
X137505615Y-106984579D01*
X137351258Y-106924782D01*
X137310427Y-106908964D01*
X137104664Y-106870500D01*
X136895336Y-106870500D01*
X136689573Y-106908964D01*
X136689570Y-106908964D01*
X136689570Y-106908965D01*
X136494384Y-106984579D01*
X136494383Y-106984580D01*
X136316406Y-107094779D01*
X136161714Y-107235798D01*
X136035567Y-107402844D01*
X136035562Y-107402852D01*
X135942259Y-107590230D01*
X135884974Y-107791570D01*
X135865661Y-107999999D01*
X135865661Y-108000000D01*
X135884974Y-108208429D01*
X135884974Y-108208431D01*
X135884975Y-108208434D01*
X135908130Y-108289815D01*
X135942259Y-108409769D01*
X136035562Y-108597147D01*
X136035567Y-108597155D01*
X136161714Y-108764201D01*
X136291671Y-108882671D01*
X136316408Y-108905222D01*
X136494382Y-109015419D01*
X136494383Y-109015419D01*
X136494384Y-109015420D01*
X136519116Y-109025001D01*
X136689573Y-109091036D01*
X136895336Y-109129500D01*
X136895338Y-109129500D01*
X137104662Y-109129500D01*
X137104664Y-109129500D01*
X137310427Y-109091036D01*
X137505618Y-109015419D01*
X137683592Y-108905222D01*
X137838287Y-108764199D01*
X137849180Y-108749773D01*
X137905288Y-108708137D01*
X137948134Y-108700500D01*
X138483481Y-108700500D01*
X138550520Y-108720185D01*
X138571162Y-108736819D01*
X138988181Y-109153838D01*
X139021666Y-109215161D01*
X139024500Y-109241519D01*
X139024500Y-109431616D01*
X139025733Y-109445185D01*
X139030913Y-109502192D01*
X139030913Y-109502194D01*
X139030914Y-109502196D01*
X139081522Y-109664606D01*
X139159559Y-109793695D01*
X139169530Y-109810188D01*
X139272015Y-109912673D01*
X139305500Y-109973996D01*
X139300516Y-110043688D01*
X139272015Y-110088035D01*
X139169928Y-110190121D01*
X139169927Y-110190122D01*
X139081980Y-110335604D01*
X139031409Y-110497893D01*
X139025000Y-110568427D01*
X139025000Y-110575000D01*
X140974999Y-110575000D01*
X140974999Y-110568417D01*
X140968591Y-110497897D01*
X140968590Y-110497892D01*
X140918018Y-110335603D01*
X140830072Y-110190122D01*
X140727984Y-110088034D01*
X140694499Y-110026711D01*
X140699483Y-109957019D01*
X140728031Y-109912625D01*
X140728891Y-109911765D01*
X140790232Y-109878318D01*
X140816519Y-109875500D01*
X141608481Y-109875500D01*
X141675520Y-109895185D01*
X141696162Y-109911819D01*
X143988181Y-112203837D01*
X144021666Y-112265160D01*
X144024500Y-112291517D01*
X144024500Y-112498336D01*
X144024501Y-112498355D01*
X144034650Y-112597707D01*
X144034651Y-112597710D01*
X144087996Y-112758694D01*
X144087998Y-112758699D01*
X144104470Y-112785403D01*
X144122910Y-112852795D01*
X144101988Y-112919459D01*
X144048346Y-112964229D01*
X143998931Y-112974500D01*
X143417847Y-112974500D01*
X143350808Y-112954815D01*
X143305053Y-112902011D01*
X143296230Y-112874693D01*
X143292711Y-112857003D01*
X143291110Y-112846714D01*
X143285368Y-112795745D01*
X143277023Y-112771898D01*
X143272449Y-112755139D01*
X143269737Y-112741503D01*
X143249484Y-112692607D01*
X143247028Y-112686175D01*
X143225789Y-112625478D01*
X143219289Y-112615134D01*
X143209719Y-112596606D01*
X143209394Y-112595821D01*
X143172790Y-112541040D01*
X143170905Y-112538131D01*
X143145900Y-112498336D01*
X143129816Y-112472738D01*
X143002262Y-112345184D01*
X143002260Y-112345182D01*
X143002257Y-112345180D01*
X142936900Y-112304114D01*
X142933982Y-112302223D01*
X142879179Y-112265605D01*
X142879173Y-112265603D01*
X142878365Y-112265268D01*
X142859865Y-112255709D01*
X142849524Y-112249212D01*
X142849523Y-112249211D01*
X142849522Y-112249211D01*
X142788867Y-112227986D01*
X142782377Y-112225509D01*
X142733496Y-112205262D01*
X142719860Y-112202550D01*
X142703104Y-112197976D01*
X142679260Y-112189633D01*
X142679256Y-112189632D01*
X142679255Y-112189632D01*
X142658575Y-112187301D01*
X142628303Y-112183890D01*
X142618003Y-112182288D01*
X142578844Y-112174500D01*
X142578842Y-112174500D01*
X142551915Y-112174500D01*
X142538031Y-112173720D01*
X142500002Y-112169435D01*
X142499998Y-112169435D01*
X142461969Y-112173720D01*
X142448085Y-112174500D01*
X140814784Y-112174500D01*
X140738713Y-112189632D01*
X140701082Y-112197117D01*
X140676892Y-112199500D01*
X139921155Y-112199500D01*
X139766510Y-112230261D01*
X139766498Y-112230264D01*
X139620827Y-112290602D01*
X139620814Y-112290609D01*
X139496360Y-112373767D01*
X139496356Y-112373771D01*
X139489711Y-112378211D01*
X139489709Y-112378212D01*
X139489706Y-112378215D01*
X139489705Y-112378215D01*
X138012181Y-113855740D01*
X137950858Y-113889225D01*
X137881166Y-113884241D01*
X137825233Y-113842369D01*
X137800816Y-113776905D01*
X137800500Y-113768059D01*
X137800500Y-111921155D01*
X137800499Y-111921153D01*
X137790361Y-111870186D01*
X137769737Y-111766503D01*
X137751932Y-111723517D01*
X137709397Y-111620827D01*
X137709390Y-111620814D01*
X137621790Y-111489712D01*
X137566060Y-111433982D01*
X137510289Y-111378211D01*
X137207078Y-111075000D01*
X139025001Y-111075000D01*
X139025001Y-111081582D01*
X139031408Y-111152102D01*
X139031409Y-111152107D01*
X139081981Y-111314396D01*
X139169927Y-111459877D01*
X139290122Y-111580072D01*
X139435604Y-111668019D01*
X139435603Y-111668019D01*
X139597894Y-111718590D01*
X139597892Y-111718590D01*
X139668418Y-111724999D01*
X139749999Y-111724998D01*
X139750000Y-111724998D01*
X139750000Y-111075000D01*
X140250000Y-111075000D01*
X140250000Y-111724999D01*
X140331581Y-111724999D01*
X140402102Y-111718591D01*
X140402107Y-111718590D01*
X140564396Y-111668018D01*
X140709877Y-111580072D01*
X140830072Y-111459877D01*
X140918019Y-111314395D01*
X140968590Y-111152106D01*
X140975000Y-111081572D01*
X140975000Y-111075000D01*
X140250000Y-111075000D01*
X139750000Y-111075000D01*
X139025001Y-111075000D01*
X137207078Y-111075000D01*
X136510535Y-110378457D01*
X135510292Y-109378213D01*
X135510288Y-109378210D01*
X135379185Y-109290609D01*
X135379172Y-109290602D01*
X135362242Y-109283590D01*
X135307838Y-109239750D01*
X135285773Y-109173456D01*
X135303052Y-109105756D01*
X135335381Y-109069764D01*
X135446546Y-108986546D01*
X135532796Y-108871331D01*
X135583091Y-108736483D01*
X135589500Y-108676873D01*
X135589499Y-107323128D01*
X135583091Y-107263517D01*
X135581956Y-107260475D01*
X135532797Y-107128671D01*
X135532793Y-107128664D01*
X135446547Y-107013455D01*
X135446544Y-107013452D01*
X135331335Y-106927206D01*
X135331328Y-106927202D01*
X135196482Y-106876908D01*
X135196483Y-106876908D01*
X135136883Y-106870501D01*
X135136881Y-106870500D01*
X135136873Y-106870500D01*
X135136865Y-106870500D01*
X134513940Y-106870500D01*
X134446901Y-106850815D01*
X134426259Y-106834181D01*
X132470291Y-104878212D01*
X132470288Y-104878210D01*
X132339185Y-104790609D01*
X132339172Y-104790602D01*
X132193501Y-104730264D01*
X132193489Y-104730261D01*
X132038845Y-104699500D01*
X132038842Y-104699500D01*
X122578842Y-104699500D01*
X122421157Y-104699500D01*
X122421154Y-104699500D01*
X122266509Y-104730261D01*
X122266497Y-104730264D01*
X122223832Y-104747936D01*
X122223833Y-104747937D01*
X122120823Y-104790604D01*
X122120814Y-104790609D01*
X121989712Y-104878209D01*
X121989711Y-104878211D01*
X121989710Y-104878212D01*
X118489711Y-108378211D01*
X118458153Y-108409769D01*
X118378209Y-108489712D01*
X118290609Y-108620814D01*
X118290602Y-108620827D01*
X118230264Y-108766498D01*
X118230261Y-108766510D01*
X118199500Y-108921153D01*
X118199500Y-114078846D01*
X118230261Y-114233489D01*
X118230264Y-114233501D01*
X118290602Y-114379172D01*
X118290609Y-114379185D01*
X118378210Y-114510288D01*
X118378213Y-114510292D01*
X119648211Y-115780289D01*
X119711261Y-115843339D01*
X119759712Y-115891790D01*
X119890814Y-115979390D01*
X119890827Y-115979397D01*
X120029219Y-116036720D01*
X120036503Y-116039737D01*
X120036507Y-116039737D01*
X120036508Y-116039738D01*
X120191154Y-116070500D01*
X120191157Y-116070500D01*
X120191158Y-116070500D01*
X122921158Y-116070500D01*
X123887060Y-116070500D01*
X123954099Y-116090185D01*
X123974741Y-116106819D01*
X124923181Y-117055259D01*
X124956666Y-117116582D01*
X124959500Y-117142940D01*
X124959500Y-119075500D01*
X124939815Y-119142539D01*
X124887011Y-119188294D01*
X124835500Y-119199500D01*
X124625669Y-119199500D01*
X124558630Y-119179815D01*
X124512875Y-119127011D01*
X124501985Y-119084347D01*
X124500355Y-119061559D01*
X124482279Y-119000000D01*
X124459819Y-118923508D01*
X124394898Y-118822489D01*
X124382032Y-118802469D01*
X124382028Y-118802465D01*
X124273299Y-118708250D01*
X124273297Y-118708248D01*
X124273294Y-118708246D01*
X124273290Y-118708244D01*
X124142419Y-118648476D01*
X124142414Y-118648475D01*
X124000000Y-118628000D01*
X121324500Y-118628000D01*
X121257461Y-118608315D01*
X121211706Y-118555511D01*
X121200500Y-118504000D01*
X121200499Y-118226663D01*
X121200498Y-118226644D01*
X121190349Y-118127292D01*
X121190348Y-118127289D01*
X121189755Y-118125499D01*
X121137003Y-117966303D01*
X121136999Y-117966297D01*
X121136998Y-117966294D01*
X121047970Y-117821959D01*
X121047967Y-117821955D01*
X120928044Y-117702032D01*
X120928040Y-117702029D01*
X120783705Y-117613001D01*
X120783699Y-117612998D01*
X120783697Y-117612997D01*
X120775996Y-117610445D01*
X120622709Y-117559651D01*
X120523352Y-117549500D01*
X120523345Y-117549500D01*
X119732940Y-117549500D01*
X119665901Y-117529815D01*
X119645259Y-117513181D01*
X118502260Y-116370182D01*
X118502257Y-116370180D01*
X118436900Y-116329114D01*
X118433982Y-116327223D01*
X118379179Y-116290605D01*
X118379173Y-116290603D01*
X118378365Y-116290268D01*
X118359865Y-116280709D01*
X118349524Y-116274212D01*
X118349523Y-116274211D01*
X118349522Y-116274211D01*
X118288867Y-116252986D01*
X118282377Y-116250509D01*
X118280450Y-116249711D01*
X118272330Y-116246347D01*
X118233496Y-116230262D01*
X118219860Y-116227550D01*
X118203104Y-116222976D01*
X118179260Y-116214633D01*
X118179256Y-116214632D01*
X118179255Y-116214632D01*
X118158575Y-116212301D01*
X118128303Y-116208890D01*
X118118003Y-116207288D01*
X118078844Y-116199500D01*
X118078842Y-116199500D01*
X118051915Y-116199500D01*
X118038031Y-116198720D01*
X118000002Y-116194435D01*
X117999998Y-116194435D01*
X117961969Y-116198720D01*
X117948085Y-116199500D01*
X117921152Y-116199500D01*
X117881994Y-116207288D01*
X117871696Y-116208890D01*
X117820742Y-116214632D01*
X117820735Y-116214634D01*
X117796898Y-116222975D01*
X117780140Y-116227550D01*
X117766502Y-116230263D01*
X117766496Y-116230264D01*
X117717631Y-116250504D01*
X117711140Y-116252982D01*
X117650477Y-116274210D01*
X117650474Y-116274212D01*
X117640127Y-116280713D01*
X117621639Y-116290266D01*
X117620832Y-116290600D01*
X117620824Y-116290604D01*
X117566047Y-116327204D01*
X117563132Y-116329092D01*
X117497742Y-116370180D01*
X117497735Y-116370186D01*
X117370186Y-116497735D01*
X117370180Y-116497742D01*
X117329092Y-116563132D01*
X117327209Y-116566038D01*
X117298962Y-116608315D01*
X117290604Y-116620824D01*
X117290600Y-116620832D01*
X117290266Y-116621639D01*
X117280713Y-116640127D01*
X117274212Y-116650474D01*
X117274210Y-116650477D01*
X117252982Y-116711140D01*
X117250504Y-116717631D01*
X117230264Y-116766496D01*
X117230263Y-116766502D01*
X117227550Y-116780140D01*
X117222975Y-116796898D01*
X117214634Y-116820735D01*
X117214632Y-116820742D01*
X117208890Y-116871696D01*
X117207288Y-116881994D01*
X117199500Y-116921152D01*
X117199500Y-116948085D01*
X117198720Y-116961969D01*
X117194435Y-116999998D01*
X117194435Y-117000001D01*
X117198720Y-117038029D01*
X117199500Y-117051914D01*
X117199500Y-117078844D01*
X117207288Y-117118003D01*
X117208890Y-117128303D01*
X117214632Y-117179252D01*
X117214633Y-117179260D01*
X117222976Y-117203104D01*
X117227550Y-117219860D01*
X117230262Y-117233496D01*
X117250509Y-117282377D01*
X117252986Y-117288867D01*
X117266144Y-117326470D01*
X117274212Y-117349524D01*
X117280709Y-117359865D01*
X117290268Y-117378365D01*
X117290603Y-117379173D01*
X117290605Y-117379179D01*
X117327223Y-117433982D01*
X117329114Y-117436900D01*
X117370180Y-117502257D01*
X117370182Y-117502260D01*
X117370184Y-117502262D01*
X117378211Y-117510289D01*
X118878211Y-119010289D01*
X118929481Y-119061559D01*
X118971978Y-119104056D01*
X119005462Y-119165380D01*
X119000478Y-119235071D01*
X118978011Y-119272937D01*
X118974748Y-119276702D01*
X118974745Y-119276707D01*
X118914976Y-119407580D01*
X118914975Y-119407585D01*
X118894500Y-119549999D01*
X118894500Y-120450002D01*
X118899644Y-120521940D01*
X118912597Y-120566050D01*
X118934477Y-120640566D01*
X118934477Y-120710434D01*
X118896703Y-120769212D01*
X118833148Y-120798238D01*
X118815500Y-120799500D01*
X117601518Y-120799500D01*
X117534479Y-120779815D01*
X117513837Y-120763181D01*
X116427781Y-119677124D01*
X116394296Y-119615801D01*
X116395257Y-119559001D01*
X116411132Y-119496313D01*
X116411135Y-119496297D01*
X116430300Y-119265006D01*
X116430300Y-119264993D01*
X116411135Y-119033702D01*
X116411133Y-119033691D01*
X116354157Y-118808699D01*
X116260924Y-118596151D01*
X116133983Y-118401852D01*
X116133980Y-118401849D01*
X116133979Y-118401847D01*
X116039195Y-118298884D01*
X116008275Y-118236232D01*
X116016135Y-118166806D01*
X116060283Y-118112651D01*
X116087095Y-118098722D01*
X116167326Y-118068798D01*
X116167326Y-118068797D01*
X116167331Y-118068796D01*
X116282546Y-117982546D01*
X116368796Y-117867331D01*
X116419091Y-117732483D01*
X116425500Y-117672873D01*
X116425499Y-115777128D01*
X116419091Y-115717517D01*
X116413315Y-115702032D01*
X116368797Y-115582671D01*
X116368793Y-115582664D01*
X116282547Y-115467455D01*
X116282544Y-115467452D01*
X116167335Y-115381206D01*
X116167328Y-115381202D01*
X116032482Y-115330908D01*
X116032483Y-115330908D01*
X115972883Y-115324501D01*
X115972881Y-115324500D01*
X115972873Y-115324500D01*
X115972865Y-115324500D01*
X115849500Y-115324500D01*
X115782461Y-115304815D01*
X115736706Y-115252011D01*
X115725500Y-115200500D01*
X115725500Y-113839812D01*
X115745185Y-113772773D01*
X115797989Y-113727018D01*
X115867147Y-113717074D01*
X115930703Y-113746099D01*
X115937181Y-113752131D01*
X116015122Y-113830072D01*
X116160604Y-113918019D01*
X116160603Y-113918019D01*
X116322894Y-113968590D01*
X116322893Y-113968590D01*
X116393408Y-113974998D01*
X116393426Y-113974999D01*
X116399999Y-113974998D01*
X116400000Y-113974998D01*
X116400000Y-113250000D01*
X116900000Y-113250000D01*
X116900000Y-113974999D01*
X116906581Y-113974999D01*
X116977102Y-113968591D01*
X116977107Y-113968590D01*
X117139396Y-113918018D01*
X117284877Y-113830072D01*
X117405072Y-113709877D01*
X117493019Y-113564395D01*
X117543590Y-113402106D01*
X117550000Y-113331572D01*
X117550000Y-113250000D01*
X116900000Y-113250000D01*
X116400000Y-113250000D01*
X116400000Y-112025000D01*
X116900000Y-112025000D01*
X116900000Y-112750000D01*
X117549999Y-112750000D01*
X117549999Y-112668417D01*
X117543591Y-112597897D01*
X117543590Y-112597892D01*
X117493018Y-112435603D01*
X117405072Y-112290122D01*
X117284877Y-112169927D01*
X117139395Y-112081980D01*
X117139396Y-112081980D01*
X116977105Y-112031409D01*
X116977106Y-112031409D01*
X116906572Y-112025000D01*
X116900000Y-112025000D01*
X116400000Y-112025000D01*
X116399999Y-112024999D01*
X116393436Y-112025000D01*
X116393417Y-112025001D01*
X116322897Y-112031408D01*
X116322892Y-112031409D01*
X116160603Y-112081981D01*
X116015122Y-112169927D01*
X116015121Y-112169928D01*
X115913035Y-112272015D01*
X115851712Y-112305500D01*
X115782020Y-112300516D01*
X115737673Y-112272015D01*
X115635188Y-112169530D01*
X115619190Y-112159859D01*
X115489606Y-112081522D01*
X115327196Y-112030914D01*
X115327194Y-112030913D01*
X115327192Y-112030913D01*
X115277778Y-112026423D01*
X115256616Y-112024500D01*
X114743384Y-112024500D01*
X114724145Y-112026248D01*
X114672807Y-112030913D01*
X114510393Y-112081522D01*
X114488650Y-112094667D01*
X114421095Y-112112503D01*
X114354621Y-112090985D01*
X114310334Y-112036945D01*
X114300500Y-111988550D01*
X114300500Y-111382940D01*
X114320185Y-111315901D01*
X114336819Y-111295259D01*
X116229976Y-109402102D01*
X118121789Y-107510289D01*
X118129816Y-107502262D01*
X118170921Y-107436842D01*
X118172778Y-107433976D01*
X118209393Y-107379179D01*
X118209719Y-107378389D01*
X118219293Y-107359859D01*
X118225789Y-107349522D01*
X118247017Y-107288852D01*
X118249493Y-107282368D01*
X118269737Y-107233497D01*
X118272450Y-107219852D01*
X118277020Y-107203107D01*
X118285368Y-107179255D01*
X118291110Y-107128285D01*
X118292708Y-107118011D01*
X118300500Y-107078843D01*
X118300500Y-107051914D01*
X118301280Y-107038029D01*
X118305565Y-107000001D01*
X118305565Y-106999998D01*
X118301280Y-106961969D01*
X118300500Y-106948085D01*
X118300500Y-106921157D01*
X118292711Y-106882003D01*
X118291110Y-106871714D01*
X118285368Y-106820745D01*
X118277023Y-106796898D01*
X118272449Y-106780139D01*
X118269737Y-106766503D01*
X118269735Y-106766498D01*
X118269734Y-106766494D01*
X118249492Y-106717627D01*
X118247022Y-106711160D01*
X118225789Y-106650478D01*
X118219288Y-106640132D01*
X118209720Y-106621611D01*
X118209393Y-106620821D01*
X118172794Y-106566046D01*
X118170909Y-106563137D01*
X118129816Y-106497738D01*
X118002260Y-106370182D01*
X118002257Y-106370180D01*
X117936854Y-106329085D01*
X117933962Y-106327211D01*
X117893985Y-106300500D01*
X117879184Y-106290610D01*
X117879181Y-106290608D01*
X117879179Y-106290607D01*
X117879175Y-106290605D01*
X117879165Y-106290600D01*
X117878375Y-106290273D01*
X117859868Y-106280712D01*
X117849522Y-106274211D01*
X117819585Y-106263735D01*
X117788856Y-106252982D01*
X117782363Y-106250503D01*
X117733497Y-106230263D01*
X117733493Y-106230262D01*
X117719860Y-106227550D01*
X117703104Y-106222976D01*
X117679260Y-106214633D01*
X117679256Y-106214632D01*
X117679255Y-106214632D01*
X117658575Y-106212301D01*
X117628303Y-106208890D01*
X117618003Y-106207288D01*
X117578844Y-106199500D01*
X117578842Y-106199500D01*
X117551915Y-106199500D01*
X117538031Y-106198720D01*
X117500002Y-106194435D01*
X117499998Y-106194435D01*
X117461969Y-106198720D01*
X117448085Y-106199500D01*
X117421153Y-106199500D01*
X117381995Y-106207288D01*
X117371695Y-106208890D01*
X117320741Y-106214632D01*
X117296900Y-106222975D01*
X117280139Y-106227550D01*
X117266504Y-106230262D01*
X117217627Y-106250507D01*
X117211133Y-106252986D01*
X117150475Y-106274212D01*
X117140127Y-106280714D01*
X117121627Y-106290272D01*
X117120825Y-106290604D01*
X117120824Y-106290604D01*
X117066035Y-106327211D01*
X117063123Y-106329098D01*
X116997738Y-106370183D01*
X116997735Y-106370186D01*
X114989711Y-108378211D01*
X112989711Y-110378211D01*
X112933960Y-110433962D01*
X112878209Y-110489712D01*
X112790609Y-110620814D01*
X112790602Y-110620827D01*
X112730264Y-110766498D01*
X112730261Y-110766510D01*
X112699500Y-110921153D01*
X112699500Y-120710217D01*
X112730261Y-120864860D01*
X112730264Y-120864872D01*
X112790602Y-121010543D01*
X112790609Y-121010556D01*
X112878210Y-121141659D01*
X112878213Y-121141663D01*
X120596840Y-128860289D01*
X120657708Y-128921157D01*
X120708341Y-128971790D01*
X120839443Y-129059390D01*
X120839456Y-129059397D01*
X120985127Y-129119735D01*
X120985132Y-129119737D01*
X121139782Y-129150499D01*
X121139785Y-129150500D01*
X121139787Y-129150500D01*
X146728844Y-129150500D01*
X146728845Y-129150499D01*
X146883497Y-129119737D01*
X147029179Y-129059394D01*
X147160289Y-128971789D01*
X147753521Y-128378555D01*
X147814842Y-128345072D01*
X147852002Y-128342710D01*
X148000000Y-128355659D01*
X148000001Y-128355659D01*
X148039234Y-128352226D01*
X148235408Y-128335063D01*
X148463663Y-128273903D01*
X148677830Y-128174035D01*
X148871401Y-128038495D01*
X149038495Y-127871401D01*
X149168730Y-127685405D01*
X149223307Y-127641781D01*
X149292805Y-127634587D01*
X149355160Y-127666110D01*
X149371879Y-127685405D01*
X149501890Y-127871078D01*
X149668917Y-128038105D01*
X149862421Y-128173600D01*
X150076507Y-128273429D01*
X150076516Y-128273433D01*
X150290000Y-128330634D01*
X150290000Y-127433012D01*
X150347007Y-127465925D01*
X150474174Y-127500000D01*
X150605826Y-127500000D01*
X150732993Y-127465925D01*
X150790000Y-127433012D01*
X150790000Y-128330633D01*
X151003483Y-128273433D01*
X151003492Y-128273429D01*
X151217578Y-128173600D01*
X151411082Y-128038105D01*
X151578105Y-127871082D01*
X151708119Y-127685405D01*
X151762696Y-127641781D01*
X151832195Y-127634588D01*
X151894549Y-127666110D01*
X151911269Y-127685405D01*
X152041505Y-127871401D01*
X152208599Y-128038495D01*
X152305384Y-128106265D01*
X152402165Y-128174032D01*
X152402167Y-128174033D01*
X152402170Y-128174035D01*
X152616337Y-128273903D01*
X152844592Y-128335063D01*
X153032918Y-128351539D01*
X153079999Y-128355659D01*
X153079999Y-128355658D01*
X153080000Y-128355659D01*
X153227992Y-128342710D01*
X153296490Y-128356476D01*
X153326479Y-128378557D01*
X154477358Y-129529436D01*
X154504238Y-129569664D01*
X154520604Y-129609175D01*
X154520609Y-129609185D01*
X154608210Y-129740288D01*
X154608213Y-129740292D01*
X154989707Y-130121786D01*
X154989711Y-130121789D01*
X155120814Y-130209390D01*
X155120823Y-130209395D01*
X155245261Y-130260939D01*
X155299664Y-130304780D01*
X155321729Y-130371074D01*
X155304450Y-130438774D01*
X155253312Y-130486384D01*
X155197808Y-130499500D01*
X111124500Y-130499500D01*
X111057461Y-130479815D01*
X111011706Y-130427011D01*
X111000500Y-130375500D01*
X111000500Y-103124500D01*
X111020185Y-103057461D01*
X111072989Y-103011706D01*
X111124500Y-103000500D01*
X174375500Y-103000500D01*
X174442539Y-103020185D01*
G37*
%TD.AperFunction*%
%TA.AperFunction,Conductor*%
G36*
X115399235Y-120642372D02*
G01*
X115437961Y-120668618D01*
X116095661Y-121326317D01*
X116715886Y-121946542D01*
X116803038Y-122033694D01*
X116813459Y-122044115D01*
X116928184Y-122120772D01*
X116928185Y-122120772D01*
X116928189Y-122120775D01*
X117018332Y-122158113D01*
X117055671Y-122173580D01*
X117055673Y-122173580D01*
X117055675Y-122173581D01*
X117074538Y-122177332D01*
X117078114Y-122178044D01*
X117134560Y-122189272D01*
X117191005Y-122200500D01*
X117191007Y-122200500D01*
X119023126Y-122200500D01*
X119090165Y-122220185D01*
X119110807Y-122236819D01*
X119171955Y-122297967D01*
X119171959Y-122297970D01*
X119316294Y-122386998D01*
X119316297Y-122386999D01*
X119316303Y-122387003D01*
X119477292Y-122440349D01*
X119576655Y-122450500D01*
X120523344Y-122450499D01*
X120523352Y-122450498D01*
X120523355Y-122450498D01*
X120577760Y-122444940D01*
X120622708Y-122440349D01*
X120783697Y-122387003D01*
X120928044Y-122297968D01*
X121047968Y-122178044D01*
X121137003Y-122033697D01*
X121190349Y-121872708D01*
X121200500Y-121773345D01*
X121200499Y-121495998D01*
X121220183Y-121428961D01*
X121272987Y-121383206D01*
X121324499Y-121372000D01*
X124000000Y-121372000D01*
X124071940Y-121366855D01*
X124209992Y-121326319D01*
X124331032Y-121248531D01*
X124425254Y-121139794D01*
X124471729Y-121038029D01*
X124485023Y-121008919D01*
X124485024Y-121008914D01*
X124486306Y-121000001D01*
X124499698Y-120906853D01*
X124528723Y-120843298D01*
X124587501Y-120805523D01*
X124622436Y-120800500D01*
X125377060Y-120800500D01*
X125444099Y-120820185D01*
X125464741Y-120836819D01*
X127540026Y-122912104D01*
X127573511Y-122973427D01*
X127568527Y-123043119D01*
X127526655Y-123099052D01*
X127463154Y-123123313D01*
X127444596Y-123124936D01*
X127444586Y-123124938D01*
X127216344Y-123186094D01*
X127216335Y-123186098D01*
X127002171Y-123285964D01*
X127002169Y-123285965D01*
X126808597Y-123421505D01*
X126641505Y-123588597D01*
X126505965Y-123782169D01*
X126505964Y-123782171D01*
X126406098Y-123996335D01*
X126406094Y-123996344D01*
X126344938Y-124224586D01*
X126344936Y-124224596D01*
X126324341Y-124459999D01*
X126324341Y-124460000D01*
X126344936Y-124695403D01*
X126344938Y-124695413D01*
X126406094Y-124923655D01*
X126406096Y-124923659D01*
X126406097Y-124923663D01*
X126410000Y-124932032D01*
X126505965Y-125137830D01*
X126505967Y-125137834D01*
X126570687Y-125230263D01*
X126641505Y-125331401D01*
X126808599Y-125498495D01*
X126975439Y-125615318D01*
X126994594Y-125628730D01*
X127038219Y-125683307D01*
X127045413Y-125752805D01*
X127013890Y-125815160D01*
X126994595Y-125831880D01*
X126808922Y-125961890D01*
X126808920Y-125961891D01*
X126641891Y-126128920D01*
X126641886Y-126128926D01*
X126506400Y-126322420D01*
X126506399Y-126322422D01*
X126406570Y-126536507D01*
X126406567Y-126536513D01*
X126349364Y-126749999D01*
X126349364Y-126750000D01*
X127246988Y-126750000D01*
X127214075Y-126807007D01*
X127180000Y-126934174D01*
X127180000Y-127065826D01*
X127214075Y-127192993D01*
X127246988Y-127250000D01*
X126349364Y-127250000D01*
X126387790Y-127393406D01*
X126386127Y-127463256D01*
X126346965Y-127521119D01*
X126282736Y-127548623D01*
X126268015Y-127549500D01*
X123779101Y-127549500D01*
X123712062Y-127529815D01*
X123666307Y-127477011D01*
X123656363Y-127407853D01*
X123685388Y-127344297D01*
X123720084Y-127316445D01*
X123823503Y-127260477D01*
X123823505Y-127260476D01*
X123823504Y-127260476D01*
X123823509Y-127260474D01*
X124019744Y-127107738D01*
X124188164Y-126924785D01*
X124324173Y-126716607D01*
X124424063Y-126488881D01*
X124485108Y-126247821D01*
X124494960Y-126128926D01*
X124505643Y-126000005D01*
X124505643Y-125999994D01*
X124485109Y-125752187D01*
X124485107Y-125752175D01*
X124424063Y-125511118D01*
X124324173Y-125283393D01*
X124188166Y-125075217D01*
X124166557Y-125051744D01*
X124019744Y-124892262D01*
X123823509Y-124739526D01*
X123823507Y-124739525D01*
X123823506Y-124739524D01*
X123604811Y-124621172D01*
X123604802Y-124621169D01*
X123369616Y-124540429D01*
X123124335Y-124499500D01*
X122875665Y-124499500D01*
X122630383Y-124540429D01*
X122395197Y-124621169D01*
X122395188Y-124621172D01*
X122176493Y-124739524D01*
X121980257Y-124892261D01*
X121811833Y-125075217D01*
X121767340Y-125143321D01*
X121714194Y-125188678D01*
X121663531Y-125199500D01*
X120051915Y-125199500D01*
X120038031Y-125198720D01*
X120000002Y-125194435D01*
X119999998Y-125194435D01*
X119961969Y-125198720D01*
X119948085Y-125199500D01*
X119921152Y-125199500D01*
X119881994Y-125207288D01*
X119871696Y-125208890D01*
X119820742Y-125214632D01*
X119820735Y-125214634D01*
X119796898Y-125222975D01*
X119780140Y-125227550D01*
X119766502Y-125230263D01*
X119766496Y-125230264D01*
X119717631Y-125250504D01*
X119711140Y-125252982D01*
X119650477Y-125274210D01*
X119650474Y-125274212D01*
X119640127Y-125280713D01*
X119621639Y-125290266D01*
X119620832Y-125290600D01*
X119620824Y-125290604D01*
X119566047Y-125327204D01*
X119563132Y-125329092D01*
X119503570Y-125366519D01*
X119436334Y-125385521D01*
X119369498Y-125365155D01*
X119349915Y-125349208D01*
X114877888Y-120877181D01*
X114844403Y-120815858D01*
X114849387Y-120746166D01*
X114891259Y-120690233D01*
X114956723Y-120665816D01*
X114965569Y-120665500D01*
X115141048Y-120665500D01*
X115141049Y-120665500D01*
X115329874Y-120633990D01*
X115399235Y-120642372D01*
G37*
%TD.AperFunction*%
%TA.AperFunction,Conductor*%
G36*
X125440165Y-110720185D02*
G01*
X125460807Y-110736819D01*
X125546955Y-110822967D01*
X125546959Y-110822970D01*
X125691294Y-110911998D01*
X125691297Y-110911999D01*
X125691303Y-110912003D01*
X125852292Y-110965349D01*
X125951655Y-110975500D01*
X126498344Y-110975499D01*
X126498352Y-110975498D01*
X126498355Y-110975498D01*
X126565980Y-110968590D01*
X126597708Y-110965349D01*
X126758697Y-110912003D01*
X126903044Y-110822968D01*
X126912319Y-110813693D01*
X126973642Y-110780208D01*
X127043334Y-110785192D01*
X127087681Y-110813693D01*
X127096955Y-110822967D01*
X127096959Y-110822970D01*
X127241294Y-110911998D01*
X127241297Y-110911999D01*
X127241303Y-110912003D01*
X127402292Y-110965349D01*
X127501655Y-110975500D01*
X128048344Y-110975499D01*
X128048352Y-110975498D01*
X128048355Y-110975498D01*
X128115980Y-110968590D01*
X128147708Y-110965349D01*
X128308697Y-110912003D01*
X128423105Y-110841435D01*
X128459191Y-110819177D01*
X128460868Y-110821896D01*
X128512466Y-110801091D01*
X128524560Y-110800500D01*
X132075500Y-110800500D01*
X132142539Y-110820185D01*
X132188294Y-110872989D01*
X132199500Y-110924500D01*
X132199500Y-110948085D01*
X132198720Y-110961969D01*
X132194435Y-110999998D01*
X132194435Y-111000001D01*
X132198720Y-111038029D01*
X132199500Y-111051914D01*
X132199500Y-111078844D01*
X132207288Y-111118003D01*
X132208890Y-111128303D01*
X132210144Y-111139427D01*
X132213616Y-111170242D01*
X132214632Y-111179252D01*
X132214633Y-111179260D01*
X132222976Y-111203104D01*
X132227550Y-111219860D01*
X132230262Y-111233496D01*
X132250509Y-111282377D01*
X132252986Y-111288867D01*
X132270179Y-111338001D01*
X132274212Y-111349524D01*
X132280709Y-111359865D01*
X132290268Y-111378365D01*
X132290603Y-111379173D01*
X132290605Y-111379179D01*
X132327223Y-111433982D01*
X132329114Y-111436900D01*
X132370180Y-111502257D01*
X132370182Y-111502260D01*
X132378211Y-111510289D01*
X132703181Y-111835258D01*
X132736666Y-111896581D01*
X132739500Y-111922939D01*
X132739500Y-111925076D01*
X132719815Y-111992115D01*
X132667011Y-112037870D01*
X132602247Y-112048365D01*
X132571873Y-112045100D01*
X132571865Y-112045100D01*
X131968129Y-112045100D01*
X131968123Y-112045101D01*
X131908516Y-112051508D01*
X131773671Y-112101802D01*
X131773665Y-112101806D01*
X131708893Y-112150294D01*
X131643429Y-112174711D01*
X131575156Y-112159859D01*
X131560272Y-112150294D01*
X131496089Y-112102247D01*
X131496086Y-112102245D01*
X131361379Y-112052003D01*
X131361372Y-112052001D01*
X131301844Y-112045600D01*
X131250000Y-112045600D01*
X131250000Y-115026800D01*
X131254943Y-115031743D01*
X131288428Y-115093066D01*
X131283444Y-115162758D01*
X131241572Y-115218691D01*
X131214715Y-115233985D01*
X131078024Y-115290604D01*
X131078014Y-115290609D01*
X130946911Y-115378210D01*
X130946907Y-115378213D01*
X129351700Y-116973420D01*
X129307354Y-117001920D01*
X129233668Y-117029404D01*
X129169311Y-117077582D01*
X129103846Y-117101999D01*
X129035573Y-117087147D01*
X129020689Y-117077582D01*
X128956331Y-117029404D01*
X128956328Y-117029402D01*
X128821486Y-116979110D01*
X128821485Y-116979109D01*
X128821483Y-116979109D01*
X128761873Y-116972700D01*
X128761863Y-116972700D01*
X128158129Y-116972700D01*
X128158123Y-116972701D01*
X128098516Y-116979108D01*
X127963671Y-117029402D01*
X127963668Y-117029404D01*
X127899311Y-117077582D01*
X127833846Y-117101999D01*
X127765573Y-117087147D01*
X127750689Y-117077582D01*
X127686331Y-117029404D01*
X127686328Y-117029402D01*
X127551486Y-116979110D01*
X127551485Y-116979109D01*
X127551483Y-116979109D01*
X127491873Y-116972700D01*
X127491863Y-116972700D01*
X126888129Y-116972700D01*
X126888123Y-116972701D01*
X126828516Y-116979108D01*
X126727833Y-117016661D01*
X126658141Y-117021645D01*
X126596818Y-116988160D01*
X126563334Y-116926836D01*
X126560500Y-116900479D01*
X126560500Y-116681162D01*
X126560499Y-116681154D01*
X126560120Y-116679250D01*
X126560121Y-116679249D01*
X126560117Y-116679236D01*
X126529737Y-116526503D01*
X126514497Y-116489711D01*
X126469394Y-116380821D01*
X126469392Y-116380819D01*
X126469392Y-116380817D01*
X126381790Y-116249712D01*
X126326513Y-116194435D01*
X126270289Y-116138211D01*
X125541847Y-115409769D01*
X124780292Y-114648213D01*
X124780288Y-114648210D01*
X124670229Y-114574670D01*
X126435500Y-114574670D01*
X126435501Y-114574676D01*
X126441908Y-114634283D01*
X126492202Y-114769128D01*
X126492206Y-114769135D01*
X126578452Y-114884344D01*
X126578455Y-114884347D01*
X126693664Y-114970593D01*
X126693671Y-114970597D01*
X126738618Y-114987361D01*
X126828517Y-115020891D01*
X126888127Y-115027300D01*
X127491872Y-115027299D01*
X127551483Y-115020891D01*
X127686331Y-114970596D01*
X127750688Y-114922417D01*
X127816153Y-114898000D01*
X127884426Y-114912851D01*
X127899308Y-114922416D01*
X127963076Y-114970152D01*
X127963668Y-114970595D01*
X127963671Y-114970597D01*
X128008618Y-114987361D01*
X128098517Y-115020891D01*
X128158127Y-115027300D01*
X128761872Y-115027299D01*
X128821483Y-115020891D01*
X128956331Y-114970596D01*
X129020688Y-114922417D01*
X129086153Y-114898000D01*
X129154426Y-114912851D01*
X129169308Y-114922416D01*
X129233076Y-114970152D01*
X129233668Y-114970595D01*
X129233671Y-114970597D01*
X129278618Y-114987361D01*
X129368517Y-115020891D01*
X129428127Y-115027300D01*
X130031872Y-115027299D01*
X130091483Y-115020891D01*
X130226331Y-114970596D01*
X130291106Y-114922105D01*
X130356568Y-114897688D01*
X130424841Y-114912539D01*
X130439727Y-114922105D01*
X130503910Y-114970152D01*
X130503913Y-114970154D01*
X130638620Y-115020396D01*
X130638627Y-115020398D01*
X130698155Y-115026799D01*
X130698172Y-115026800D01*
X130750000Y-115026800D01*
X130750000Y-112045600D01*
X130698155Y-112045600D01*
X130638627Y-112052001D01*
X130638620Y-112052003D01*
X130503913Y-112102245D01*
X130503906Y-112102249D01*
X130439726Y-112150294D01*
X130374261Y-112174711D01*
X130305989Y-112159859D01*
X130291105Y-112150294D01*
X130226330Y-112101803D01*
X130226328Y-112101802D01*
X130091486Y-112051510D01*
X130091485Y-112051509D01*
X130091483Y-112051509D01*
X130031873Y-112045100D01*
X130031863Y-112045100D01*
X129428129Y-112045100D01*
X129428123Y-112045101D01*
X129368516Y-112051508D01*
X129233671Y-112101802D01*
X129233668Y-112101804D01*
X129169311Y-112149982D01*
X129103846Y-112174399D01*
X129035573Y-112159547D01*
X129020689Y-112149982D01*
X128956331Y-112101804D01*
X128956328Y-112101802D01*
X128821486Y-112051510D01*
X128821485Y-112051509D01*
X128821483Y-112051509D01*
X128761873Y-112045100D01*
X128761863Y-112045100D01*
X128158129Y-112045100D01*
X128158123Y-112045101D01*
X128098516Y-112051508D01*
X127963671Y-112101802D01*
X127963668Y-112101804D01*
X127899311Y-112149982D01*
X127833846Y-112174399D01*
X127765573Y-112159547D01*
X127750689Y-112149982D01*
X127686331Y-112101804D01*
X127686328Y-112101802D01*
X127551486Y-112051510D01*
X127551485Y-112051509D01*
X127551483Y-112051509D01*
X127491873Y-112045100D01*
X127491863Y-112045100D01*
X126888129Y-112045100D01*
X126888123Y-112045101D01*
X126828516Y-112051508D01*
X126693671Y-112101802D01*
X126693664Y-112101806D01*
X126578455Y-112188052D01*
X126578452Y-112188055D01*
X126492206Y-112303264D01*
X126492202Y-112303271D01*
X126441908Y-112438117D01*
X126435501Y-112497716D01*
X126435500Y-112497735D01*
X126435500Y-114574670D01*
X124670229Y-114574670D01*
X124649185Y-114560609D01*
X124649172Y-114560602D01*
X124503501Y-114500264D01*
X124503489Y-114500261D01*
X124348845Y-114469500D01*
X124348842Y-114469500D01*
X124253499Y-114469500D01*
X124186460Y-114449815D01*
X124140705Y-114397011D01*
X124129499Y-114345500D01*
X124129499Y-114093129D01*
X124129498Y-114093123D01*
X124129497Y-114093116D01*
X124123091Y-114033517D01*
X124110029Y-113998497D01*
X124072797Y-113898671D01*
X124072793Y-113898664D01*
X123986547Y-113783455D01*
X123986544Y-113783452D01*
X123871335Y-113697206D01*
X123871328Y-113697202D01*
X123736482Y-113646908D01*
X123736483Y-113646908D01*
X123676883Y-113640501D01*
X123676881Y-113640500D01*
X123676873Y-113640500D01*
X123676865Y-113640500D01*
X123255741Y-113640500D01*
X123188702Y-113620815D01*
X123142947Y-113568011D01*
X123133003Y-113498853D01*
X123162028Y-113435297D01*
X123208288Y-113401939D01*
X123331811Y-113350775D01*
X123446542Y-113274114D01*
X123446541Y-113274114D01*
X123451608Y-113270729D01*
X123452037Y-113271371D01*
X123478464Y-113255937D01*
X123505618Y-113245419D01*
X123683592Y-113135222D01*
X123838287Y-112994199D01*
X123964434Y-112827153D01*
X124057740Y-112639771D01*
X124115025Y-112438434D01*
X124134339Y-112230000D01*
X124115025Y-112021566D01*
X124057740Y-111820229D01*
X123993542Y-111691303D01*
X123964437Y-111632852D01*
X123964432Y-111632844D01*
X123912895Y-111564598D01*
X123838287Y-111465801D01*
X123825490Y-111454135D01*
X123740961Y-111377076D01*
X123704680Y-111317364D01*
X123700500Y-111285439D01*
X123700500Y-111166519D01*
X123720185Y-111099480D01*
X123736819Y-111078838D01*
X123803838Y-111011819D01*
X123865161Y-110978334D01*
X123891519Y-110975500D01*
X124081613Y-110975500D01*
X124081616Y-110975500D01*
X124152196Y-110969086D01*
X124314606Y-110918478D01*
X124460185Y-110830472D01*
X124505465Y-110785192D01*
X124553839Y-110736819D01*
X124615162Y-110703334D01*
X124641520Y-110700500D01*
X125373126Y-110700500D01*
X125440165Y-110720185D01*
G37*
%TD.AperFunction*%
%TA.AperFunction,Conductor*%
G36*
X125642539Y-106320185D02*
G01*
X125688294Y-106372989D01*
X125699500Y-106424500D01*
X125699500Y-106448085D01*
X125698720Y-106461969D01*
X125694435Y-106499998D01*
X125694435Y-106500001D01*
X125698720Y-106538029D01*
X125699500Y-106551914D01*
X125699500Y-106578844D01*
X125707288Y-106618003D01*
X125708890Y-106628303D01*
X125714632Y-106679252D01*
X125714633Y-106679260D01*
X125722976Y-106703104D01*
X125727550Y-106719860D01*
X125730262Y-106733496D01*
X125750509Y-106782377D01*
X125752986Y-106788867D01*
X125764141Y-106820746D01*
X125774212Y-106849524D01*
X125780709Y-106859865D01*
X125790268Y-106878365D01*
X125790603Y-106879173D01*
X125790605Y-106879179D01*
X125827223Y-106933982D01*
X125829114Y-106936900D01*
X125870180Y-107002257D01*
X125870182Y-107002260D01*
X125870184Y-107002262D01*
X125997738Y-107129816D01*
X126063131Y-107170905D01*
X126066040Y-107172790D01*
X126120821Y-107209394D01*
X126121606Y-107209719D01*
X126140134Y-107219289D01*
X126150478Y-107225789D01*
X126211175Y-107247028D01*
X126217607Y-107249484D01*
X126244135Y-107260472D01*
X126266497Y-107269735D01*
X126266498Y-107269735D01*
X126266503Y-107269737D01*
X126280139Y-107272449D01*
X126296898Y-107277023D01*
X126320745Y-107285368D01*
X126371714Y-107291110D01*
X126381992Y-107292709D01*
X126409140Y-107298109D01*
X126421157Y-107300500D01*
X126421158Y-107300500D01*
X126448085Y-107300500D01*
X126461969Y-107301280D01*
X126499998Y-107305565D01*
X126500000Y-107305565D01*
X126500002Y-107305565D01*
X126538031Y-107301280D01*
X126551915Y-107300500D01*
X128117060Y-107300500D01*
X128184099Y-107320185D01*
X128204741Y-107336819D01*
X128486330Y-107618408D01*
X128519815Y-107679731D01*
X128518855Y-107736528D01*
X128514891Y-107752180D01*
X128494357Y-107999994D01*
X128494357Y-108000005D01*
X128514890Y-108247812D01*
X128514892Y-108247824D01*
X128575936Y-108488881D01*
X128675826Y-108716606D01*
X128811836Y-108924786D01*
X128873267Y-108991517D01*
X128904190Y-109054171D01*
X128896330Y-109123597D01*
X128852183Y-109177753D01*
X128785766Y-109199444D01*
X128782038Y-109199500D01*
X128524560Y-109199500D01*
X128459461Y-109180384D01*
X128459191Y-109180823D01*
X128457589Y-109179835D01*
X128457521Y-109179815D01*
X128457293Y-109179652D01*
X128308705Y-109088001D01*
X128308699Y-109087998D01*
X128308697Y-109087997D01*
X128217728Y-109057853D01*
X128147709Y-109034651D01*
X128048346Y-109024500D01*
X127501662Y-109024500D01*
X127501644Y-109024501D01*
X127402292Y-109034650D01*
X127402289Y-109034651D01*
X127241305Y-109087996D01*
X127241294Y-109088001D01*
X127096959Y-109177029D01*
X127096955Y-109177032D01*
X127087681Y-109186307D01*
X127026358Y-109219792D01*
X126956666Y-109214808D01*
X126912319Y-109186307D01*
X126903044Y-109177032D01*
X126903040Y-109177029D01*
X126758705Y-109088001D01*
X126758699Y-109087998D01*
X126758697Y-109087997D01*
X126667728Y-109057853D01*
X126597709Y-109034651D01*
X126498346Y-109024500D01*
X125951662Y-109024500D01*
X125951644Y-109024501D01*
X125852292Y-109034650D01*
X125852289Y-109034651D01*
X125691305Y-109087996D01*
X125691294Y-109088001D01*
X125546959Y-109177029D01*
X125546955Y-109177032D01*
X125460807Y-109263181D01*
X125399484Y-109296666D01*
X125373126Y-109299500D01*
X124641520Y-109299500D01*
X124574481Y-109279815D01*
X124553839Y-109263181D01*
X124460188Y-109169530D01*
X124434230Y-109153838D01*
X124314606Y-109081522D01*
X124152196Y-109030914D01*
X124152194Y-109030913D01*
X124152192Y-109030913D01*
X124102778Y-109026423D01*
X124081616Y-109024500D01*
X123568384Y-109024500D01*
X123549145Y-109026248D01*
X123497807Y-109030913D01*
X123335393Y-109081522D01*
X123189811Y-109169530D01*
X123189810Y-109169531D01*
X123087327Y-109272015D01*
X123026004Y-109305500D01*
X122956312Y-109300516D01*
X122911965Y-109272015D01*
X122809877Y-109169927D01*
X122664395Y-109081980D01*
X122664396Y-109081980D01*
X122502105Y-109031409D01*
X122502106Y-109031409D01*
X122431572Y-109025000D01*
X122425000Y-109025000D01*
X122425000Y-110387066D01*
X122405315Y-110454105D01*
X122404103Y-110455956D01*
X122379227Y-110493185D01*
X122379223Y-110493192D01*
X122326420Y-110620670D01*
X122326390Y-110620821D01*
X122308615Y-110710185D01*
X122306626Y-110720185D01*
X122299500Y-110756006D01*
X122299500Y-111285439D01*
X122279815Y-111352478D01*
X122259039Y-111377076D01*
X122161714Y-111465799D01*
X122035567Y-111632844D01*
X122035562Y-111632852D01*
X121942259Y-111820230D01*
X121905882Y-111948085D01*
X121891756Y-111997735D01*
X121884974Y-112021570D01*
X121865661Y-112229999D01*
X121865661Y-112230000D01*
X121884974Y-112438429D01*
X121884974Y-112438431D01*
X121884975Y-112438434D01*
X121913336Y-112538115D01*
X121942259Y-112639769D01*
X122035562Y-112827147D01*
X122035567Y-112827155D01*
X122161714Y-112994201D01*
X122254418Y-113078711D01*
X122316408Y-113135222D01*
X122494382Y-113245419D01*
X122519498Y-113255148D01*
X122521530Y-113255936D01*
X122547966Y-113271368D01*
X122548393Y-113270730D01*
X122668182Y-113350771D01*
X122668195Y-113350778D01*
X122743718Y-113382060D01*
X122791711Y-113401939D01*
X122846115Y-113445779D01*
X122868180Y-113512073D01*
X122850901Y-113579773D01*
X122799764Y-113627384D01*
X122744259Y-113640500D01*
X122323129Y-113640500D01*
X122323123Y-113640501D01*
X122263516Y-113646908D01*
X122128671Y-113697202D01*
X122128664Y-113697206D01*
X122013455Y-113783452D01*
X122013452Y-113783455D01*
X121927206Y-113898664D01*
X121927202Y-113898671D01*
X121876908Y-114033517D01*
X121872035Y-114078846D01*
X121870501Y-114093123D01*
X121870500Y-114093135D01*
X121870500Y-114345500D01*
X121850815Y-114412539D01*
X121798011Y-114458294D01*
X121746500Y-114469500D01*
X120652940Y-114469500D01*
X120585901Y-114449815D01*
X120565259Y-114433181D01*
X119836819Y-113704741D01*
X119803334Y-113643418D01*
X119800500Y-113617060D01*
X119800500Y-110250000D01*
X121275001Y-110250000D01*
X121275001Y-110331582D01*
X121281408Y-110402102D01*
X121281409Y-110402107D01*
X121331981Y-110564396D01*
X121419927Y-110709877D01*
X121540122Y-110830072D01*
X121685604Y-110918019D01*
X121685603Y-110918019D01*
X121847894Y-110968590D01*
X121847893Y-110968590D01*
X121918408Y-110974998D01*
X121918426Y-110974999D01*
X121924999Y-110974998D01*
X121925000Y-110974998D01*
X121925000Y-110250000D01*
X121275001Y-110250000D01*
X119800500Y-110250000D01*
X119800500Y-109750000D01*
X121275000Y-109750000D01*
X121925000Y-109750000D01*
X121925000Y-109025000D01*
X121924999Y-109024999D01*
X121918436Y-109025000D01*
X121918417Y-109025001D01*
X121847897Y-109031408D01*
X121847892Y-109031409D01*
X121685603Y-109081981D01*
X121540122Y-109169927D01*
X121419927Y-109290122D01*
X121331980Y-109435604D01*
X121281409Y-109597893D01*
X121275000Y-109668427D01*
X121275000Y-109750000D01*
X119800500Y-109750000D01*
X119800500Y-109382940D01*
X119820185Y-109315901D01*
X119836819Y-109295259D01*
X122795259Y-106336819D01*
X122856582Y-106303334D01*
X122882940Y-106300500D01*
X125575500Y-106300500D01*
X125642539Y-106320185D01*
G37*
%TD.AperFunction*%
%TD*%
M02*
