M48
; DRILL file {KiCad 8.0.1} date 2024-03-24T23:46:15+0200
; FORMAT={-:-/ absolute / inch / decimal}
; #@! TF.CreationDate,2024-03-24T23:46:15+02:00
; #@! TF.GenerationSoftware,Kicad,Pcbnew,8.0.1
; #@! TF.FileFunction,Plated,1,2,PTH
FMAT,2
INCH
; #@! TA.AperFunction,Plated,PTH,ViaDrill
T1C0.0118
; #@! TA.AperFunction,Plated,PTH,ComponentDrill
T2C0.0295
; #@! TA.AperFunction,Plated,PTH,ComponentDrill
T3C0.0354
; #@! TA.AperFunction,Plated,PTH,ComponentDrill
T4C0.0394
%
G90
G05
T1
X4.626Y-4.2126
X4.6457Y-4.6063
X4.7244Y-4.9606
X4.9803Y-4.1929
X5.0394Y-4.7638
X5.1969Y-4.252
X5.1969Y-4.5669
X5.2362Y-4.3701
X5.3543Y-4.4291
X5.3543Y-4.6654
X5.4331Y-4.6378
X5.5512Y-4.4882
X5.6102Y-4.4478
X5.7874Y-4.5866
X5.8268Y-4.7638
X5.8627Y-4.7047
X5.9843Y-4.4094
X6.0433Y-4.7638
X6.2205Y-4.2323
X6.2205Y-4.6654
X6.3189Y-4.6575
X6.6339Y-4.7244
T2
X4.8425Y-4.4185
X4.8425Y-4.5185
X5.2937Y-4.252
X5.3937Y-4.252
X6.6535Y-4.4276
X6.6535Y-4.5276
T3
X4.5285Y-4.5955
X4.5285Y-4.6955
X5.836Y-4.3317
X5.936Y-4.3317
X6.5354Y-4.714
X6.5354Y-4.814
T4
X5.0268Y-4.9
X5.0268Y-5.0
X5.1268Y-4.9
X5.1268Y-5.0
X5.2268Y-4.9
X5.2268Y-5.0
X5.3268Y-4.9
X5.3268Y-5.0
X5.4268Y-4.9
X5.4268Y-5.0
X5.5268Y-4.9
X5.5268Y-5.0
X5.6268Y-4.9
X5.6268Y-5.0
X5.7268Y-4.9
X5.7268Y-5.0
X5.8268Y-4.9
X5.8268Y-5.0
X5.9268Y-4.9
X5.9268Y-5.0
X6.0268Y-4.9
X6.0268Y-5.0
X6.1268Y-4.9
X6.1268Y-5.0
X6.2268Y-4.9
X6.2268Y-5.0
X6.3268Y-4.9
X6.3268Y-5.0
M30
