%TF.GenerationSoftware,KiCad,Pcbnew,8.0.1*%
%TF.CreationDate,2024-03-24T23:46:15+02:00*%
%TF.ProjectId,_autosave-_autosave-Assignment 2,5f617574-6f73-4617-9665-2d5f6175746f,rev?*%
%TF.SameCoordinates,Original*%
%TF.FileFunction,Copper,L2,Bot*%
%TF.FilePolarity,Positive*%
%FSLAX46Y46*%
G04 Gerber Fmt 4.6, Leading zero omitted, Abs format (unit mm)*
G04 Created by KiCad (PCBNEW 8.0.1) date 2024-03-24 23:46:15*
%MOMM*%
%LPD*%
G01*
G04 APERTURE LIST*
%TA.AperFunction,ComponentPad*%
%ADD10R,1.800000X1.800000*%
%TD*%
%TA.AperFunction,ComponentPad*%
%ADD11C,1.800000*%
%TD*%
%TA.AperFunction,ComponentPad*%
%ADD12C,1.258000*%
%TD*%
%TA.AperFunction,ComponentPad*%
%ADD13R,1.258000X1.258000*%
%TD*%
%TA.AperFunction,ComponentPad*%
%ADD14R,1.700000X1.700000*%
%TD*%
%TA.AperFunction,ComponentPad*%
%ADD15O,1.700000X1.700000*%
%TD*%
%TA.AperFunction,ViaPad*%
%ADD16C,0.600000*%
%TD*%
%TA.AperFunction,Conductor*%
%ADD17C,0.600000*%
%TD*%
%TA.AperFunction,Conductor*%
%ADD18C,0.200000*%
%TD*%
G04 APERTURE END LIST*
D10*
%TO.P,D1,1,K*%
%TO.N,Net-(D1-K)*%
X115025000Y-116725000D03*
D11*
%TO.P,D1,2,A*%
%TO.N,Net-(D1-A)*%
X115025000Y-119265000D03*
%TD*%
D10*
%TO.P,D6,1,K*%
%TO.N,Net-(D6-K)*%
X166000000Y-122275000D03*
D11*
%TO.P,D6,2,A*%
%TO.N,Net-(D6-A)*%
X166000000Y-119735000D03*
%TD*%
D12*
%TO.P,D2,A*%
%TO.N,Net-(C2-Pad1)*%
X123000000Y-112230000D03*
D13*
%TO.P,D2,K*%
%TO.N,VCC*%
X123000000Y-114770000D03*
%TD*%
D12*
%TO.P,D4,A*%
%TO.N,Net-(C1-Pad1)*%
X137000000Y-108000000D03*
D13*
%TO.P,D4,K*%
%TO.N,VCC*%
X134460000Y-108000000D03*
%TD*%
D10*
%TO.P,D5,1,K*%
%TO.N,Net-(D5-K)*%
X150775000Y-110025000D03*
D11*
%TO.P,D5,2,A*%
%TO.N,Net-(D5-A)*%
X148235000Y-110025000D03*
%TD*%
D12*
%TO.P,D3,A*%
%TO.N,Net-(C3-Pad1)*%
X169000000Y-115000000D03*
D13*
%TO.P,D3,K*%
%TO.N,VCC*%
X169000000Y-112460000D03*
%TD*%
D14*
%TO.P,J1,1,Pin_1*%
%TO.N,unconnected-(J1-Pin_1-Pad1)*%
X160700000Y-127000000D03*
D15*
%TO.P,J1,2,Pin_2*%
%TO.N,unconnected-(J1-Pin_2-Pad2)*%
X160700000Y-124460000D03*
%TO.P,J1,3,Pin_3*%
%TO.N,GND*%
X158160000Y-127000000D03*
%TO.P,J1,4,Pin_4*%
%TO.N,VCC*%
X158160000Y-124460000D03*
%TO.P,J1,5,Pin_5*%
%TO.N,Net-(J1-Pin_5)*%
X155620000Y-127000000D03*
%TO.P,J1,6,Pin_6*%
%TO.N,unconnected-(J1-Pin_6-Pad6)*%
X155620000Y-124460000D03*
%TO.P,J1,7,Pin_7*%
%TO.N,Net-(J1-Pin_7)*%
X153080000Y-127000000D03*
%TO.P,J1,8,Pin_8*%
%TO.N,Net-(J1-Pin_8)*%
X153080000Y-124460000D03*
%TO.P,J1,9,Pin_9*%
%TO.N,GND*%
X150540000Y-127000000D03*
%TO.P,J1,10,Pin_10*%
%TO.N,Net-(J1-Pin_10)*%
X150540000Y-124460000D03*
%TO.P,J1,11,Pin_11*%
%TO.N,Net-(J1-Pin_11)*%
X148000000Y-127000000D03*
%TO.P,J1,12,Pin_12*%
%TO.N,Net-(J1-Pin_12)*%
X148000000Y-124460000D03*
%TO.P,J1,13,Pin_13*%
%TO.N,unconnected-(J1-Pin_13-Pad13)*%
X145460000Y-127000000D03*
%TO.P,J1,14,Pin_14*%
%TO.N,unconnected-(J1-Pin_14-Pad14)*%
X145460000Y-124460000D03*
%TO.P,J1,15,Pin_15*%
%TO.N,GND*%
X142920000Y-127000000D03*
%TO.P,J1,16,Pin_16*%
%TO.N,unconnected-(J1-Pin_16-Pad16)*%
X142920000Y-124460000D03*
%TO.P,J1,17,Pin_17*%
%TO.N,unconnected-(J1-Pin_17-Pad17)*%
X140380000Y-127000000D03*
%TO.P,J1,18,Pin_18*%
%TO.N,unconnected-(J1-Pin_18-Pad18)*%
X140380000Y-124460000D03*
%TO.P,J1,19,Pin_19*%
%TO.N,unconnected-(J1-Pin_19-Pad19)*%
X137840000Y-127000000D03*
%TO.P,J1,20,Pin_20*%
%TO.N,unconnected-(J1-Pin_20-Pad20)*%
X137840000Y-124460000D03*
%TO.P,J1,21,Pin_21*%
%TO.N,GND*%
X135300000Y-127000000D03*
%TO.P,J1,22,Pin_22*%
%TO.N,unconnected-(J1-Pin_22-Pad22)*%
X135300000Y-124460000D03*
%TO.P,J1,23,Pin_23*%
%TO.N,unconnected-(J1-Pin_23-Pad23)*%
X132760000Y-127000000D03*
%TO.P,J1,24,Pin_24*%
%TO.N,unconnected-(J1-Pin_24-Pad24)*%
X132760000Y-124460000D03*
%TO.P,J1,25,Pin_25*%
%TO.N,unconnected-(J1-Pin_25-Pad25)*%
X130220000Y-127000000D03*
%TO.P,J1,26,Pin_26*%
%TO.N,VCC*%
X130220000Y-124460000D03*
%TO.P,J1,27,Pin_27*%
%TO.N,GND*%
X127680000Y-127000000D03*
%TO.P,J1,28,Pin_28*%
%TO.N,unconnected-(J1-Pin_28-Pad28)*%
X127680000Y-124460000D03*
%TD*%
D16*
%TO.N,Net-(J1-Pin_5)*%
X128000000Y-121000000D03*
%TO.N,Net-(J1-Pin_7)*%
X138000000Y-117800000D03*
X136000000Y-118500000D03*
X168500000Y-120000000D03*
X158000000Y-118500000D03*
X142500000Y-112975000D03*
%TO.N,Net-(J1-Pin_11)*%
X126500000Y-106500000D03*
X117500000Y-107000000D03*
X133000000Y-111000000D03*
X132000000Y-108000000D03*
%TO.N,Net-(U1-POS_1)*%
X141000000Y-114000000D03*
X132000000Y-116000000D03*
%TO.N,Net-(C2-Pad1)*%
X120000000Y-126000000D03*
%TO.N,Net-(U1-POS_3)*%
X136000000Y-112500000D03*
X152000000Y-112000000D03*
%TO.N,Net-(D6-A)*%
X153500000Y-121000000D03*
X148912500Y-119500000D03*
%TO.N,GND*%
X160500000Y-118300000D03*
X158000000Y-107500000D03*
%TO.N,Net-(J1-Pin_8)*%
X118000000Y-117000000D03*
%TO.N,Net-(J1-Pin_10)*%
X147000000Y-116500000D03*
X148000000Y-121000000D03*
%TD*%
D17*
%TO.N,Net-(J1-Pin_5)*%
X126330000Y-128330000D02*
X126350000Y-128350000D01*
X128000000Y-121000000D02*
X126330000Y-122670000D01*
X154270000Y-128350000D02*
X155620000Y-127000000D01*
X126330000Y-122670000D02*
X126330000Y-128330000D01*
X126350000Y-128350000D02*
X154270000Y-128350000D01*
%TO.N,Net-(J1-Pin_7)*%
X155250000Y-118750000D02*
X155000000Y-119000000D01*
X155000000Y-114500000D02*
X155000000Y-118500000D01*
X137300000Y-118500000D02*
X138000000Y-117800000D01*
X142500000Y-112975000D02*
X144025000Y-114500000D01*
X136000000Y-118500000D02*
X137300000Y-118500000D01*
X155000000Y-118500000D02*
X155250000Y-118750000D01*
X168500000Y-120000000D02*
X168500000Y-119160000D01*
X168500000Y-121479899D02*
X166579899Y-123400000D01*
X155940000Y-118060000D02*
X155250000Y-118750000D01*
X144025000Y-114500000D02*
X155000000Y-114500000D01*
X166579899Y-123400000D02*
X162900000Y-123400000D01*
X168500000Y-119160000D02*
X167400000Y-118060000D01*
X168500000Y-119160000D02*
X168500000Y-121479899D01*
X162900000Y-123400000D02*
X158000000Y-118500000D01*
%TO.N,Net-(J1-Pin_11)*%
X132000000Y-110000000D02*
X133000000Y-111000000D01*
X126000000Y-107000000D02*
X126500000Y-106500000D01*
X132000000Y-108000000D02*
X132000000Y-110000000D01*
X117500000Y-107000000D02*
X126000000Y-107000000D01*
%TO.N,Net-(U1-POS_1)*%
X141000000Y-114000000D02*
X139000000Y-116000000D01*
X139000000Y-116000000D02*
X132000000Y-116000000D01*
%TO.N,Net-(C2-Pad1)*%
X120270000Y-112730000D02*
X123000000Y-112730000D01*
X117000000Y-116000000D02*
X120270000Y-112730000D01*
X120000000Y-126000000D02*
X117000000Y-123000000D01*
X117000000Y-123000000D02*
X117000000Y-116000000D01*
%TO.N,Net-(U1-POS_3)*%
X152000000Y-112000000D02*
X136500000Y-112000000D01*
X136500000Y-112000000D02*
X136000000Y-112500000D01*
%TO.N,Net-(D6-A)*%
X157668630Y-117700000D02*
X158700000Y-117700000D01*
X160735000Y-119735000D02*
X166000000Y-119735000D01*
X158700000Y-117700000D02*
X160735000Y-119735000D01*
X153500000Y-121000000D02*
X149000000Y-121000000D01*
X153500000Y-121000000D02*
X154368630Y-121000000D01*
X149000000Y-121000000D02*
X148912500Y-120912500D01*
X153500000Y-121000000D02*
X151500000Y-121000000D01*
X148912500Y-120912500D02*
X148912500Y-119500000D01*
X154368630Y-121000000D02*
X157668630Y-117700000D01*
D18*
%TO.N,GND*%
X160500000Y-118300000D02*
X160500000Y-117500000D01*
X157000000Y-108500000D02*
X158000000Y-107500000D01*
X157000000Y-114000000D02*
X157000000Y-109000000D01*
X160500000Y-117500000D02*
X157000000Y-114000000D01*
X157000000Y-109000000D02*
X157000000Y-108500000D01*
D17*
%TO.N,Net-(J1-Pin_8)*%
X145620000Y-121620000D02*
X146000000Y-122000000D01*
X146000000Y-122000000D02*
X150620000Y-122000000D01*
X145620000Y-117000000D02*
X145620000Y-121620000D01*
X118000000Y-117000000D02*
X145620000Y-117000000D01*
X150620000Y-122000000D02*
X153080000Y-124460000D01*
%TO.N,Net-(J1-Pin_10)*%
X147000000Y-116500000D02*
X147000000Y-120000000D01*
X147000000Y-120000000D02*
X148000000Y-121000000D01*
%TD*%
%TA.AperFunction,Conductor*%
%TO.N,GND*%
G36*
X174442539Y-103020185D02*
G01*
X174488294Y-103072989D01*
X174499500Y-103124500D01*
X174499500Y-130375500D01*
X174479815Y-130442539D01*
X174427011Y-130488294D01*
X174375500Y-130499500D01*
X111124500Y-130499500D01*
X111057461Y-130479815D01*
X111011706Y-130427011D01*
X111000500Y-130375500D01*
X111000500Y-119265006D01*
X113619700Y-119265006D01*
X113638864Y-119496297D01*
X113638866Y-119496308D01*
X113695842Y-119721300D01*
X113789075Y-119933848D01*
X113916016Y-120128147D01*
X113916019Y-120128151D01*
X113916021Y-120128153D01*
X114073216Y-120298913D01*
X114073219Y-120298915D01*
X114073222Y-120298918D01*
X114256365Y-120441464D01*
X114256371Y-120441468D01*
X114256374Y-120441470D01*
X114460497Y-120551936D01*
X114501546Y-120566028D01*
X114680015Y-120627297D01*
X114680017Y-120627297D01*
X114680019Y-120627298D01*
X114908951Y-120665500D01*
X114908952Y-120665500D01*
X115141048Y-120665500D01*
X115141049Y-120665500D01*
X115369981Y-120627298D01*
X115589503Y-120551936D01*
X115793626Y-120441470D01*
X115976784Y-120298913D01*
X115984271Y-120290779D01*
X116044156Y-120254790D01*
X116113994Y-120256889D01*
X116171611Y-120296413D01*
X116198713Y-120360812D01*
X116199500Y-120374763D01*
X116199500Y-123078846D01*
X116230261Y-123233489D01*
X116230264Y-123233501D01*
X116290602Y-123379172D01*
X116290609Y-123379185D01*
X116378210Y-123510288D01*
X116378213Y-123510292D01*
X117962945Y-125095023D01*
X119370184Y-126502262D01*
X119497738Y-126629816D01*
X119563096Y-126670883D01*
X119563131Y-126670905D01*
X119566040Y-126672790D01*
X119620821Y-126709394D01*
X119621606Y-126709719D01*
X119640134Y-126719289D01*
X119650478Y-126725789D01*
X119711114Y-126747006D01*
X119717611Y-126749486D01*
X119766503Y-126769738D01*
X119766510Y-126769739D01*
X119766512Y-126769740D01*
X119780142Y-126772451D01*
X119796907Y-126777026D01*
X119820745Y-126785368D01*
X119871711Y-126791109D01*
X119881998Y-126792710D01*
X119899562Y-126796204D01*
X119921155Y-126800500D01*
X119921158Y-126800500D01*
X119948085Y-126800500D01*
X119961969Y-126801280D01*
X119999998Y-126805565D01*
X120000000Y-126805565D01*
X120000002Y-126805565D01*
X120038031Y-126801280D01*
X120051915Y-126800500D01*
X120078845Y-126800500D01*
X120091003Y-126798080D01*
X120118009Y-126792708D01*
X120128285Y-126791110D01*
X120179255Y-126785368D01*
X120203095Y-126777025D01*
X120219845Y-126772452D01*
X120233497Y-126769738D01*
X120282407Y-126749477D01*
X120288837Y-126747022D01*
X120349522Y-126725789D01*
X120359868Y-126719287D01*
X120378390Y-126709720D01*
X120379179Y-126709394D01*
X120433987Y-126672771D01*
X120436825Y-126670931D01*
X120502262Y-126629816D01*
X120629816Y-126502262D01*
X120670931Y-126436825D01*
X120672777Y-126433979D01*
X120709389Y-126379186D01*
X120709394Y-126379179D01*
X120709720Y-126378390D01*
X120719287Y-126359868D01*
X120725789Y-126349522D01*
X120747022Y-126288837D01*
X120749477Y-126282407D01*
X120769738Y-126233497D01*
X120772452Y-126219845D01*
X120777025Y-126203095D01*
X120785368Y-126179255D01*
X120791110Y-126128285D01*
X120792708Y-126118009D01*
X120800500Y-126078843D01*
X120800500Y-126051914D01*
X120801280Y-126038029D01*
X120805565Y-126000001D01*
X120805565Y-125999998D01*
X120801280Y-125961969D01*
X120800500Y-125948085D01*
X120800500Y-125921154D01*
X120792712Y-125882010D01*
X120791109Y-125871711D01*
X120785368Y-125820745D01*
X120777026Y-125796907D01*
X120772451Y-125780142D01*
X120769740Y-125766512D01*
X120769739Y-125766510D01*
X120769738Y-125766503D01*
X120749486Y-125717611D01*
X120747006Y-125711114D01*
X120745848Y-125707804D01*
X120725789Y-125650478D01*
X120719289Y-125640134D01*
X120709719Y-125621606D01*
X120709394Y-125620821D01*
X120672790Y-125566040D01*
X120670905Y-125563131D01*
X120640442Y-125514649D01*
X120629816Y-125497738D01*
X120502262Y-125370184D01*
X117836819Y-122704741D01*
X117803334Y-122643418D01*
X117800500Y-122617060D01*
X117800500Y-117924500D01*
X117820185Y-117857461D01*
X117872989Y-117811706D01*
X117924500Y-117800500D01*
X117948085Y-117800500D01*
X117961969Y-117801280D01*
X117999998Y-117805565D01*
X118000000Y-117805565D01*
X118000002Y-117805565D01*
X118038031Y-117801280D01*
X118051915Y-117800500D01*
X135269988Y-117800500D01*
X135337027Y-117820185D01*
X135382782Y-117872989D01*
X135392726Y-117942147D01*
X135371806Y-117990535D01*
X135373888Y-117991843D01*
X135329092Y-118063132D01*
X135327204Y-118066047D01*
X135290604Y-118120824D01*
X135290600Y-118120832D01*
X135290266Y-118121639D01*
X135280713Y-118140127D01*
X135274212Y-118150474D01*
X135274210Y-118150477D01*
X135252982Y-118211140D01*
X135250504Y-118217631D01*
X135230264Y-118266496D01*
X135230263Y-118266502D01*
X135227550Y-118280140D01*
X135222975Y-118296898D01*
X135214634Y-118320735D01*
X135214632Y-118320742D01*
X135208890Y-118371696D01*
X135207288Y-118381994D01*
X135199500Y-118421152D01*
X135199500Y-118448085D01*
X135198720Y-118461969D01*
X135194435Y-118499998D01*
X135194435Y-118500001D01*
X135198720Y-118538029D01*
X135199500Y-118551914D01*
X135199500Y-118578844D01*
X135207288Y-118618003D01*
X135208890Y-118628303D01*
X135214632Y-118679252D01*
X135214633Y-118679260D01*
X135222976Y-118703104D01*
X135227550Y-118719860D01*
X135230262Y-118733496D01*
X135238336Y-118752988D01*
X135249861Y-118780814D01*
X135250509Y-118782377D01*
X135252986Y-118788867D01*
X135266401Y-118827204D01*
X135274212Y-118849524D01*
X135280709Y-118859865D01*
X135290268Y-118878365D01*
X135290603Y-118879173D01*
X135290605Y-118879179D01*
X135327223Y-118933982D01*
X135329114Y-118936900D01*
X135370180Y-119002257D01*
X135370182Y-119002260D01*
X135370184Y-119002262D01*
X135497738Y-119129816D01*
X135563131Y-119170905D01*
X135566040Y-119172790D01*
X135620821Y-119209394D01*
X135621606Y-119209719D01*
X135640134Y-119219289D01*
X135650478Y-119225789D01*
X135711175Y-119247028D01*
X135717607Y-119249484D01*
X135746021Y-119261253D01*
X135766497Y-119269735D01*
X135766498Y-119269735D01*
X135766503Y-119269737D01*
X135780139Y-119272449D01*
X135796898Y-119277023D01*
X135820745Y-119285368D01*
X135871714Y-119291110D01*
X135881992Y-119292709D01*
X135909140Y-119298109D01*
X135921157Y-119300500D01*
X135921158Y-119300500D01*
X135948085Y-119300500D01*
X135961969Y-119301280D01*
X135999998Y-119305565D01*
X136000000Y-119305565D01*
X136000002Y-119305565D01*
X136038031Y-119301280D01*
X136051915Y-119300500D01*
X137378844Y-119300500D01*
X137378845Y-119300499D01*
X137533497Y-119269737D01*
X137679179Y-119209394D01*
X137810289Y-119121789D01*
X138621788Y-118310290D01*
X138629816Y-118302262D01*
X138670943Y-118236806D01*
X138672761Y-118234001D01*
X138709393Y-118179179D01*
X138709719Y-118178389D01*
X138719293Y-118159859D01*
X138725188Y-118150478D01*
X138725789Y-118149522D01*
X138747020Y-118088843D01*
X138749494Y-118082365D01*
X138757461Y-118063132D01*
X138769737Y-118033498D01*
X138772450Y-118019855D01*
X138777021Y-118003107D01*
X138785368Y-117979255D01*
X138791111Y-117928282D01*
X138792708Y-117918011D01*
X138796230Y-117900305D01*
X138828616Y-117838397D01*
X138889332Y-117803823D01*
X138917847Y-117800500D01*
X144695500Y-117800500D01*
X144762539Y-117820185D01*
X144808294Y-117872989D01*
X144819500Y-117924500D01*
X144819500Y-121698846D01*
X144850261Y-121853489D01*
X144850264Y-121853501D01*
X144910602Y-121999172D01*
X144910609Y-121999185D01*
X144998210Y-122130288D01*
X144998213Y-122130292D01*
X145378211Y-122510289D01*
X145447737Y-122579815D01*
X145489712Y-122621790D01*
X145620814Y-122709390D01*
X145620827Y-122709397D01*
X145766498Y-122769735D01*
X145766503Y-122769737D01*
X145766507Y-122769737D01*
X145766508Y-122769738D01*
X145921154Y-122800500D01*
X145921157Y-122800500D01*
X145921158Y-122800500D01*
X150237060Y-122800500D01*
X150304099Y-122820185D01*
X150324741Y-122836819D01*
X150400026Y-122912104D01*
X150433511Y-122973427D01*
X150428527Y-123043119D01*
X150386655Y-123099052D01*
X150323154Y-123123313D01*
X150304596Y-123124936D01*
X150304586Y-123124938D01*
X150076344Y-123186094D01*
X150076335Y-123186098D01*
X149862171Y-123285964D01*
X149862169Y-123285965D01*
X149668597Y-123421505D01*
X149501505Y-123588597D01*
X149371575Y-123774158D01*
X149316998Y-123817783D01*
X149247500Y-123824977D01*
X149185145Y-123793454D01*
X149168425Y-123774158D01*
X149038494Y-123588597D01*
X148871402Y-123421506D01*
X148871395Y-123421501D01*
X148677834Y-123285967D01*
X148677830Y-123285965D01*
X148581975Y-123241267D01*
X148463663Y-123186097D01*
X148463659Y-123186096D01*
X148463655Y-123186094D01*
X148235413Y-123124938D01*
X148235403Y-123124936D01*
X148000001Y-123104341D01*
X147999999Y-123104341D01*
X147764596Y-123124936D01*
X147764586Y-123124938D01*
X147536344Y-123186094D01*
X147536335Y-123186098D01*
X147322171Y-123285964D01*
X147322169Y-123285965D01*
X147128597Y-123421505D01*
X146961505Y-123588597D01*
X146831575Y-123774158D01*
X146776998Y-123817783D01*
X146707500Y-123824977D01*
X146645145Y-123793454D01*
X146628425Y-123774158D01*
X146498494Y-123588597D01*
X146331402Y-123421506D01*
X146331395Y-123421501D01*
X146137834Y-123285967D01*
X146137830Y-123285965D01*
X146041975Y-123241267D01*
X145923663Y-123186097D01*
X145923659Y-123186096D01*
X145923655Y-123186094D01*
X145695413Y-123124938D01*
X145695403Y-123124936D01*
X145460001Y-123104341D01*
X145459999Y-123104341D01*
X145224596Y-123124936D01*
X145224586Y-123124938D01*
X144996344Y-123186094D01*
X144996335Y-123186098D01*
X144782171Y-123285964D01*
X144782169Y-123285965D01*
X144588597Y-123421505D01*
X144421505Y-123588597D01*
X144291575Y-123774158D01*
X144236998Y-123817783D01*
X144167500Y-123824977D01*
X144105145Y-123793454D01*
X144088425Y-123774158D01*
X143958494Y-123588597D01*
X143791402Y-123421506D01*
X143791395Y-123421501D01*
X143597834Y-123285967D01*
X143597830Y-123285965D01*
X143501975Y-123241267D01*
X143383663Y-123186097D01*
X143383659Y-123186096D01*
X143383655Y-123186094D01*
X143155413Y-123124938D01*
X143155403Y-123124936D01*
X142920001Y-123104341D01*
X142919999Y-123104341D01*
X142684596Y-123124936D01*
X142684586Y-123124938D01*
X142456344Y-123186094D01*
X142456335Y-123186098D01*
X142242171Y-123285964D01*
X142242169Y-123285965D01*
X142048597Y-123421505D01*
X141881505Y-123588597D01*
X141751575Y-123774158D01*
X141696998Y-123817783D01*
X141627500Y-123824977D01*
X141565145Y-123793454D01*
X141548425Y-123774158D01*
X141418494Y-123588597D01*
X141251402Y-123421506D01*
X141251395Y-123421501D01*
X141057834Y-123285967D01*
X141057830Y-123285965D01*
X140961975Y-123241267D01*
X140843663Y-123186097D01*
X140843659Y-123186096D01*
X140843655Y-123186094D01*
X140615413Y-123124938D01*
X140615403Y-123124936D01*
X140380001Y-123104341D01*
X140379999Y-123104341D01*
X140144596Y-123124936D01*
X140144586Y-123124938D01*
X139916344Y-123186094D01*
X139916335Y-123186098D01*
X139702171Y-123285964D01*
X139702169Y-123285965D01*
X139508597Y-123421505D01*
X139341505Y-123588597D01*
X139211575Y-123774158D01*
X139156998Y-123817783D01*
X139087500Y-123824977D01*
X139025145Y-123793454D01*
X139008425Y-123774158D01*
X138878494Y-123588597D01*
X138711402Y-123421506D01*
X138711395Y-123421501D01*
X138517834Y-123285967D01*
X138517830Y-123285965D01*
X138421975Y-123241267D01*
X138303663Y-123186097D01*
X138303659Y-123186096D01*
X138303655Y-123186094D01*
X138075413Y-123124938D01*
X138075403Y-123124936D01*
X137840001Y-123104341D01*
X137839999Y-123104341D01*
X137604596Y-123124936D01*
X137604586Y-123124938D01*
X137376344Y-123186094D01*
X137376335Y-123186098D01*
X137162171Y-123285964D01*
X137162169Y-123285965D01*
X136968597Y-123421505D01*
X136801505Y-123588597D01*
X136671575Y-123774158D01*
X136616998Y-123817783D01*
X136547500Y-123824977D01*
X136485145Y-123793454D01*
X136468425Y-123774158D01*
X136338494Y-123588597D01*
X136171402Y-123421506D01*
X136171395Y-123421501D01*
X135977834Y-123285967D01*
X135977830Y-123285965D01*
X135881975Y-123241267D01*
X135763663Y-123186097D01*
X135763659Y-123186096D01*
X135763655Y-123186094D01*
X135535413Y-123124938D01*
X135535403Y-123124936D01*
X135300001Y-123104341D01*
X135299999Y-123104341D01*
X135064596Y-123124936D01*
X135064586Y-123124938D01*
X134836344Y-123186094D01*
X134836335Y-123186098D01*
X134622171Y-123285964D01*
X134622169Y-123285965D01*
X134428597Y-123421505D01*
X134261505Y-123588597D01*
X134131575Y-123774158D01*
X134076998Y-123817783D01*
X134007500Y-123824977D01*
X133945145Y-123793454D01*
X133928425Y-123774158D01*
X133798494Y-123588597D01*
X133631402Y-123421506D01*
X133631395Y-123421501D01*
X133437834Y-123285967D01*
X133437830Y-123285965D01*
X133341975Y-123241267D01*
X133223663Y-123186097D01*
X133223659Y-123186096D01*
X133223655Y-123186094D01*
X132995413Y-123124938D01*
X132995403Y-123124936D01*
X132760001Y-123104341D01*
X132759999Y-123104341D01*
X132524596Y-123124936D01*
X132524586Y-123124938D01*
X132296344Y-123186094D01*
X132296335Y-123186098D01*
X132082171Y-123285964D01*
X132082169Y-123285965D01*
X131888597Y-123421505D01*
X131721505Y-123588597D01*
X131591575Y-123774158D01*
X131536998Y-123817783D01*
X131467500Y-123824977D01*
X131405145Y-123793454D01*
X131388425Y-123774158D01*
X131258494Y-123588597D01*
X131091402Y-123421506D01*
X131091395Y-123421501D01*
X130897834Y-123285967D01*
X130897830Y-123285965D01*
X130801975Y-123241267D01*
X130683663Y-123186097D01*
X130683659Y-123186096D01*
X130683655Y-123186094D01*
X130455413Y-123124938D01*
X130455403Y-123124936D01*
X130220001Y-123104341D01*
X130219999Y-123104341D01*
X129984596Y-123124936D01*
X129984586Y-123124938D01*
X129756344Y-123186094D01*
X129756335Y-123186098D01*
X129542171Y-123285964D01*
X129542169Y-123285965D01*
X129348597Y-123421505D01*
X129181505Y-123588597D01*
X129051575Y-123774158D01*
X128996998Y-123817783D01*
X128927500Y-123824977D01*
X128865145Y-123793454D01*
X128848425Y-123774158D01*
X128718494Y-123588597D01*
X128551402Y-123421506D01*
X128551395Y-123421501D01*
X128357834Y-123285967D01*
X128357830Y-123285965D01*
X128261975Y-123241267D01*
X128143663Y-123186097D01*
X128143659Y-123186096D01*
X128143655Y-123186094D01*
X127915413Y-123124938D01*
X127915403Y-123124936D01*
X127680001Y-123104341D01*
X127679999Y-123104341D01*
X127444596Y-123124936D01*
X127444583Y-123124939D01*
X127294027Y-123165279D01*
X127224178Y-123163616D01*
X127166315Y-123124453D01*
X127138812Y-123060224D01*
X127150399Y-122991322D01*
X127174251Y-122957826D01*
X128621789Y-121510289D01*
X128629816Y-121502262D01*
X128670931Y-121436825D01*
X128672777Y-121433979D01*
X128709389Y-121379186D01*
X128709394Y-121379179D01*
X128709720Y-121378390D01*
X128719287Y-121359868D01*
X128725789Y-121349522D01*
X128747022Y-121288837D01*
X128749477Y-121282407D01*
X128769738Y-121233497D01*
X128772449Y-121219860D01*
X128777025Y-121203096D01*
X128785368Y-121179255D01*
X128791109Y-121128287D01*
X128792709Y-121118004D01*
X128800500Y-121078842D01*
X128800500Y-121051914D01*
X128801280Y-121038029D01*
X128805565Y-121000001D01*
X128805565Y-120999998D01*
X128801280Y-120961969D01*
X128800500Y-120948085D01*
X128800500Y-120921157D01*
X128796545Y-120901277D01*
X128792708Y-120881987D01*
X128791109Y-120871703D01*
X128785368Y-120820745D01*
X128777027Y-120796909D01*
X128772453Y-120780150D01*
X128770609Y-120770885D01*
X128769738Y-120766502D01*
X128749479Y-120717593D01*
X128747015Y-120711140D01*
X128725789Y-120650478D01*
X128725787Y-120650475D01*
X128725787Y-120650474D01*
X128722749Y-120645640D01*
X128719293Y-120640140D01*
X128709721Y-120621610D01*
X128709394Y-120620821D01*
X128672776Y-120566019D01*
X128670890Y-120563108D01*
X128664274Y-120552578D01*
X128629816Y-120497738D01*
X128626129Y-120494051D01*
X128626109Y-120494029D01*
X128507194Y-120375114D01*
X128507163Y-120375085D01*
X128502262Y-120370184D01*
X128436874Y-120329098D01*
X128433955Y-120327206D01*
X128379184Y-120290609D01*
X128379181Y-120290607D01*
X128379179Y-120290606D01*
X128379176Y-120290604D01*
X128379169Y-120290601D01*
X128378381Y-120290275D01*
X128359862Y-120280708D01*
X128349523Y-120274211D01*
X128288876Y-120252989D01*
X128282382Y-120250510D01*
X128274247Y-120247140D01*
X128233498Y-120230262D01*
X128233496Y-120230261D01*
X128233493Y-120230260D01*
X128219841Y-120227544D01*
X128203093Y-120222972D01*
X128179258Y-120214632D01*
X128179248Y-120214630D01*
X128128315Y-120208892D01*
X128118009Y-120207290D01*
X128078843Y-120199500D01*
X128051915Y-120199500D01*
X128038031Y-120198720D01*
X128000002Y-120194435D01*
X127999998Y-120194435D01*
X127961969Y-120198720D01*
X127948085Y-120199500D01*
X127921158Y-120199500D01*
X127881991Y-120207290D01*
X127871685Y-120208892D01*
X127820751Y-120214630D01*
X127820741Y-120214632D01*
X127796904Y-120222973D01*
X127780150Y-120227547D01*
X127766503Y-120230261D01*
X127717619Y-120250509D01*
X127711126Y-120252988D01*
X127650481Y-120274209D01*
X127650469Y-120274215D01*
X127640127Y-120280713D01*
X127621639Y-120290266D01*
X127620832Y-120290600D01*
X127620824Y-120290604D01*
X127566047Y-120327204D01*
X127563132Y-120329092D01*
X127497742Y-120370180D01*
X127497735Y-120370186D01*
X126656610Y-121211312D01*
X125819711Y-122048211D01*
X125763960Y-122103962D01*
X125708209Y-122159712D01*
X125620609Y-122290814D01*
X125620602Y-122290827D01*
X125560264Y-122436498D01*
X125560261Y-122436510D01*
X125529500Y-122591153D01*
X125529500Y-128408846D01*
X125560261Y-128563489D01*
X125560264Y-128563501D01*
X125620602Y-128709172D01*
X125620609Y-128709185D01*
X125708210Y-128840288D01*
X125708212Y-128840291D01*
X125728209Y-128860287D01*
X125728211Y-128860289D01*
X125839708Y-128971786D01*
X125839712Y-128971790D01*
X125970814Y-129059390D01*
X125970827Y-129059397D01*
X126116498Y-129119735D01*
X126116503Y-129119737D01*
X126116507Y-129119737D01*
X126116508Y-129119738D01*
X126271154Y-129150500D01*
X126271157Y-129150500D01*
X154348844Y-129150500D01*
X154348845Y-129150499D01*
X154503497Y-129119737D01*
X154649179Y-129059394D01*
X154780289Y-128971789D01*
X155373521Y-128378555D01*
X155434842Y-128345072D01*
X155472002Y-128342710D01*
X155620000Y-128355659D01*
X155620001Y-128355659D01*
X155678966Y-128350500D01*
X155855408Y-128335063D01*
X156083663Y-128273903D01*
X156297830Y-128174035D01*
X156491401Y-128038495D01*
X156658495Y-127871401D01*
X156788730Y-127685405D01*
X156843307Y-127641781D01*
X156912805Y-127634587D01*
X156975160Y-127666110D01*
X156991879Y-127685405D01*
X157121890Y-127871078D01*
X157288917Y-128038105D01*
X157482421Y-128173600D01*
X157696507Y-128273429D01*
X157696516Y-128273433D01*
X157910000Y-128330634D01*
X157910000Y-127433012D01*
X157967007Y-127465925D01*
X158094174Y-127500000D01*
X158225826Y-127500000D01*
X158352993Y-127465925D01*
X158410000Y-127433012D01*
X158410000Y-128330633D01*
X158623483Y-128273433D01*
X158623492Y-128273429D01*
X158837578Y-128173600D01*
X159031078Y-128038108D01*
X159153133Y-127916053D01*
X159214456Y-127882568D01*
X159284148Y-127887552D01*
X159340082Y-127929423D01*
X159356997Y-127960401D01*
X159406202Y-128092328D01*
X159406206Y-128092335D01*
X159492452Y-128207544D01*
X159492455Y-128207547D01*
X159607664Y-128293793D01*
X159607671Y-128293797D01*
X159742517Y-128344091D01*
X159742516Y-128344091D01*
X159749444Y-128344835D01*
X159802127Y-128350500D01*
X161597872Y-128350499D01*
X161657483Y-128344091D01*
X161792331Y-128293796D01*
X161907546Y-128207546D01*
X161993796Y-128092331D01*
X162044091Y-127957483D01*
X162050500Y-127897873D01*
X162050499Y-126102128D01*
X162044091Y-126042517D01*
X162043002Y-126039598D01*
X161993797Y-125907671D01*
X161993793Y-125907664D01*
X161907547Y-125792455D01*
X161907544Y-125792452D01*
X161792335Y-125706206D01*
X161792328Y-125706202D01*
X161660917Y-125657189D01*
X161604983Y-125615318D01*
X161580566Y-125549853D01*
X161595418Y-125481580D01*
X161616563Y-125453332D01*
X161738495Y-125331401D01*
X161874035Y-125137830D01*
X161973903Y-124923663D01*
X162035063Y-124695408D01*
X162055659Y-124460000D01*
X162035063Y-124224592D01*
X161973903Y-123996337D01*
X161930033Y-123902260D01*
X161919542Y-123833184D01*
X161948061Y-123769400D01*
X162006538Y-123731160D01*
X162076405Y-123730605D01*
X162130097Y-123762175D01*
X162278211Y-123910289D01*
X162389711Y-124021789D01*
X162520821Y-124109394D01*
X162623833Y-124152062D01*
X162666502Y-124169737D01*
X162821152Y-124200499D01*
X162821155Y-124200500D01*
X162821157Y-124200500D01*
X166658743Y-124200500D01*
X166658744Y-124200499D01*
X166813396Y-124169737D01*
X166959078Y-124109394D01*
X167090188Y-124021789D01*
X169121789Y-121990188D01*
X169209394Y-121859078D01*
X169269737Y-121713396D01*
X169300500Y-121558741D01*
X169300500Y-121401057D01*
X169300500Y-120051914D01*
X169301280Y-120038029D01*
X169305565Y-120000001D01*
X169305565Y-119999998D01*
X169301280Y-119961969D01*
X169300500Y-119948085D01*
X169300500Y-119081155D01*
X169300499Y-119081153D01*
X169291058Y-119033691D01*
X169269737Y-118926503D01*
X169250135Y-118879179D01*
X169209397Y-118780827D01*
X169209390Y-118780814D01*
X169121790Y-118649712D01*
X169068229Y-118596151D01*
X169010289Y-118538211D01*
X168462613Y-117990535D01*
X167910292Y-117438213D01*
X167910288Y-117438210D01*
X167779185Y-117350609D01*
X167779172Y-117350602D01*
X167633501Y-117290264D01*
X167633489Y-117290261D01*
X167478845Y-117259500D01*
X167478842Y-117259500D01*
X167321158Y-117259500D01*
X167321155Y-117259500D01*
X167166510Y-117290261D01*
X167166498Y-117290264D01*
X167020827Y-117350602D01*
X167020814Y-117350609D01*
X166889711Y-117438210D01*
X166889707Y-117438213D01*
X166778213Y-117549707D01*
X166778210Y-117549711D01*
X166690609Y-117680814D01*
X166690602Y-117680827D01*
X166630264Y-117826498D01*
X166630261Y-117826510D01*
X166599500Y-117981153D01*
X166599500Y-118138846D01*
X166626013Y-118272134D01*
X166619786Y-118341725D01*
X166576923Y-118396903D01*
X166511033Y-118420147D01*
X166464134Y-118413606D01*
X166344986Y-118372702D01*
X166154204Y-118340867D01*
X166116049Y-118334500D01*
X165883951Y-118334500D01*
X165840654Y-118341725D01*
X165655015Y-118372702D01*
X165435504Y-118448061D01*
X165435495Y-118448064D01*
X165231371Y-118558531D01*
X165231365Y-118558535D01*
X165048222Y-118701081D01*
X165048219Y-118701084D01*
X165048216Y-118701086D01*
X165048216Y-118701087D01*
X164973384Y-118782377D01*
X164891019Y-118871849D01*
X164886791Y-118878321D01*
X164833645Y-118923678D01*
X164782982Y-118934500D01*
X161117940Y-118934500D01*
X161050901Y-118914815D01*
X161030259Y-118898181D01*
X159210292Y-117078213D01*
X159210288Y-117078210D01*
X159079185Y-116990609D01*
X159079172Y-116990602D01*
X158933501Y-116930264D01*
X158933489Y-116930261D01*
X158778845Y-116899500D01*
X158778842Y-116899500D01*
X157747473Y-116899500D01*
X157589788Y-116899500D01*
X157589783Y-116899500D01*
X157435140Y-116930260D01*
X157435132Y-116930262D01*
X157289454Y-116990604D01*
X157289444Y-116990609D01*
X157158341Y-117078210D01*
X157158337Y-117078213D01*
X156711995Y-117524555D01*
X156650672Y-117558040D01*
X156580980Y-117553056D01*
X156536633Y-117524555D01*
X156450292Y-117438214D01*
X156450288Y-117438211D01*
X156319185Y-117350610D01*
X156319175Y-117350605D01*
X156173497Y-117290263D01*
X156173489Y-117290261D01*
X156018845Y-117259500D01*
X156018842Y-117259500D01*
X155924500Y-117259500D01*
X155857461Y-117239815D01*
X155811706Y-117187011D01*
X155800500Y-117135500D01*
X155800500Y-115000000D01*
X167865661Y-115000000D01*
X167884974Y-115208429D01*
X167884974Y-115208431D01*
X167884975Y-115208434D01*
X167902418Y-115269739D01*
X167942259Y-115409769D01*
X168035562Y-115597147D01*
X168035567Y-115597155D01*
X168161714Y-115764201D01*
X168290928Y-115881994D01*
X168316408Y-115905222D01*
X168494382Y-116015419D01*
X168494383Y-116015419D01*
X168494384Y-116015420D01*
X168535734Y-116031439D01*
X168689573Y-116091036D01*
X168895336Y-116129500D01*
X168895338Y-116129500D01*
X169104662Y-116129500D01*
X169104664Y-116129500D01*
X169310427Y-116091036D01*
X169505618Y-116015419D01*
X169683592Y-115905222D01*
X169827304Y-115774211D01*
X169838285Y-115764201D01*
X169844066Y-115756547D01*
X169964434Y-115597153D01*
X170057740Y-115409771D01*
X170115025Y-115208434D01*
X170134339Y-115000000D01*
X170115025Y-114791566D01*
X170057740Y-114590229D01*
X169973552Y-114421158D01*
X169964437Y-114402852D01*
X169964432Y-114402844D01*
X169838285Y-114235798D01*
X169683593Y-114094779D01*
X169683592Y-114094778D01*
X169505618Y-113984581D01*
X169505616Y-113984580D01*
X169505615Y-113984579D01*
X169351779Y-113924984D01*
X169310427Y-113908964D01*
X169104664Y-113870500D01*
X168895336Y-113870500D01*
X168689573Y-113908964D01*
X168689570Y-113908964D01*
X168689570Y-113908965D01*
X168494384Y-113984579D01*
X168494383Y-113984580D01*
X168316406Y-114094779D01*
X168161714Y-114235798D01*
X168035567Y-114402844D01*
X168035562Y-114402852D01*
X167942259Y-114590230D01*
X167884974Y-114791570D01*
X167865661Y-114999999D01*
X167865661Y-115000000D01*
X155800500Y-115000000D01*
X155800500Y-114421155D01*
X155800499Y-114421153D01*
X155788307Y-114359859D01*
X155769737Y-114266503D01*
X155756065Y-114233496D01*
X155709397Y-114120827D01*
X155709390Y-114120814D01*
X155621789Y-113989711D01*
X155621786Y-113989707D01*
X155510292Y-113878213D01*
X155510288Y-113878210D01*
X155379185Y-113790609D01*
X155379172Y-113790602D01*
X155233501Y-113730264D01*
X155233489Y-113730261D01*
X155078845Y-113699500D01*
X155078842Y-113699500D01*
X144407940Y-113699500D01*
X144340901Y-113679815D01*
X144320259Y-113663181D01*
X143793948Y-113136870D01*
X167870500Y-113136870D01*
X167870501Y-113136876D01*
X167876908Y-113196483D01*
X167927202Y-113331328D01*
X167927206Y-113331335D01*
X168013452Y-113446544D01*
X168013455Y-113446547D01*
X168128664Y-113532793D01*
X168128671Y-113532797D01*
X168263517Y-113583091D01*
X168263516Y-113583091D01*
X168270444Y-113583835D01*
X168323127Y-113589500D01*
X169676872Y-113589499D01*
X169736483Y-113583091D01*
X169871331Y-113532796D01*
X169986546Y-113446546D01*
X170072796Y-113331331D01*
X170123091Y-113196483D01*
X170129500Y-113136873D01*
X170129499Y-111783128D01*
X170123091Y-111723517D01*
X170121517Y-111719298D01*
X170072797Y-111588671D01*
X170072793Y-111588664D01*
X169986547Y-111473455D01*
X169986544Y-111473452D01*
X169871335Y-111387206D01*
X169871328Y-111387202D01*
X169736482Y-111336908D01*
X169736483Y-111336908D01*
X169676883Y-111330501D01*
X169676881Y-111330500D01*
X169676873Y-111330500D01*
X169676864Y-111330500D01*
X168323129Y-111330500D01*
X168323123Y-111330501D01*
X168263516Y-111336908D01*
X168128671Y-111387202D01*
X168128664Y-111387206D01*
X168013455Y-111473452D01*
X168013452Y-111473455D01*
X167927206Y-111588664D01*
X167927202Y-111588671D01*
X167876908Y-111723517D01*
X167870822Y-111780132D01*
X167870501Y-111783123D01*
X167870500Y-111783135D01*
X167870500Y-113136870D01*
X143793948Y-113136870D01*
X143669259Y-113012181D01*
X143635774Y-112950858D01*
X143640758Y-112881166D01*
X143682630Y-112825233D01*
X143748094Y-112800816D01*
X143756940Y-112800500D01*
X151948085Y-112800500D01*
X151961969Y-112801280D01*
X151999998Y-112805565D01*
X152000000Y-112805565D01*
X152000002Y-112805565D01*
X152038031Y-112801280D01*
X152051915Y-112800500D01*
X152078841Y-112800500D01*
X152078842Y-112800500D01*
X152118017Y-112792707D01*
X152128283Y-112791110D01*
X152179255Y-112785368D01*
X152203100Y-112777023D01*
X152219862Y-112772448D01*
X152233497Y-112769737D01*
X152282389Y-112749484D01*
X152288837Y-112747023D01*
X152349522Y-112725789D01*
X152359868Y-112719287D01*
X152378390Y-112709720D01*
X152379179Y-112709394D01*
X152433987Y-112672771D01*
X152436825Y-112670931D01*
X152502262Y-112629816D01*
X152629816Y-112502262D01*
X152670931Y-112436825D01*
X152672777Y-112433979D01*
X152709389Y-112379186D01*
X152709394Y-112379179D01*
X152709720Y-112378390D01*
X152719287Y-112359868D01*
X152725789Y-112349522D01*
X152747023Y-112288837D01*
X152749484Y-112282389D01*
X152769737Y-112233497D01*
X152772448Y-112219862D01*
X152777023Y-112203100D01*
X152785368Y-112179255D01*
X152791110Y-112128283D01*
X152792707Y-112118017D01*
X152800500Y-112078842D01*
X152800500Y-112051914D01*
X152801280Y-112038029D01*
X152805565Y-112000001D01*
X152805565Y-111999998D01*
X152801280Y-111961969D01*
X152800500Y-111948085D01*
X152800500Y-111921157D01*
X152792711Y-111882003D01*
X152791110Y-111871714D01*
X152785368Y-111820745D01*
X152777023Y-111796898D01*
X152772449Y-111780139D01*
X152769737Y-111766503D01*
X152749484Y-111717607D01*
X152747028Y-111711175D01*
X152725789Y-111650478D01*
X152719289Y-111640134D01*
X152709719Y-111621606D01*
X152709394Y-111620821D01*
X152672790Y-111566040D01*
X152670905Y-111563131D01*
X152637700Y-111510286D01*
X152629816Y-111497738D01*
X152502262Y-111370184D01*
X152502260Y-111370182D01*
X152502257Y-111370180D01*
X152444072Y-111333620D01*
X152436894Y-111329110D01*
X152433982Y-111327223D01*
X152379179Y-111290605D01*
X152379173Y-111290603D01*
X152378365Y-111290268D01*
X152359865Y-111280709D01*
X152349524Y-111274212D01*
X152349523Y-111274211D01*
X152349522Y-111274211D01*
X152288867Y-111252986D01*
X152282377Y-111250509D01*
X152227869Y-111227932D01*
X152228561Y-111226260D01*
X152177240Y-111192623D01*
X152148787Y-111128809D01*
X152155497Y-111068931D01*
X152169090Y-111032485D01*
X152169091Y-111032483D01*
X152172583Y-111000000D01*
X152175500Y-110972873D01*
X152175499Y-109077128D01*
X152169091Y-109017517D01*
X152168308Y-109015419D01*
X152118797Y-108882671D01*
X152118793Y-108882664D01*
X152032547Y-108767455D01*
X152032544Y-108767452D01*
X151917335Y-108681206D01*
X151917328Y-108681202D01*
X151782482Y-108630908D01*
X151782483Y-108630908D01*
X151722883Y-108624501D01*
X151722881Y-108624500D01*
X151722873Y-108624500D01*
X151722864Y-108624500D01*
X149827129Y-108624500D01*
X149827123Y-108624501D01*
X149767516Y-108630908D01*
X149632671Y-108681202D01*
X149632664Y-108681206D01*
X149517455Y-108767452D01*
X149517452Y-108767455D01*
X149431206Y-108882664D01*
X149431203Y-108882670D01*
X149402544Y-108959508D01*
X149360672Y-109015441D01*
X149295208Y-109039858D01*
X149226935Y-109025006D01*
X149195135Y-109000158D01*
X149186784Y-108991087D01*
X149186778Y-108991082D01*
X149186777Y-108991081D01*
X149003634Y-108848535D01*
X149003628Y-108848531D01*
X148799504Y-108738064D01*
X148799495Y-108738061D01*
X148579984Y-108662702D01*
X148389450Y-108630908D01*
X148351049Y-108624500D01*
X148118951Y-108624500D01*
X148080550Y-108630908D01*
X147890015Y-108662702D01*
X147670504Y-108738061D01*
X147670495Y-108738064D01*
X147466371Y-108848531D01*
X147466365Y-108848535D01*
X147283222Y-108991081D01*
X147283219Y-108991084D01*
X147283216Y-108991086D01*
X147283216Y-108991087D01*
X147238319Y-109039858D01*
X147126016Y-109161852D01*
X146999075Y-109356151D01*
X146905842Y-109568699D01*
X146848866Y-109793691D01*
X146848864Y-109793702D01*
X146829700Y-110024993D01*
X146829700Y-110025006D01*
X146848864Y-110256297D01*
X146848866Y-110256308D01*
X146905842Y-110481300D01*
X146999075Y-110693848D01*
X147126016Y-110888147D01*
X147126019Y-110888151D01*
X147126021Y-110888153D01*
X147221176Y-110991519D01*
X147252097Y-111054172D01*
X147244237Y-111123598D01*
X147200089Y-111177753D01*
X147133672Y-111199444D01*
X147129945Y-111199500D01*
X136421153Y-111199500D01*
X136266510Y-111230260D01*
X136266502Y-111230262D01*
X136120824Y-111290604D01*
X136120814Y-111290609D01*
X135989711Y-111378210D01*
X135989707Y-111378213D01*
X135497738Y-111870184D01*
X135370186Y-111997735D01*
X135370180Y-111997742D01*
X135329092Y-112063132D01*
X135327204Y-112066047D01*
X135290604Y-112120824D01*
X135290600Y-112120832D01*
X135290266Y-112121639D01*
X135280713Y-112140127D01*
X135274212Y-112150474D01*
X135274210Y-112150477D01*
X135252982Y-112211140D01*
X135250504Y-112217631D01*
X135230264Y-112266496D01*
X135230263Y-112266502D01*
X135227550Y-112280140D01*
X135222975Y-112296898D01*
X135214634Y-112320735D01*
X135214632Y-112320742D01*
X135208890Y-112371696D01*
X135207288Y-112381994D01*
X135199500Y-112421152D01*
X135199500Y-112448085D01*
X135198720Y-112461969D01*
X135194435Y-112499998D01*
X135194435Y-112500001D01*
X135198720Y-112538029D01*
X135199500Y-112551914D01*
X135199500Y-112578844D01*
X135207288Y-112618003D01*
X135208890Y-112628303D01*
X135214632Y-112679252D01*
X135214633Y-112679260D01*
X135222976Y-112703104D01*
X135227550Y-112719860D01*
X135230262Y-112733496D01*
X135250509Y-112782377D01*
X135252986Y-112788867D01*
X135266383Y-112827153D01*
X135274212Y-112849524D01*
X135280709Y-112859865D01*
X135290268Y-112878365D01*
X135290603Y-112879173D01*
X135290605Y-112879179D01*
X135327223Y-112933982D01*
X135329114Y-112936900D01*
X135370180Y-113002257D01*
X135370182Y-113002260D01*
X135370184Y-113002262D01*
X135497738Y-113129816D01*
X135563096Y-113170883D01*
X135563131Y-113170905D01*
X135566040Y-113172790D01*
X135620821Y-113209394D01*
X135621606Y-113209719D01*
X135640134Y-113219289D01*
X135650478Y-113225789D01*
X135711175Y-113247028D01*
X135717607Y-113249484D01*
X135736663Y-113257377D01*
X135766497Y-113269735D01*
X135766498Y-113269735D01*
X135766503Y-113269737D01*
X135780139Y-113272449D01*
X135796898Y-113277023D01*
X135820745Y-113285368D01*
X135871714Y-113291110D01*
X135881992Y-113292709D01*
X135909140Y-113298109D01*
X135921157Y-113300500D01*
X135921158Y-113300500D01*
X135948085Y-113300500D01*
X135961969Y-113301280D01*
X135999998Y-113305565D01*
X136000000Y-113305565D01*
X136000002Y-113305565D01*
X136038031Y-113301280D01*
X136051915Y-113300500D01*
X136078841Y-113300500D01*
X136078842Y-113300500D01*
X136118017Y-113292707D01*
X136128283Y-113291110D01*
X136179255Y-113285368D01*
X136203100Y-113277023D01*
X136219862Y-113272448D01*
X136233497Y-113269737D01*
X136282389Y-113249484D01*
X136288837Y-113247023D01*
X136349522Y-113225789D01*
X136359868Y-113219287D01*
X136378390Y-113209720D01*
X136379179Y-113209394D01*
X136433987Y-113172771D01*
X136436825Y-113170931D01*
X136502262Y-113129816D01*
X136629816Y-113002262D01*
X136795259Y-112836819D01*
X136856582Y-112803334D01*
X136882940Y-112800500D01*
X141575341Y-112800500D01*
X141642380Y-112820185D01*
X141688135Y-112872989D01*
X141698560Y-112938382D01*
X141694435Y-112975000D01*
X141697506Y-113002260D01*
X141698720Y-113013029D01*
X141699500Y-113026914D01*
X141699500Y-113053844D01*
X141707288Y-113093003D01*
X141708890Y-113103303D01*
X141714632Y-113154252D01*
X141714633Y-113154260D01*
X141722976Y-113178104D01*
X141727550Y-113194860D01*
X141730262Y-113208496D01*
X141739278Y-113230262D01*
X141748688Y-113252982D01*
X141750509Y-113257377D01*
X141752986Y-113263867D01*
X141757591Y-113277027D01*
X141765734Y-113300297D01*
X141769297Y-113370076D01*
X141734568Y-113430704D01*
X141672575Y-113462931D01*
X141602999Y-113456527D01*
X141561012Y-113428934D01*
X141502260Y-113370182D01*
X141502257Y-113370180D01*
X141436854Y-113329085D01*
X141433962Y-113327211D01*
X141393985Y-113300500D01*
X141379184Y-113290610D01*
X141379181Y-113290608D01*
X141379179Y-113290607D01*
X141379175Y-113290605D01*
X141379165Y-113290600D01*
X141378375Y-113290273D01*
X141359868Y-113280712D01*
X141349522Y-113274211D01*
X141319585Y-113263735D01*
X141288856Y-113252982D01*
X141282363Y-113250503D01*
X141233497Y-113230263D01*
X141233493Y-113230262D01*
X141219860Y-113227550D01*
X141203104Y-113222976D01*
X141179260Y-113214633D01*
X141179256Y-113214632D01*
X141179255Y-113214632D01*
X141158575Y-113212301D01*
X141128303Y-113208890D01*
X141118003Y-113207288D01*
X141078844Y-113199500D01*
X141078842Y-113199500D01*
X141051915Y-113199500D01*
X141038031Y-113198720D01*
X141000002Y-113194435D01*
X140999998Y-113194435D01*
X140961969Y-113198720D01*
X140948085Y-113199500D01*
X140921152Y-113199500D01*
X140881994Y-113207288D01*
X140871696Y-113208890D01*
X140820742Y-113214632D01*
X140820739Y-113214633D01*
X140796900Y-113222975D01*
X140780139Y-113227550D01*
X140766504Y-113230262D01*
X140717627Y-113250507D01*
X140711136Y-113252984D01*
X140689414Y-113260586D01*
X140650475Y-113274212D01*
X140640127Y-113280714D01*
X140621627Y-113290272D01*
X140620825Y-113290604D01*
X140620824Y-113290604D01*
X140566035Y-113327211D01*
X140563123Y-113329098D01*
X140497738Y-113370183D01*
X140497735Y-113370186D01*
X138704741Y-115163181D01*
X138643418Y-115196666D01*
X138617060Y-115199500D01*
X132051915Y-115199500D01*
X132038031Y-115198720D01*
X132000002Y-115194435D01*
X131999998Y-115194435D01*
X131961969Y-115198720D01*
X131948085Y-115199500D01*
X131921152Y-115199500D01*
X131881994Y-115207288D01*
X131871696Y-115208890D01*
X131820742Y-115214632D01*
X131820735Y-115214634D01*
X131796898Y-115222975D01*
X131780140Y-115227550D01*
X131766502Y-115230263D01*
X131766496Y-115230264D01*
X131717631Y-115250504D01*
X131711140Y-115252982D01*
X131650477Y-115274210D01*
X131650474Y-115274212D01*
X131640127Y-115280713D01*
X131621639Y-115290266D01*
X131620832Y-115290600D01*
X131620824Y-115290604D01*
X131566047Y-115327204D01*
X131563132Y-115329092D01*
X131497742Y-115370180D01*
X131497735Y-115370186D01*
X131370186Y-115497735D01*
X131370180Y-115497742D01*
X131329092Y-115563132D01*
X131327204Y-115566047D01*
X131290604Y-115620824D01*
X131290600Y-115620832D01*
X131290266Y-115621639D01*
X131280713Y-115640127D01*
X131274212Y-115650474D01*
X131274210Y-115650477D01*
X131252982Y-115711140D01*
X131250504Y-115717631D01*
X131230264Y-115766496D01*
X131230263Y-115766502D01*
X131227550Y-115780140D01*
X131222975Y-115796898D01*
X131214634Y-115820735D01*
X131214632Y-115820742D01*
X131208890Y-115871696D01*
X131207288Y-115881994D01*
X131199500Y-115921152D01*
X131199500Y-115948085D01*
X131198720Y-115961969D01*
X131194435Y-115999998D01*
X131194435Y-116000001D01*
X131198720Y-116038029D01*
X131199500Y-116051914D01*
X131199500Y-116075500D01*
X131179815Y-116142539D01*
X131127011Y-116188294D01*
X131075500Y-116199500D01*
X118231940Y-116199500D01*
X118164901Y-116179815D01*
X118119146Y-116127011D01*
X118109202Y-116057853D01*
X118138227Y-115994297D01*
X118144259Y-115987819D01*
X120565259Y-113566819D01*
X120626582Y-113533334D01*
X120652940Y-113530500D01*
X121978800Y-113530500D01*
X122045839Y-113550185D01*
X122091594Y-113602989D01*
X122101538Y-113672147D01*
X122072513Y-113735703D01*
X122053112Y-113753766D01*
X122013452Y-113783455D01*
X121927206Y-113898664D01*
X121927202Y-113898671D01*
X121876908Y-114033517D01*
X121870501Y-114093116D01*
X121870501Y-114093123D01*
X121870500Y-114093135D01*
X121870500Y-115446870D01*
X121870501Y-115446876D01*
X121876908Y-115506483D01*
X121927202Y-115641328D01*
X121927206Y-115641335D01*
X122013452Y-115756544D01*
X122013455Y-115756547D01*
X122128664Y-115842793D01*
X122128671Y-115842797D01*
X122263517Y-115893091D01*
X122263516Y-115893091D01*
X122270444Y-115893835D01*
X122323127Y-115899500D01*
X123676872Y-115899499D01*
X123736483Y-115893091D01*
X123871331Y-115842796D01*
X123986546Y-115756546D01*
X124072796Y-115641331D01*
X124123091Y-115506483D01*
X124129500Y-115446873D01*
X124129499Y-114093128D01*
X124123091Y-114033517D01*
X124110590Y-114000001D01*
X124072797Y-113898671D01*
X124072793Y-113898664D01*
X123986547Y-113783455D01*
X123986544Y-113783452D01*
X123871335Y-113697206D01*
X123871328Y-113697202D01*
X123736482Y-113646908D01*
X123736483Y-113646908D01*
X123676883Y-113640501D01*
X123676881Y-113640500D01*
X123676873Y-113640500D01*
X123676865Y-113640500D01*
X123486976Y-113640500D01*
X123419937Y-113620815D01*
X123374182Y-113568011D01*
X123364238Y-113498853D01*
X123393263Y-113435297D01*
X123418085Y-113413398D01*
X123438280Y-113399903D01*
X123510289Y-113351789D01*
X123621789Y-113240289D01*
X123696689Y-113128190D01*
X123716251Y-113105448D01*
X123729903Y-113093003D01*
X123838287Y-112994199D01*
X123964434Y-112827153D01*
X124057740Y-112639771D01*
X124115025Y-112438434D01*
X124134339Y-112230000D01*
X124115025Y-112021566D01*
X124057740Y-111820229D01*
X123983844Y-111671827D01*
X123964437Y-111632852D01*
X123964432Y-111632844D01*
X123838285Y-111465798D01*
X123683593Y-111324779D01*
X123683592Y-111324778D01*
X123505618Y-111214581D01*
X123505616Y-111214580D01*
X123505615Y-111214579D01*
X123351779Y-111154984D01*
X123310427Y-111138964D01*
X123104664Y-111100500D01*
X122895336Y-111100500D01*
X122689573Y-111138964D01*
X122689570Y-111138964D01*
X122689570Y-111138965D01*
X122494384Y-111214579D01*
X122494383Y-111214580D01*
X122316406Y-111324779D01*
X122161714Y-111465798D01*
X122035567Y-111632844D01*
X122035562Y-111632852D01*
X121942260Y-111820227D01*
X121936796Y-111839433D01*
X121899517Y-111898527D01*
X121836207Y-111928085D01*
X121817529Y-111929500D01*
X120191154Y-111929500D01*
X120036509Y-111960261D01*
X120036501Y-111960263D01*
X120001827Y-111974626D01*
X120001826Y-111974626D01*
X119890827Y-112020602D01*
X119890814Y-112020609D01*
X119759712Y-112108209D01*
X119759711Y-112108211D01*
X119759710Y-112108212D01*
X116489711Y-115378211D01*
X116443422Y-115424500D01*
X116425960Y-115441962D01*
X116364636Y-115475446D01*
X116294945Y-115470461D01*
X116263968Y-115453546D01*
X116167335Y-115381206D01*
X116167328Y-115381202D01*
X116032482Y-115330908D01*
X116032483Y-115330908D01*
X115972883Y-115324501D01*
X115972881Y-115324500D01*
X115972873Y-115324500D01*
X115972864Y-115324500D01*
X114077129Y-115324500D01*
X114077123Y-115324501D01*
X114017516Y-115330908D01*
X113882671Y-115381202D01*
X113882664Y-115381206D01*
X113767455Y-115467452D01*
X113767452Y-115467455D01*
X113681206Y-115582664D01*
X113681202Y-115582671D01*
X113630908Y-115717517D01*
X113624501Y-115777116D01*
X113624500Y-115777135D01*
X113624500Y-117672870D01*
X113624501Y-117672876D01*
X113630908Y-117732483D01*
X113681202Y-117867328D01*
X113681206Y-117867335D01*
X113767452Y-117982544D01*
X113767455Y-117982547D01*
X113882664Y-118068793D01*
X113882673Y-118068798D01*
X113962904Y-118098722D01*
X114018838Y-118140593D01*
X114043256Y-118206057D01*
X114028405Y-118274330D01*
X114010802Y-118298886D01*
X113916019Y-118401849D01*
X113789075Y-118596151D01*
X113695842Y-118808699D01*
X113638866Y-119033691D01*
X113638864Y-119033702D01*
X113619700Y-119264993D01*
X113619700Y-119265006D01*
X111000500Y-119265006D01*
X111000500Y-108000001D01*
X131194435Y-108000001D01*
X131198720Y-108038029D01*
X131199500Y-108051914D01*
X131199500Y-110078846D01*
X131230261Y-110233489D01*
X131230264Y-110233501D01*
X131290602Y-110379172D01*
X131290609Y-110379185D01*
X131378210Y-110510288D01*
X131378213Y-110510292D01*
X131900405Y-111032483D01*
X132370184Y-111502262D01*
X132497738Y-111629816D01*
X132563131Y-111670905D01*
X132566040Y-111672790D01*
X132620821Y-111709394D01*
X132621606Y-111709719D01*
X132640134Y-111719289D01*
X132650478Y-111725789D01*
X132711111Y-111747005D01*
X132711114Y-111747006D01*
X132717611Y-111749486D01*
X132766503Y-111769738D01*
X132766510Y-111769739D01*
X132766512Y-111769740D01*
X132780142Y-111772451D01*
X132796907Y-111777026D01*
X132820745Y-111785368D01*
X132871711Y-111791109D01*
X132881998Y-111792710D01*
X132899562Y-111796204D01*
X132921155Y-111800500D01*
X132921158Y-111800500D01*
X132948085Y-111800500D01*
X132961969Y-111801280D01*
X132999998Y-111805565D01*
X133000000Y-111805565D01*
X133000002Y-111805565D01*
X133038031Y-111801280D01*
X133051915Y-111800500D01*
X133078845Y-111800500D01*
X133091003Y-111798080D01*
X133118009Y-111792708D01*
X133128285Y-111791110D01*
X133179255Y-111785368D01*
X133203100Y-111777023D01*
X133219848Y-111772452D01*
X133233498Y-111769738D01*
X133282387Y-111749487D01*
X133288872Y-111747010D01*
X133349522Y-111725789D01*
X133359852Y-111719297D01*
X133378389Y-111709721D01*
X133378401Y-111709716D01*
X133379179Y-111709394D01*
X133433997Y-111672764D01*
X133436859Y-111670910D01*
X133469378Y-111650478D01*
X133502262Y-111629816D01*
X133502266Y-111629812D01*
X133510288Y-111621789D01*
X133510290Y-111621789D01*
X133621789Y-111510290D01*
X133621789Y-111510289D01*
X133628857Y-111503222D01*
X133628861Y-111503216D01*
X133629816Y-111502262D01*
X133670919Y-111436843D01*
X133672764Y-111433997D01*
X133709394Y-111379179D01*
X133709721Y-111378387D01*
X133719298Y-111359851D01*
X133725788Y-111349523D01*
X133725789Y-111349522D01*
X133747010Y-111288872D01*
X133749487Y-111282387D01*
X133762141Y-111251838D01*
X133769738Y-111233498D01*
X133772452Y-111219848D01*
X133777023Y-111203100D01*
X133785368Y-111179255D01*
X133791110Y-111128285D01*
X133792708Y-111118009D01*
X133800500Y-111078843D01*
X133800500Y-111051914D01*
X133801280Y-111038029D01*
X133805565Y-111000001D01*
X133805565Y-110999998D01*
X133801280Y-110961969D01*
X133800500Y-110948085D01*
X133800500Y-110921154D01*
X133792712Y-110882010D01*
X133791109Y-110871711D01*
X133785368Y-110820745D01*
X133777026Y-110796907D01*
X133772451Y-110780142D01*
X133769740Y-110766512D01*
X133769739Y-110766510D01*
X133769738Y-110766503D01*
X133749486Y-110717611D01*
X133747006Y-110711114D01*
X133740965Y-110693849D01*
X133725789Y-110650478D01*
X133719289Y-110640134D01*
X133709719Y-110621606D01*
X133709394Y-110620821D01*
X133672790Y-110566040D01*
X133670905Y-110563131D01*
X133637702Y-110510289D01*
X133629816Y-110497738D01*
X133502262Y-110370184D01*
X132836819Y-109704741D01*
X132803334Y-109643418D01*
X132800500Y-109617060D01*
X132800500Y-108676870D01*
X133330500Y-108676870D01*
X133330501Y-108676876D01*
X133336908Y-108736483D01*
X133387202Y-108871328D01*
X133387206Y-108871335D01*
X133473452Y-108986544D01*
X133473455Y-108986547D01*
X133588664Y-109072793D01*
X133588671Y-109072797D01*
X133723517Y-109123091D01*
X133723516Y-109123091D01*
X133730444Y-109123835D01*
X133783127Y-109129500D01*
X135136872Y-109129499D01*
X135196483Y-109123091D01*
X135331331Y-109072796D01*
X135446546Y-108986546D01*
X135532796Y-108871331D01*
X135583091Y-108736483D01*
X135589500Y-108676873D01*
X135589499Y-108000000D01*
X135865661Y-108000000D01*
X135884974Y-108208429D01*
X135942259Y-108409769D01*
X136035562Y-108597147D01*
X136035567Y-108597155D01*
X136161714Y-108764201D01*
X136291670Y-108882670D01*
X136316408Y-108905222D01*
X136494382Y-109015419D01*
X136494383Y-109015419D01*
X136494384Y-109015420D01*
X136519129Y-109025006D01*
X136689573Y-109091036D01*
X136895336Y-109129500D01*
X136895338Y-109129500D01*
X137104662Y-109129500D01*
X137104664Y-109129500D01*
X137310427Y-109091036D01*
X137505618Y-109015419D01*
X137683592Y-108905222D01*
X137834715Y-108767455D01*
X137838285Y-108764201D01*
X137859218Y-108736482D01*
X137964434Y-108597153D01*
X138057740Y-108409771D01*
X138115025Y-108208434D01*
X138134339Y-108000000D01*
X138115025Y-107791566D01*
X138057740Y-107590229D01*
X137979938Y-107433982D01*
X137964437Y-107402852D01*
X137964432Y-107402844D01*
X137838285Y-107235798D01*
X137683593Y-107094779D01*
X137683592Y-107094778D01*
X137505618Y-106984581D01*
X137505616Y-106984580D01*
X137505615Y-106984579D01*
X137351779Y-106924984D01*
X137310427Y-106908964D01*
X137104664Y-106870500D01*
X136895336Y-106870500D01*
X136689573Y-106908964D01*
X136689570Y-106908964D01*
X136689570Y-106908965D01*
X136494384Y-106984579D01*
X136494383Y-106984580D01*
X136316406Y-107094779D01*
X136161714Y-107235798D01*
X136035567Y-107402844D01*
X136035562Y-107402852D01*
X135942259Y-107590230D01*
X135903690Y-107725789D01*
X135886739Y-107785368D01*
X135884974Y-107791570D01*
X135865661Y-107999999D01*
X135865661Y-108000000D01*
X135589499Y-108000000D01*
X135589499Y-107323128D01*
X135583091Y-107263517D01*
X135578239Y-107250509D01*
X135532797Y-107128671D01*
X135532793Y-107128664D01*
X135446547Y-107013455D01*
X135446544Y-107013452D01*
X135331335Y-106927206D01*
X135331328Y-106927202D01*
X135196482Y-106876908D01*
X135196483Y-106876908D01*
X135136883Y-106870501D01*
X135136881Y-106870500D01*
X135136873Y-106870500D01*
X135136864Y-106870500D01*
X133783129Y-106870500D01*
X133783123Y-106870501D01*
X133723516Y-106876908D01*
X133588671Y-106927202D01*
X133588664Y-106927206D01*
X133473455Y-107013452D01*
X133473452Y-107013455D01*
X133387206Y-107128664D01*
X133387202Y-107128671D01*
X133336908Y-107263517D01*
X133330501Y-107323116D01*
X133330501Y-107323123D01*
X133330500Y-107323135D01*
X133330500Y-108676870D01*
X132800500Y-108676870D01*
X132800500Y-108051914D01*
X132801280Y-108038029D01*
X132805565Y-108000001D01*
X132805565Y-107999998D01*
X132801280Y-107961969D01*
X132800500Y-107948085D01*
X132800500Y-107921157D01*
X132792711Y-107882003D01*
X132791110Y-107871714D01*
X132785368Y-107820745D01*
X132777023Y-107796898D01*
X132772449Y-107780139D01*
X132769737Y-107766503D01*
X132769734Y-107766496D01*
X132750182Y-107719293D01*
X132749484Y-107717607D01*
X132747028Y-107711175D01*
X132725789Y-107650478D01*
X132719289Y-107640134D01*
X132709719Y-107621606D01*
X132709394Y-107620821D01*
X132672790Y-107566040D01*
X132670905Y-107563131D01*
X132629816Y-107497738D01*
X132502262Y-107370184D01*
X132502260Y-107370182D01*
X132502257Y-107370180D01*
X132436900Y-107329114D01*
X132433982Y-107327223D01*
X132379179Y-107290605D01*
X132379173Y-107290603D01*
X132378365Y-107290268D01*
X132359865Y-107280709D01*
X132349524Y-107274212D01*
X132349523Y-107274211D01*
X132349522Y-107274211D01*
X132288867Y-107252986D01*
X132282377Y-107250509D01*
X132233496Y-107230262D01*
X132219860Y-107227550D01*
X132203104Y-107222976D01*
X132179260Y-107214633D01*
X132179256Y-107214632D01*
X132179255Y-107214632D01*
X132158575Y-107212301D01*
X132128303Y-107208890D01*
X132118003Y-107207288D01*
X132078844Y-107199500D01*
X132078842Y-107199500D01*
X132051915Y-107199500D01*
X132038031Y-107198720D01*
X132000002Y-107194435D01*
X131999998Y-107194435D01*
X131961969Y-107198720D01*
X131948085Y-107199500D01*
X131921152Y-107199500D01*
X131881994Y-107207288D01*
X131871696Y-107208890D01*
X131820742Y-107214632D01*
X131820735Y-107214634D01*
X131796898Y-107222975D01*
X131780140Y-107227550D01*
X131766502Y-107230263D01*
X131766496Y-107230264D01*
X131717631Y-107250504D01*
X131711140Y-107252982D01*
X131650477Y-107274210D01*
X131650474Y-107274212D01*
X131640127Y-107280713D01*
X131621639Y-107290266D01*
X131620832Y-107290600D01*
X131620824Y-107290604D01*
X131566047Y-107327204D01*
X131563132Y-107329092D01*
X131497742Y-107370180D01*
X131497735Y-107370186D01*
X131370186Y-107497735D01*
X131370180Y-107497742D01*
X131329092Y-107563132D01*
X131327204Y-107566047D01*
X131290604Y-107620824D01*
X131290600Y-107620832D01*
X131290266Y-107621639D01*
X131280713Y-107640127D01*
X131274212Y-107650474D01*
X131274210Y-107650477D01*
X131252982Y-107711140D01*
X131250504Y-107717631D01*
X131230264Y-107766496D01*
X131230263Y-107766502D01*
X131227550Y-107780140D01*
X131222975Y-107796898D01*
X131214634Y-107820735D01*
X131214632Y-107820742D01*
X131208890Y-107871696D01*
X131207288Y-107881994D01*
X131199500Y-107921152D01*
X131199500Y-107948085D01*
X131198720Y-107961969D01*
X131194435Y-107999998D01*
X131194435Y-108000001D01*
X111000500Y-108000001D01*
X111000500Y-107000001D01*
X116694435Y-107000001D01*
X116698720Y-107038029D01*
X116699500Y-107051914D01*
X116699500Y-107078844D01*
X116707288Y-107118003D01*
X116708890Y-107128303D01*
X116714632Y-107179252D01*
X116714633Y-107179260D01*
X116722976Y-107203104D01*
X116727550Y-107219860D01*
X116730262Y-107233496D01*
X116750509Y-107282377D01*
X116752986Y-107288867D01*
X116766401Y-107327204D01*
X116774212Y-107349524D01*
X116780709Y-107359865D01*
X116790268Y-107378365D01*
X116790603Y-107379173D01*
X116790605Y-107379179D01*
X116827223Y-107433982D01*
X116829114Y-107436900D01*
X116870180Y-107502257D01*
X116870182Y-107502260D01*
X116870184Y-107502262D01*
X116997738Y-107629816D01*
X117063131Y-107670905D01*
X117066040Y-107672790D01*
X117120821Y-107709394D01*
X117121606Y-107709719D01*
X117140134Y-107719289D01*
X117150478Y-107725789D01*
X117211175Y-107747028D01*
X117217607Y-107749484D01*
X117246021Y-107761253D01*
X117266497Y-107769735D01*
X117266498Y-107769735D01*
X117266503Y-107769737D01*
X117280139Y-107772449D01*
X117296898Y-107777023D01*
X117320745Y-107785368D01*
X117371714Y-107791110D01*
X117381992Y-107792709D01*
X117409140Y-107798109D01*
X117421157Y-107800500D01*
X117421158Y-107800500D01*
X117448085Y-107800500D01*
X117461969Y-107801280D01*
X117499998Y-107805565D01*
X117500000Y-107805565D01*
X117500002Y-107805565D01*
X117538031Y-107801280D01*
X117551915Y-107800500D01*
X126078844Y-107800500D01*
X126078845Y-107800499D01*
X126233497Y-107769737D01*
X126379179Y-107709394D01*
X126510289Y-107621789D01*
X127121789Y-107010289D01*
X127129816Y-107002262D01*
X127170931Y-106936825D01*
X127172777Y-106933979D01*
X127209389Y-106879186D01*
X127209394Y-106879179D01*
X127209720Y-106878390D01*
X127219287Y-106859868D01*
X127225789Y-106849522D01*
X127247022Y-106788837D01*
X127249477Y-106782407D01*
X127269738Y-106733497D01*
X127272449Y-106719860D01*
X127277025Y-106703096D01*
X127285368Y-106679255D01*
X127291109Y-106628287D01*
X127292709Y-106618004D01*
X127300500Y-106578842D01*
X127300500Y-106551914D01*
X127301280Y-106538029D01*
X127305565Y-106500001D01*
X127305565Y-106499998D01*
X127301280Y-106461969D01*
X127300500Y-106448085D01*
X127300500Y-106421157D01*
X127292710Y-106381998D01*
X127291109Y-106371703D01*
X127285368Y-106320745D01*
X127277027Y-106296909D01*
X127272449Y-106280137D01*
X127271271Y-106274212D01*
X127269738Y-106266503D01*
X127249481Y-106217600D01*
X127247006Y-106211115D01*
X127246227Y-106208890D01*
X127225789Y-106150478D01*
X127219289Y-106140134D01*
X127209719Y-106121606D01*
X127209394Y-106120821D01*
X127172790Y-106066040D01*
X127170905Y-106063131D01*
X127129815Y-105997737D01*
X127002260Y-105870182D01*
X127002257Y-105870180D01*
X126936900Y-105829114D01*
X126933982Y-105827223D01*
X126879179Y-105790605D01*
X126879173Y-105790603D01*
X126878365Y-105790268D01*
X126859865Y-105780709D01*
X126849526Y-105774213D01*
X126849513Y-105774206D01*
X126788885Y-105752992D01*
X126782390Y-105750513D01*
X126733497Y-105730262D01*
X126733491Y-105730260D01*
X126719850Y-105727547D01*
X126703090Y-105722972D01*
X126679250Y-105714630D01*
X126679251Y-105714630D01*
X126628315Y-105708892D01*
X126618009Y-105707290D01*
X126578843Y-105699500D01*
X126551915Y-105699500D01*
X126538031Y-105698720D01*
X126500002Y-105694435D01*
X126499998Y-105694435D01*
X126461969Y-105698720D01*
X126448085Y-105699500D01*
X126421158Y-105699500D01*
X126381991Y-105707290D01*
X126371685Y-105708892D01*
X126320751Y-105714630D01*
X126320741Y-105714632D01*
X126296904Y-105722973D01*
X126280150Y-105727547D01*
X126266503Y-105730261D01*
X126217619Y-105750509D01*
X126211126Y-105752988D01*
X126150481Y-105774209D01*
X126150469Y-105774215D01*
X126140127Y-105780713D01*
X126121639Y-105790266D01*
X126120832Y-105790600D01*
X126120824Y-105790604D01*
X126066047Y-105827204D01*
X126063132Y-105829092D01*
X125997742Y-105870180D01*
X125997735Y-105870186D01*
X125704741Y-106163181D01*
X125643418Y-106196666D01*
X125617060Y-106199500D01*
X117551915Y-106199500D01*
X117538031Y-106198720D01*
X117500002Y-106194435D01*
X117499998Y-106194435D01*
X117461969Y-106198720D01*
X117448085Y-106199500D01*
X117421152Y-106199500D01*
X117381994Y-106207288D01*
X117371696Y-106208890D01*
X117320742Y-106214632D01*
X117320735Y-106214634D01*
X117296898Y-106222975D01*
X117280140Y-106227550D01*
X117266502Y-106230263D01*
X117266496Y-106230264D01*
X117217631Y-106250504D01*
X117211140Y-106252982D01*
X117150477Y-106274210D01*
X117150474Y-106274212D01*
X117140127Y-106280713D01*
X117121639Y-106290266D01*
X117120832Y-106290600D01*
X117120824Y-106290604D01*
X117066047Y-106327204D01*
X117063132Y-106329092D01*
X116997742Y-106370180D01*
X116997735Y-106370186D01*
X116870186Y-106497735D01*
X116870180Y-106497742D01*
X116829092Y-106563132D01*
X116827209Y-106566038D01*
X116792499Y-106617988D01*
X116790604Y-106620824D01*
X116790600Y-106620832D01*
X116790266Y-106621639D01*
X116780713Y-106640127D01*
X116774212Y-106650474D01*
X116774210Y-106650477D01*
X116752982Y-106711140D01*
X116750504Y-106717631D01*
X116730264Y-106766496D01*
X116730263Y-106766502D01*
X116727550Y-106780140D01*
X116722975Y-106796898D01*
X116714634Y-106820735D01*
X116714632Y-106820742D01*
X116708890Y-106871696D01*
X116707288Y-106881994D01*
X116699500Y-106921152D01*
X116699500Y-106948085D01*
X116698720Y-106961969D01*
X116694435Y-106999998D01*
X116694435Y-107000001D01*
X111000500Y-107000001D01*
X111000500Y-103124500D01*
X111020185Y-103057461D01*
X111072989Y-103011706D01*
X111124500Y-103000500D01*
X174375500Y-103000500D01*
X174442539Y-103020185D01*
G37*
%TD.AperFunction*%
%TD*%
M02*
